<?xml version="1.0" encoding="UTF-8" standalone="no"?>
<!DOCTYPE svg PUBLIC "-//W3C//DTD SVG 1.1//EN"
 "http://www.w3.org/Graphics/SVG/1.1/DTD/svg11.dtd">
<!-- Generated by graphviz version 2.43.0 (0)
 -->
<!-- Title: %3 Pages: 1 -->
<svg width="1887pt" height="370pt"
 viewBox="0.00 0.00 1886.57 370.31" xmlns="http://www.w3.org/2000/svg" xmlns:xlink="http://www.w3.org/1999/xlink">
<g id="graph0" class="graph" transform="scale(1 1) rotate(0) translate(4 366.31)">
<title>%3</title>
<polygon fill="white" stroke="transparent" points="-4,4 -4,-366.31 1882.57,-366.31 1882.57,4 -4,4"/>
<!-- cs2370 -->
<g id="node1" class="node">
<title>cs2370</title>
<ellipse fill="none" stroke="black" cx="1302.09" cy="-344.31" rx="148.67" ry="18"/>
<text text-anchor="middle" x="1302.09" y="-340.61" font-family="Times,serif" font-size="14.00">cs2370 Intro to Programming</text>
</g>
<!-- cs2381 -->
<g id="node2" class="node">
<title>cs2381</title>
<ellipse fill="none" stroke="black" cx="986.09" cy="-272.31" rx="121.58" ry="18"/>
<text text-anchor="middle" x="986.09" y="-268.61" font-family="Times,serif" font-size="14.00">cs2381 Data Structures</text>
</g>
<!-- cs2370&#45;&gt;cs2381 -->
<g id="edge1" class="edge">
<title>cs2370&#45;&gt;cs2381</title>
<path fill="none" stroke="black" d="M1233.91,-328.21C1182.86,-316.9 1113.07,-301.44 1060.56,-289.81"/>
<polygon fill="black" stroke="black" points="1061.16,-286.35 1050.64,-287.61 1059.64,-293.19 1061.16,-286.35"/>
</g>
<!-- cs2220 -->
<g id="node5" class="node">
<title>cs2220</title>
<ellipse fill="none" stroke="black" cx="1644.09" cy="-272.31" rx="142.17" ry="18"/>
<text text-anchor="middle" x="1644.09" y="-268.61" font-family="Times,serif" font-size="14.00">cs2220 Computer Hardware</text>
</g>
<!-- cs2370&#45;&gt;cs2220 -->
<g id="edge4" class="edge">
<title>cs2370&#45;&gt;cs2220</title>
<path fill="none" stroke="black" d="M1374.2,-328.55C1429.29,-317.27 1505.25,-301.73 1562.55,-290"/>
<polygon fill="black" stroke="black" points="1563.57,-293.36 1572.66,-287.93 1562.16,-286.5 1563.57,-293.36"/>
</g>
<!-- cs3xx0 -->
<g id="node3" class="node">
<title>cs3xx0</title>
<ellipse fill="none" stroke="black" cx="152.09" cy="-200.31" rx="152.17" ry="18"/>
<text text-anchor="middle" x="152.09" y="-196.61" font-family="Times,serif" font-size="14.00">cs3xx0 Software Development</text>
</g>
<!-- cs2381&#45;&gt;cs3xx0 -->
<g id="edge2" class="edge">
<title>cs2381&#45;&gt;cs3xx0</title>
<path fill="none" stroke="black" d="M879.07,-263.76C746.24,-254.19 512.8,-236.71 313.09,-218.31 299.1,-217.02 284.44,-215.59 269.9,-214.11"/>
<polygon fill="black" stroke="black" points="270.17,-210.62 259.87,-213.09 269.46,-217.59 270.17,-210.62"/>
</g>
<!-- cs3xx1 -->
<g id="node4" class="node">
<title>cs3xx1</title>
<ellipse fill="none" stroke="black" cx="981.09" cy="-200.31" rx="163.27" ry="18"/>
<text text-anchor="middle" x="981.09" y="-196.61" font-family="Times,serif" font-size="14.00">cs3xx1 Programming Languages</text>
</g>
<!-- cs2381&#45;&gt;cs3xx1 -->
<g id="edge3" class="edge">
<title>cs2381&#45;&gt;cs3xx1</title>
<path fill="none" stroke="black" d="M984.85,-254.01C984.3,-246.29 983.64,-237.02 983.02,-228.42"/>
<polygon fill="black" stroke="black" points="986.51,-228.14 982.31,-218.41 979.53,-228.64 986.51,-228.14"/>
</g>
<!-- cs2470 -->
<g id="node6" class="node">
<title>cs2470</title>
<ellipse fill="none" stroke="black" cx="1664.09" cy="-200.31" rx="214.46" ry="18"/>
<text text-anchor="middle" x="1664.09" y="-196.61" font-family="Times,serif" font-size="14.00">cs2470 Systems Programming (C and ASM)</text>
</g>
<!-- cs2381&#45;&gt;cs2470 -->
<g id="edge6" class="edge">
<title>cs2381&#45;&gt;cs2470</title>
<path fill="none" stroke="black" d="M1074.57,-259.9C1090.38,-257.96 1106.71,-256.02 1122.09,-254.31 1254.33,-239.58 1404.97,-225.03 1513.82,-214.91"/>
<polygon fill="black" stroke="black" points="1514.25,-218.38 1523.89,-213.98 1513.61,-211.41 1514.25,-218.38"/>
</g>
<!-- cs3xx2 -->
<g id="node7" class="node">
<title>cs3xx2</title>
<ellipse fill="none" stroke="black" cx="475.09" cy="-200.31" rx="152.97" ry="18"/>
<text text-anchor="middle" x="475.09" y="-196.61" font-family="Times,serif" font-size="14.00">cs3xx2 Network Programming</text>
</g>
<!-- cs2381&#45;&gt;cs3xx2 -->
<g id="edge7" class="edge">
<title>cs2381&#45;&gt;cs3xx2</title>
<path fill="none" stroke="black" d="M900.27,-259.55C812.36,-247.51 675.54,-228.77 580.96,-215.81"/>
<polygon fill="black" stroke="black" points="581.18,-212.31 570.8,-214.42 580.23,-219.24 581.18,-212.31"/>
</g>
<!-- cs3221 -->
<g id="node10" class="node">
<title>cs3221</title>
<ellipse fill="none" stroke="black" cx="1297.09" cy="-200.31" rx="134.58" ry="18"/>
<text text-anchor="middle" x="1297.09" y="-196.61" font-family="Times,serif" font-size="14.00">cs3221 Algorithm Analysis</text>
</g>
<!-- cs2381&#45;&gt;cs3221 -->
<g id="edge9" class="edge">
<title>cs2381&#45;&gt;cs3221</title>
<path fill="none" stroke="black" d="M1049.77,-256.97C1099.61,-245.76 1169.04,-230.13 1221.66,-218.29"/>
<polygon fill="black" stroke="black" points="1222.62,-221.66 1231.61,-216.05 1221.09,-214.83 1222.62,-221.66"/>
</g>
<!-- cs4xx1 -->
<g id="node16" class="node">
<title>cs4xx1</title>
<ellipse fill="none" stroke="black" cx="267.09" cy="-118.73" rx="65.11" ry="27.65"/>
<text text-anchor="middle" x="267.09" y="-107.03" font-family="Times,serif" font-size="14.00"> Elective 1</text>
</g>
<!-- cs3xx0&#45;&gt;cs4xx1 -->
<g id="edge14" class="edge">
<title>cs3xx0&#45;&gt;cs4xx1</title>
<path fill="none" stroke="black" d="M176.48,-182.43C190.74,-172.56 209.12,-159.84 225.6,-148.44"/>
<polygon fill="black" stroke="black" points="227.78,-151.19 234.01,-142.62 223.79,-145.43 227.78,-151.19"/>
</g>
<!-- cs4760 -->
<g id="node18" class="node">
<title>cs4760</title>
<ellipse fill="none" stroke="black" cx="1024.09" cy="-27.58" rx="113.18" ry="18"/>
<text text-anchor="middle" x="1024.09" y="-23.88" font-family="Times,serif" font-size="14.00">cs4760 Senior Project</text>
</g>
<!-- cs3xx1&#45;&gt;cs4760 -->
<g id="edge20" class="edge">
<title>cs3xx1&#45;&gt;cs4760</title>
<path fill="none" stroke="black" d="M990.29,-182.09C995.36,-171.94 1001.36,-158.69 1005.09,-146.31 1014.2,-116.05 1019.2,-80.03 1021.75,-55.86"/>
<polygon fill="black" stroke="black" points="1025.26,-55.96 1022.76,-45.66 1018.29,-55.27 1025.26,-55.96"/>
</g>
<!-- cs2220&#45;&gt;cs2470 -->
<g id="edge5" class="edge">
<title>cs2220&#45;&gt;cs2470</title>
<path fill="none" stroke="black" d="M1649.03,-254.01C1651.26,-246.21 1653.94,-236.82 1656.42,-228.14"/>
<polygon fill="black" stroke="black" points="1659.82,-228.99 1659.2,-218.41 1653.09,-227.07 1659.82,-228.99"/>
</g>
<!-- cs4310 -->
<g id="node8" class="node">
<title>cs4310</title>
<ellipse fill="none" stroke="black" cx="1506.09" cy="-118.73" rx="135.68" ry="18"/>
<text text-anchor="middle" x="1506.09" y="-115.03" font-family="Times,serif" font-size="14.00">cs4310 Operating Systems</text>
</g>
<!-- cs2470&#45;&gt;cs4310 -->
<g id="edge8" class="edge">
<title>cs2470&#45;&gt;cs4310</title>
<path fill="none" stroke="black" d="M1630.58,-182.43C1606.54,-170.32 1573.97,-153.92 1548.17,-140.93"/>
<polygon fill="black" stroke="black" points="1549.51,-137.68 1539,-136.31 1546.36,-143.93 1549.51,-137.68"/>
</g>
<!-- cs3xx2&#45;&gt;cs4760 -->
<g id="edge21" class="edge">
<title>cs3xx2&#45;&gt;cs4760</title>
<path fill="none" stroke="black" d="M472.48,-182.2C469.88,-158.13 469.29,-114.59 494.09,-91.15 523.64,-63.23 761.85,-44.18 908.68,-34.96"/>
<polygon fill="black" stroke="black" points="909.33,-38.43 919.09,-34.31 908.89,-31.44 909.33,-38.43"/>
</g>
<!-- cs4310&#45;&gt;cs4760 -->
<g id="edge17" class="edge">
<title>cs4310&#45;&gt;cs4760</title>
<path fill="none" stroke="black" d="M1430.51,-103.75C1341.9,-87.36 1195.62,-60.31 1104.84,-43.51"/>
<polygon fill="black" stroke="black" points="1105.33,-40.05 1094.86,-41.67 1104.06,-46.93 1105.33,-40.05"/>
</g>
<!-- ma2450 -->
<g id="node9" class="node">
<title>ma2450</title>
<ellipse fill="none" stroke="black" cx="1297.09" cy="-272.31" rx="166.27" ry="18"/>
<text text-anchor="middle" x="1297.09" y="-268.61" font-family="Times,serif" font-size="14.00">ma2450 Mathematical Reasoning</text>
</g>
<!-- ma2450&#45;&gt;cs3221 -->
<g id="edge10" class="edge">
<title>ma2450&#45;&gt;cs3221</title>
<path fill="none" stroke="black" d="M1297.09,-254.01C1297.09,-246.29 1297.09,-237.02 1297.09,-228.42"/>
<polygon fill="black" stroke="black" points="1300.59,-228.41 1297.09,-218.41 1293.59,-228.41 1300.59,-228.41"/>
</g>
<!-- cs3780 -->
<g id="node11" class="node">
<title>cs3780</title>
<ellipse fill="none" stroke="black" cx="1202.09" cy="-118.73" rx="150.27" ry="18"/>
<text text-anchor="middle" x="1202.09" y="-115.03" font-family="Times,serif" font-size="14.00">cs3780 Computational Theory</text>
</g>
<!-- cs3221&#45;&gt;cs3780 -->
<g id="edge11" class="edge">
<title>cs3221&#45;&gt;cs3780</title>
<path fill="none" stroke="black" d="M1276.94,-182.43C1263.34,-171.04 1245.19,-155.84 1230.18,-143.26"/>
<polygon fill="black" stroke="black" points="1232.12,-140.32 1222.2,-136.58 1227.62,-145.69 1232.12,-140.32"/>
</g>
<!-- cs3780&#45;&gt;cs4760 -->
<g id="edge16" class="edge">
<title>cs3780&#45;&gt;cs4760</title>
<path fill="none" stroke="black" d="M1169.02,-101.17C1139.83,-86.55 1097.14,-65.17 1065.65,-49.39"/>
<polygon fill="black" stroke="black" points="1067.18,-46.25 1056.67,-44.9 1064.05,-52.51 1067.18,-46.25"/>
</g>
<!-- cs4520 -->
<g id="node12" class="node">
<title>cs4520</title>
<ellipse fill="none" stroke="black" cx="1763.09" cy="-118.73" rx="102.88" ry="18"/>
<text text-anchor="middle" x="1763.09" y="-115.03" font-family="Times,serif" font-size="14.00">cs4520 Cyberethics</text>
</g>
<!-- cs4520&#45;&gt;cs4760 -->
<g id="edge18" class="edge">
<title>cs4520&#45;&gt;cs4760</title>
<path fill="none" stroke="black" d="M1708.98,-103.35C1690.7,-98.91 1670.11,-94.35 1651.09,-91.15 1473.17,-61.3 1264.29,-43.94 1138.17,-35.37"/>
<polygon fill="black" stroke="black" points="1138.32,-31.87 1128.11,-34.69 1137.85,-38.86 1138.32,-31.87"/>
</g>
<!-- ma2550 -->
<g id="node13" class="node">
<title>ma2550</title>
<ellipse fill="none" stroke="black" cx="723.09" cy="-200.31" rx="77.19" ry="18"/>
<text text-anchor="middle" x="723.09" y="-196.61" font-family="Times,serif" font-size="14.00">ma2550 Calc I</text>
</g>
<!-- ma3500 -->
<g id="node14" class="node">
<title>ma3500</title>
<ellipse fill="none" stroke="black" cx="615.09" cy="-118.73" rx="112.38" ry="18"/>
<text text-anchor="middle" x="615.09" y="-115.03" font-family="Times,serif" font-size="14.00">ma3500 Stats w/ Calc</text>
</g>
<!-- ma2550&#45;&gt;ma3500 -->
<g id="edge12" class="edge">
<title>ma2550&#45;&gt;ma3500</title>
<path fill="none" stroke="black" d="M700.97,-183.01C685.17,-171.37 663.69,-155.54 646.16,-142.63"/>
<polygon fill="black" stroke="black" points="648.04,-139.67 637.92,-136.55 643.89,-145.3 648.04,-139.67"/>
</g>
<!-- ma3xx1 -->
<g id="node15" class="node">
<title>ma3xx1</title>
<ellipse fill="none" stroke="black" cx="871.09" cy="-118.73" rx="125.38" ry="18"/>
<text text-anchor="middle" x="871.09" y="-115.03" font-family="Times,serif" font-size="14.00">ma3xx1 Calc II or Linear</text>
</g>
<!-- ma2550&#45;&gt;ma3xx1 -->
<g id="edge13" class="edge">
<title>ma2550&#45;&gt;ma3xx1</title>
<path fill="none" stroke="black" d="M752.33,-183.59C774.98,-171.4 806.61,-154.4 831.53,-141"/>
<polygon fill="black" stroke="black" points="833.23,-144.06 840.38,-136.24 829.91,-137.9 833.23,-144.06"/>
</g>
<!-- ma3500&#45;&gt;cs4760 -->
<g id="edge19" class="edge">
<title>ma3500&#45;&gt;cs4760</title>
<path fill="none" stroke="black" d="M678.99,-103.8C752.42,-87.8 872.72,-61.57 950.13,-44.7"/>
<polygon fill="black" stroke="black" points="951.27,-48.03 960.29,-42.48 949.78,-41.19 951.27,-48.03"/>
</g>
<!-- cs4xx2 -->
<g id="node17" class="node">
<title>cs4xx2</title>
<ellipse fill="none" stroke="black" cx="267.09" cy="-27.58" rx="65.11" ry="27.65"/>
<text text-anchor="middle" x="267.09" y="-15.88" font-family="Times,serif" font-size="14.00"> Elective 2</text>
</g>
<!-- cs4xx1&#45;&gt;cs4xx2 -->
<g id="edge15" class="edge">
<title>cs4xx1&#45;&gt;cs4xx2</title>
<path fill="none" stroke="black" d="M267.09,-90.98C267.09,-82.96 267.09,-74.02 267.09,-65.46"/>
<polygon fill="black" stroke="black" points="270.59,-65.31 267.09,-55.31 263.59,-65.31 270.59,-65.31"/>
</g>
<!-- cs4xx1&#45;&gt;cs4760 -->
<g id="edge22" class="edge">
<title>cs4xx1&#45;&gt;cs4760</title>
<path fill="none" stroke="black" d="M328.2,-108.95C366.37,-103.57 416.55,-96.68 461.09,-91.15 621.9,-71.2 808.95,-51.01 921.83,-39.15"/>
<polygon fill="black" stroke="black" points="922.26,-42.63 931.84,-38.1 921.53,-35.66 922.26,-42.63"/>
</g>
</g>
</svg>
