<?xml version="1.0" encoding="UTF-8" standalone="no"?>
<!DOCTYPE svg PUBLIC "-//W3C//DTD SVG 1.1//EN"
 "http://www.w3.org/Graphics/SVG/1.1/DTD/svg11.dtd">
<!-- Generated by graphviz version 2.43.0 (0)
 -->
<!-- Title: %3 Pages: 1 -->
<svg width="1376pt" height="332pt"
 viewBox="0.00 0.00 1375.71 332.00" xmlns="http://www.w3.org/2000/svg" xmlns:xlink="http://www.w3.org/1999/xlink">
<g id="graph0" class="graph" transform="scale(1 1) rotate(0) translate(4 328)">
<title>%3</title>
<polygon fill="white" stroke="transparent" points="-4,4 -4,-328 1371.71,-328 1371.71,4 -4,4"/>
<!-- cs2370 -->
<g id="node1" class="node">
<title>cs2370</title>
<ellipse fill="none" stroke="black" cx="489.52" cy="-306" rx="148.67" ry="18"/>
<text text-anchor="middle" x="489.52" y="-302.3" font-family="Times,serif" font-size="14.00">cs2370 Intro to Programming</text>
</g>
<!-- cs2381 -->
<g id="node2" class="node">
<title>cs2381</title>
<ellipse fill="none" stroke="black" cx="489.52" cy="-234" rx="121.58" ry="18"/>
<text text-anchor="middle" x="489.52" y="-230.3" font-family="Times,serif" font-size="14.00">cs2381 Data Structures</text>
</g>
<!-- cs2370&#45;&gt;cs2381 -->
<g id="edge1" class="edge">
<title>cs2370&#45;&gt;cs2381</title>
<path fill="none" stroke="black" d="M489.52,-287.7C489.52,-279.98 489.52,-270.71 489.52,-262.11"/>
<polygon fill="black" stroke="black" points="493.02,-262.1 489.52,-252.1 486.02,-262.1 493.02,-262.1"/>
</g>
<!-- cs2470 -->
<g id="node4" class="node">
<title>cs2470</title>
<ellipse fill="none" stroke="black" cx="1132.52" cy="-234" rx="200.36" ry="18"/>
<text text-anchor="middle" x="1132.52" y="-230.3" font-family="Times,serif" font-size="14.00">cs2470 Systems Programming in C/C++</text>
</g>
<!-- cs2370&#45;&gt;cs2470 -->
<g id="edge2" class="edge">
<title>cs2370&#45;&gt;cs2470</title>
<path fill="none" stroke="black" d="M596.06,-293.4C706.97,-281.33 880.88,-262.39 1000.45,-249.38"/>
<polygon fill="black" stroke="black" points="1000.84,-252.86 1010.4,-248.29 1000.08,-245.9 1000.84,-252.86"/>
</g>
<!-- cs3600 -->
<g id="node10" class="node">
<title>cs3600</title>
<ellipse fill="none" stroke="black" cx="150.52" cy="-162" rx="94.78" ry="18"/>
<text text-anchor="middle" x="150.52" y="-158.3" font-family="Times,serif" font-size="14.00">cs3600 Databases</text>
</g>
<!-- cs2370&#45;&gt;cs3600 -->
<g id="edge10" class="edge">
<title>cs2370&#45;&gt;cs3600</title>
<path fill="none" stroke="black" d="M352.08,-299.08C218.1,-291.86 31.24,-277.36 8.52,-252 -20.69,-219.39 33.49,-194.37 83.13,-179.28"/>
<polygon fill="black" stroke="black" points="84.36,-182.57 92.97,-176.4 82.39,-175.85 84.36,-182.57"/>
</g>
<!-- cs4250 -->
<g id="node5" class="node">
<title>cs4250</title>
<ellipse fill="none" stroke="black" cx="771.52" cy="-162" rx="156.77" ry="18"/>
<text text-anchor="middle" x="771.52" y="-158.3" font-family="Times,serif" font-size="14.00">cs4250 Computer Archetecture</text>
</g>
<!-- cs2381&#45;&gt;cs4250 -->
<g id="edge4" class="edge">
<title>cs2381&#45;&gt;cs4250</title>
<path fill="none" stroke="black" d="M548.98,-218.24C592.73,-207.38 652.44,-192.56 698.99,-181"/>
<polygon fill="black" stroke="black" points="699.86,-184.4 708.72,-178.59 698.17,-177.6 699.86,-184.4"/>
</g>
<!-- cs3221 -->
<g id="node8" class="node">
<title>cs3221</title>
<ellipse fill="none" stroke="black" cx="462.52" cy="-162" rx="134.58" ry="18"/>
<text text-anchor="middle" x="462.52" y="-158.3" font-family="Times,serif" font-size="14.00">cs3221 Algorithm Analysis</text>
</g>
<!-- cs2381&#45;&gt;cs3221 -->
<g id="edge7" class="edge">
<title>cs2381&#45;&gt;cs3221</title>
<path fill="none" stroke="black" d="M482.85,-215.7C479.8,-207.81 476.14,-198.3 472.76,-189.55"/>
<polygon fill="black" stroke="black" points="475.98,-188.17 469.12,-180.1 469.45,-190.69 475.98,-188.17"/>
</g>
<!-- cs2220 -->
<g id="node3" class="node">
<title>cs2220</title>
<ellipse fill="none" stroke="black" cx="771.52" cy="-234" rx="142.17" ry="18"/>
<text text-anchor="middle" x="771.52" y="-230.3" font-family="Times,serif" font-size="14.00">cs2220 Computer Hardware</text>
</g>
<!-- cs2220&#45;&gt;cs4250 -->
<g id="edge3" class="edge">
<title>cs2220&#45;&gt;cs4250</title>
<path fill="none" stroke="black" d="M771.52,-215.7C771.52,-207.98 771.52,-198.71 771.52,-190.11"/>
<polygon fill="black" stroke="black" points="775.02,-190.1 771.52,-180.1 768.02,-190.1 775.02,-190.1"/>
</g>
<!-- cs4310 -->
<g id="node6" class="node">
<title>cs4310</title>
<ellipse fill="none" stroke="black" cx="771.52" cy="-90" rx="135.68" ry="18"/>
<text text-anchor="middle" x="771.52" y="-86.3" font-family="Times,serif" font-size="14.00">cs4310 Operating Systems</text>
</g>
<!-- cs2470&#45;&gt;cs4310 -->
<g id="edge6" class="edge">
<title>cs2470&#45;&gt;cs4310</title>
<path fill="none" stroke="black" d="M1098.88,-216.16C1060.42,-197.26 995.32,-166.33 937.52,-144 904.42,-131.21 866.8,-119.02 835.75,-109.55"/>
<polygon fill="black" stroke="black" points="836.5,-106.12 825.91,-106.58 834.47,-112.82 836.5,-106.12"/>
</g>
<!-- cs4250&#45;&gt;cs4310 -->
<g id="edge5" class="edge">
<title>cs4250&#45;&gt;cs4310</title>
<path fill="none" stroke="black" d="M771.52,-143.7C771.52,-135.98 771.52,-126.71 771.52,-118.11"/>
<polygon fill="black" stroke="black" points="775.02,-118.1 771.52,-108.1 768.02,-118.1 775.02,-118.1"/>
</g>
<!-- cs4760 -->
<g id="node15" class="node">
<title>cs4760</title>
<ellipse fill="none" stroke="black" cx="771.52" cy="-18" rx="113.18" ry="18"/>
<text text-anchor="middle" x="771.52" y="-14.3" font-family="Times,serif" font-size="14.00">cs4760 Senior Project</text>
</g>
<!-- cs4310&#45;&gt;cs4760 -->
<g id="edge15" class="edge">
<title>cs4310&#45;&gt;cs4760</title>
<path fill="none" stroke="black" d="M771.52,-71.7C771.52,-63.98 771.52,-54.71 771.52,-46.11"/>
<polygon fill="black" stroke="black" points="775.02,-46.1 771.52,-36.1 768.02,-46.1 775.02,-46.1"/>
</g>
<!-- ma2450 -->
<g id="node7" class="node">
<title>ma2450</title>
<ellipse fill="none" stroke="black" cx="183.52" cy="-234" rx="166.27" ry="18"/>
<text text-anchor="middle" x="183.52" y="-230.3" font-family="Times,serif" font-size="14.00">ma2450 Mathematical Reasoning</text>
</g>
<!-- ma2450&#45;&gt;cs3221 -->
<g id="edge8" class="edge">
<title>ma2450&#45;&gt;cs3221</title>
<path fill="none" stroke="black" d="M246.13,-217.29C289.45,-206.42 347.15,-191.95 392.07,-180.68"/>
<polygon fill="black" stroke="black" points="393.18,-184 402.03,-178.18 391.48,-177.21 393.18,-184"/>
</g>
<!-- ma2450&#45;&gt;cs3600 -->
<g id="edge11" class="edge">
<title>ma2450&#45;&gt;cs3600</title>
<path fill="none" stroke="black" d="M175.36,-215.7C171.61,-207.73 167.07,-198.1 162.9,-189.26"/>
<polygon fill="black" stroke="black" points="166.01,-187.66 158.58,-180.1 159.68,-190.64 166.01,-187.66"/>
</g>
<!-- cs3780 -->
<g id="node9" class="node">
<title>cs3780</title>
<ellipse fill="none" stroke="black" cx="467.52" cy="-90" rx="150.27" ry="18"/>
<text text-anchor="middle" x="467.52" y="-86.3" font-family="Times,serif" font-size="14.00">cs3780 Computational Theory</text>
</g>
<!-- cs3221&#45;&gt;cs3780 -->
<g id="edge9" class="edge">
<title>cs3221&#45;&gt;cs3780</title>
<path fill="none" stroke="black" d="M463.76,-143.7C464.31,-135.98 464.97,-126.71 465.58,-118.11"/>
<polygon fill="black" stroke="black" points="469.08,-118.33 466.3,-108.1 462.09,-117.83 469.08,-118.33"/>
</g>
<!-- cs3780&#45;&gt;cs4760 -->
<g id="edge14" class="edge">
<title>cs3780&#45;&gt;cs4760</title>
<path fill="none" stroke="black" d="M533.48,-73.81C582.68,-62.48 649.8,-47.03 700.23,-35.41"/>
<polygon fill="black" stroke="black" points="701.13,-38.8 710.09,-33.15 699.55,-31.98 701.13,-38.8"/>
</g>
<!-- cs4140 -->
<g id="node11" class="node">
<title>cs4140</title>
<ellipse fill="none" stroke="black" cx="150.52" cy="-90" rx="148.67" ry="18"/>
<text text-anchor="middle" x="150.52" y="-86.3" font-family="Times,serif" font-size="14.00">cs4140 Software Engineering</text>
</g>
<!-- cs3600&#45;&gt;cs4140 -->
<g id="edge12" class="edge">
<title>cs3600&#45;&gt;cs4140</title>
<path fill="none" stroke="black" d="M150.52,-143.7C150.52,-135.98 150.52,-126.71 150.52,-118.11"/>
<polygon fill="black" stroke="black" points="154.02,-118.1 150.52,-108.1 147.02,-118.1 154.02,-118.1"/>
</g>
<!-- cs4140&#45;&gt;cs4760 -->
<g id="edge16" class="edge">
<title>cs4140&#45;&gt;cs4760</title>
<path fill="none" stroke="black" d="M255.51,-77.17C371.84,-64.05 558.02,-43.07 672.07,-30.21"/>
<polygon fill="black" stroke="black" points="672.65,-33.67 682.19,-29.07 671.86,-26.71 672.65,-33.67"/>
</g>
<!-- cs4520 -->
<g id="node12" class="node">
<title>cs4520</title>
<ellipse fill="none" stroke="black" cx="1028.52" cy="-90" rx="102.88" ry="18"/>
<text text-anchor="middle" x="1028.52" y="-86.3" font-family="Times,serif" font-size="14.00">cs4520 Cyberethics</text>
</g>
<!-- cs4520&#45;&gt;cs4760 -->
<g id="edge17" class="edge">
<title>cs4520&#45;&gt;cs4760</title>
<path fill="none" stroke="black" d="M975.27,-74.5C934.76,-63.46 878.84,-48.23 835.83,-36.52"/>
<polygon fill="black" stroke="black" points="836.6,-33.1 826.03,-33.85 834.76,-39.85 836.6,-33.1"/>
</g>
<!-- ma2550 -->
<g id="node13" class="node">
<title>ma2550</title>
<ellipse fill="none" stroke="black" cx="1258.52" cy="-162" rx="77.19" ry="18"/>
<text text-anchor="middle" x="1258.52" y="-158.3" font-family="Times,serif" font-size="14.00">ma2550 Calc I</text>
</g>
<!-- ma3500 -->
<g id="node14" class="node">
<title>ma3500</title>
<ellipse fill="none" stroke="black" cx="1258.52" cy="-90" rx="109.38" ry="18"/>
<text text-anchor="middle" x="1258.52" y="-86.3" font-family="Times,serif" font-size="14.00">ma3500 Stats w/Calc</text>
</g>
<!-- ma2550&#45;&gt;ma3500 -->
<g id="edge13" class="edge">
<title>ma2550&#45;&gt;ma3500</title>
<path fill="none" stroke="black" d="M1258.52,-143.7C1258.52,-135.98 1258.52,-126.71 1258.52,-118.11"/>
<polygon fill="black" stroke="black" points="1262.02,-118.1 1258.52,-108.1 1255.02,-118.1 1262.02,-118.1"/>
</g>
<!-- ma3500&#45;&gt;cs4760 -->
<g id="edge18" class="edge">
<title>ma3500&#45;&gt;cs4760</title>
<path fill="none" stroke="black" d="M1179.18,-77.56C1166.26,-75.7 1153.02,-73.8 1140.52,-72 1045.84,-58.38 937.49,-42.82 862.81,-32.1"/>
<polygon fill="black" stroke="black" points="862.9,-28.58 852.5,-30.62 861.91,-35.51 862.9,-28.58"/>
</g>
</g>
</svg>
