<?xml version="1.0" encoding="UTF-8" standalone="no"?>
<!DOCTYPE svg PUBLIC "-//W3C//DTD SVG 1.1//EN"
 "http://www.w3.org/Graphics/SVG/1.1/DTD/svg11.dtd">
<!-- Generated by graphviz version 2.43.0 (0)
 -->
<!-- Title: %3 Pages: 1 -->
<svg width="2005pt" height="404pt"
 viewBox="0.00 0.00 2005.43 404.00" xmlns="http://www.w3.org/2000/svg" xmlns:xlink="http://www.w3.org/1999/xlink">
<g id="graph0" class="graph" transform="scale(1 1) rotate(0) translate(4 400)">
<title>%3</title>
<polygon fill="white" stroke="transparent" points="-4,4 -4,-400 2001.43,-400 2001.43,4 -4,4"/>
<!-- cs2010 -->
<g id="node1" class="node">
<title>cs2010</title>
<ellipse fill="none" stroke="black" cx="734.18" cy="-378" rx="180.07" ry="18"/>
<text text-anchor="middle" x="734.18" y="-374.3" font-family="Times,serif" font-size="14.00">cs2010 Programming Fundamentals</text>
</g>
<!-- cs2370 -->
<g id="node2" class="node">
<title>cs2370</title>
<ellipse fill="none" stroke="black" cx="864.18" cy="-306" rx="174.37" ry="18"/>
<text text-anchor="middle" x="864.18" y="-302.3" font-family="Times,serif" font-size="14.00">cs2370 Intermediate Programming</text>
</g>
<!-- cs2010&#45;&gt;cs2370 -->
<g id="edge1" class="edge">
<title>cs2010&#45;&gt;cs2370</title>
<path fill="none" stroke="black" d="M765.32,-360.23C782.88,-350.78 805.01,-338.86 823.88,-328.7"/>
<polygon fill="black" stroke="black" points="825.7,-331.7 832.85,-323.87 822.38,-325.53 825.7,-331.7"/>
</g>
<!-- cs2220 -->
<g id="node4" class="node">
<title>cs2220</title>
<ellipse fill="none" stroke="black" cx="575.18" cy="-234" rx="142.17" ry="18"/>
<text text-anchor="middle" x="575.18" y="-230.3" font-family="Times,serif" font-size="14.00">cs2220 Computer Hardware</text>
</g>
<!-- cs2010&#45;&gt;cs2220 -->
<g id="edge3" class="edge">
<title>cs2010&#45;&gt;cs2220</title>
<path fill="none" stroke="black" d="M715,-359.87C686.83,-334.71 634.14,-287.65 602.1,-259.04"/>
<polygon fill="black" stroke="black" points="604.22,-256.24 594.43,-252.19 599.56,-261.46 604.22,-256.24"/>
</g>
<!-- cs2381 -->
<g id="node3" class="node">
<title>cs2381</title>
<ellipse fill="none" stroke="black" cx="895.18" cy="-234" rx="121.58" ry="18"/>
<text text-anchor="middle" x="895.18" y="-230.3" font-family="Times,serif" font-size="14.00">cs2381 Data Structures</text>
</g>
<!-- cs2370&#45;&gt;cs2381 -->
<g id="edge2" class="edge">
<title>cs2370&#45;&gt;cs2381</title>
<path fill="none" stroke="black" d="M871.85,-287.7C875.37,-279.73 879.64,-270.1 883.55,-261.26"/>
<polygon fill="black" stroke="black" points="886.76,-262.67 887.61,-252.1 880.36,-259.83 886.76,-262.67"/>
</g>
<!-- cs2470 -->
<g id="node5" class="node">
<title>cs2470</title>
<ellipse fill="none" stroke="black" cx="200.18" cy="-162" rx="200.36" ry="18"/>
<text text-anchor="middle" x="200.18" y="-158.3" font-family="Times,serif" font-size="14.00">cs2470 Systems Programming in C/C++</text>
</g>
<!-- cs2370&#45;&gt;cs2470 -->
<g id="edge4" class="edge">
<title>cs2370&#45;&gt;cs2470</title>
<path fill="none" stroke="black" d="M827.15,-288.36C807.66,-278.88 783.81,-266.1 764.18,-252 745.29,-238.43 747.33,-225.69 726.18,-216 709.15,-208.2 499.94,-188.8 350.58,-175.76"/>
<polygon fill="black" stroke="black" points="350.65,-172.25 340.39,-174.87 350.04,-179.23 350.65,-172.25"/>
</g>
<!-- cs3600 -->
<g id="node11" class="node">
<title>cs3600</title>
<ellipse fill="none" stroke="black" cx="1129.18" cy="-234" rx="94.78" ry="18"/>
<text text-anchor="middle" x="1129.18" y="-230.3" font-family="Times,serif" font-size="14.00">cs3600 Databases</text>
</g>
<!-- cs2370&#45;&gt;cs3600 -->
<g id="edge12" class="edge">
<title>cs2370&#45;&gt;cs3600</title>
<path fill="none" stroke="black" d="M924.65,-289.03C967.02,-277.84 1023.52,-262.91 1066.39,-251.59"/>
<polygon fill="black" stroke="black" points="1067.38,-254.95 1076.15,-249.01 1065.59,-248.18 1067.38,-254.95"/>
</g>
<!-- cs4250 -->
<g id="node6" class="node">
<title>cs4250</title>
<ellipse fill="none" stroke="black" cx="575.18" cy="-162" rx="156.77" ry="18"/>
<text text-anchor="middle" x="575.18" y="-158.3" font-family="Times,serif" font-size="14.00">cs4250 Computer Archetecture</text>
</g>
<!-- cs2381&#45;&gt;cs4250 -->
<g id="edge6" class="edge">
<title>cs2381&#45;&gt;cs4250</title>
<path fill="none" stroke="black" d="M830.04,-218.75C779.29,-207.65 708.61,-192.19 654.56,-180.36"/>
<polygon fill="black" stroke="black" points="655.18,-176.92 644.67,-178.2 653.69,-183.76 655.18,-176.92"/>
</g>
<!-- cs3221 -->
<g id="node9" class="node">
<title>cs3221</title>
<ellipse fill="none" stroke="black" cx="1267.18" cy="-162" rx="134.58" ry="18"/>
<text text-anchor="middle" x="1267.18" y="-158.3" font-family="Times,serif" font-size="14.00">cs3221 Algorithm Analysis</text>
</g>
<!-- cs2381&#45;&gt;cs3221 -->
<g id="edge9" class="edge">
<title>cs2381&#45;&gt;cs3221</title>
<path fill="none" stroke="black" d="M967.35,-219.42C1028.92,-207.83 1117.53,-191.16 1182.46,-178.94"/>
<polygon fill="black" stroke="black" points="1183.49,-182.31 1192.67,-177.02 1182.19,-175.43 1183.49,-182.31"/>
</g>
<!-- cs3720 -->
<g id="node12" class="node">
<title>cs3720</title>
<ellipse fill="none" stroke="black" cx="932.18" cy="-162" rx="182.77" ry="18"/>
<text text-anchor="middle" x="932.18" y="-158.3" font-family="Times,serif" font-size="14.00">cs3720 Systems Analysis and Design</text>
</g>
<!-- cs2381&#45;&gt;cs3720 -->
<g id="edge14" class="edge">
<title>cs2381&#45;&gt;cs3720</title>
<path fill="none" stroke="black" d="M904.33,-215.7C908.58,-207.64 913.74,-197.89 918.45,-188.98"/>
<polygon fill="black" stroke="black" points="921.56,-190.58 923.14,-180.1 915.37,-187.31 921.56,-190.58"/>
</g>
<!-- cs2220&#45;&gt;cs4250 -->
<g id="edge5" class="edge">
<title>cs2220&#45;&gt;cs4250</title>
<path fill="none" stroke="black" d="M575.18,-215.7C575.18,-207.98 575.18,-198.71 575.18,-190.11"/>
<polygon fill="black" stroke="black" points="578.68,-190.1 575.18,-180.1 571.68,-190.1 578.68,-190.1"/>
</g>
<!-- cs4310 -->
<g id="node7" class="node">
<title>cs4310</title>
<ellipse fill="none" stroke="black" cx="575.18" cy="-90" rx="135.68" ry="18"/>
<text text-anchor="middle" x="575.18" y="-86.3" font-family="Times,serif" font-size="14.00">cs4310 Operating Systems</text>
</g>
<!-- cs2470&#45;&gt;cs4310 -->
<g id="edge7" class="edge">
<title>cs2470&#45;&gt;cs4310</title>
<path fill="none" stroke="black" d="M282.94,-145.55C344.34,-134.09 427.8,-118.51 489.81,-106.94"/>
<polygon fill="black" stroke="black" points="490.77,-110.32 499.96,-105.04 489.49,-103.44 490.77,-110.32"/>
</g>
<!-- cs4760 -->
<g id="node18" class="node">
<title>cs4760</title>
<ellipse fill="none" stroke="black" cx="1222.18" cy="-18" rx="113.18" ry="18"/>
<text text-anchor="middle" x="1222.18" y="-14.3" font-family="Times,serif" font-size="14.00">cs4760 Senior Project</text>
</g>
<!-- cs2470&#45;&gt;cs4760 -->
<g id="edge18" class="edge">
<title>cs2470&#45;&gt;cs4760</title>
<path fill="none" stroke="black" d="M233.85,-144.23C277.79,-123.24 357.66,-88.07 430.18,-72 554.62,-44.43 912.71,-29.03 1101.85,-22.61"/>
<polygon fill="black" stroke="black" points="1102.23,-26.1 1112.11,-22.26 1102,-19.1 1102.23,-26.1"/>
</g>
<!-- cs4250&#45;&gt;cs4310 -->
<g id="edge8" class="edge">
<title>cs4250&#45;&gt;cs4310</title>
<path fill="none" stroke="black" d="M575.18,-143.7C575.18,-135.98 575.18,-126.71 575.18,-118.11"/>
<polygon fill="black" stroke="black" points="578.68,-118.1 575.18,-108.1 571.68,-118.1 578.68,-118.1"/>
</g>
<!-- cs4310&#45;&gt;cs4760 -->
<g id="edge20" class="edge">
<title>cs4310&#45;&gt;cs4760</title>
<path fill="none" stroke="black" d="M676.63,-78.02C798.13,-64.88 1000.4,-43 1121.54,-29.89"/>
<polygon fill="black" stroke="black" points="1121.99,-33.36 1131.56,-28.8 1121.24,-26.4 1121.99,-33.36"/>
</g>
<!-- ma2450 -->
<g id="node8" class="node">
<title>ma2450</title>
<ellipse fill="none" stroke="black" cx="1237.18" cy="-306" rx="166.27" ry="18"/>
<text text-anchor="middle" x="1237.18" y="-302.3" font-family="Times,serif" font-size="14.00">ma2450 Mathematical Reasoning</text>
</g>
<!-- ma2450&#45;&gt;cs3221 -->
<g id="edge10" class="edge">
<title>ma2450&#45;&gt;cs3221</title>
<path fill="none" stroke="black" d="M1240.8,-287.87C1245.94,-263.56 1255.39,-218.82 1261.48,-190.01"/>
<polygon fill="black" stroke="black" points="1264.91,-190.7 1263.55,-180.19 1258.06,-189.25 1264.91,-190.7"/>
</g>
<!-- ma2450&#45;&gt;cs3600 -->
<g id="edge13" class="edge">
<title>ma2450&#45;&gt;cs3600</title>
<path fill="none" stroke="black" d="M1211.04,-288.05C1196.74,-278.79 1178.85,-267.19 1163.45,-257.21"/>
<polygon fill="black" stroke="black" points="1165.01,-254.05 1154.71,-251.55 1161.2,-259.92 1165.01,-254.05"/>
</g>
<!-- cs3780 -->
<g id="node10" class="node">
<title>cs3780</title>
<ellipse fill="none" stroke="black" cx="1222.18" cy="-90" rx="150.27" ry="18"/>
<text text-anchor="middle" x="1222.18" y="-86.3" font-family="Times,serif" font-size="14.00">cs3780 Computational Theory</text>
</g>
<!-- cs3221&#45;&gt;cs3780 -->
<g id="edge11" class="edge">
<title>cs3221&#45;&gt;cs3780</title>
<path fill="none" stroke="black" d="M1256.29,-144.05C1251.06,-135.92 1244.68,-126 1238.86,-116.94"/>
<polygon fill="black" stroke="black" points="1241.64,-114.79 1233.29,-108.28 1235.75,-118.58 1241.64,-114.79"/>
</g>
<!-- cs3780&#45;&gt;cs4760 -->
<g id="edge19" class="edge">
<title>cs3780&#45;&gt;cs4760</title>
<path fill="none" stroke="black" d="M1222.18,-71.7C1222.18,-63.98 1222.18,-54.71 1222.18,-46.11"/>
<polygon fill="black" stroke="black" points="1225.68,-46.1 1222.18,-36.1 1218.68,-46.1 1225.68,-46.1"/>
</g>
<!-- cs3600&#45;&gt;cs3720 -->
<g id="edge15" class="edge">
<title>cs3600&#45;&gt;cs3720</title>
<path fill="none" stroke="black" d="M1086.44,-217.81C1057.62,-207.57 1019.31,-193.96 988.08,-182.86"/>
<polygon fill="black" stroke="black" points="989.22,-179.55 978.63,-179.5 986.88,-186.15 989.22,-179.55"/>
</g>
<!-- cs4140 -->
<g id="node13" class="node">
<title>cs4140</title>
<ellipse fill="none" stroke="black" cx="905.18" cy="-90" rx="148.67" ry="18"/>
<text text-anchor="middle" x="905.18" y="-86.3" font-family="Times,serif" font-size="14.00">cs4140 Software Engineering</text>
</g>
<!-- cs3720&#45;&gt;cs4140 -->
<g id="edge16" class="edge">
<title>cs3720&#45;&gt;cs4140</title>
<path fill="none" stroke="black" d="M925.51,-143.7C922.47,-135.81 918.8,-126.3 915.42,-117.55"/>
<polygon fill="black" stroke="black" points="918.64,-116.17 911.78,-108.1 912.11,-118.69 918.64,-116.17"/>
</g>
<!-- cs4140&#45;&gt;cs4760 -->
<g id="edge21" class="edge">
<title>cs4140&#45;&gt;cs4760</title>
<path fill="none" stroke="black" d="M973.19,-73.98C1024.89,-62.57 1095.9,-46.88 1148.87,-35.19"/>
<polygon fill="black" stroke="black" points="1149.86,-38.55 1158.87,-32.98 1148.35,-31.72 1149.86,-38.55"/>
</g>
<!-- cs4520 -->
<g id="node14" class="node">
<title>cs4520</title>
<ellipse fill="none" stroke="black" cx="1493.18" cy="-90" rx="102.88" ry="18"/>
<text text-anchor="middle" x="1493.18" y="-86.3" font-family="Times,serif" font-size="14.00">cs4520 Cyberethics</text>
</g>
<!-- cs4520&#45;&gt;cs4760 -->
<g id="edge22" class="edge">
<title>cs4520&#45;&gt;cs4760</title>
<path fill="none" stroke="black" d="M1438.01,-74.75C1394.91,-63.61 1334.82,-48.09 1288.99,-36.26"/>
<polygon fill="black" stroke="black" points="1289.7,-32.82 1279.14,-33.71 1287.95,-39.6 1289.7,-32.82"/>
</g>
<!-- ma2300 -->
<g id="node15" class="node">
<title>ma2300</title>
<ellipse fill="none" stroke="black" cx="1715.18" cy="-90" rx="101.28" ry="18"/>
<text text-anchor="middle" x="1715.18" y="-86.3" font-family="Times,serif" font-size="14.00">ma2300 Statistics I</text>
</g>
<!-- ma2300&#45;&gt;cs4760 -->
<g id="edge23" class="edge">
<title>ma2300&#45;&gt;cs4760</title>
<path fill="none" stroke="black" d="M1641.84,-77.5C1629.6,-75.63 1617.04,-73.74 1605.18,-72 1506.66,-57.57 1393.72,-42.07 1316.15,-31.58"/>
<polygon fill="black" stroke="black" points="1316.29,-28.07 1305.92,-30.2 1315.36,-35.01 1316.29,-28.07"/>
</g>
<!-- ma2550 -->
<g id="node16" class="node">
<title>ma2550</title>
<ellipse fill="none" stroke="black" cx="1916.18" cy="-162" rx="77.19" ry="18"/>
<text text-anchor="middle" x="1916.18" y="-158.3" font-family="Times,serif" font-size="14.00">ma2550 Calc I</text>
</g>
<!-- ma2560 -->
<g id="node17" class="node">
<title>ma2560</title>
<ellipse fill="none" stroke="black" cx="1916.18" cy="-90" rx="81.49" ry="18"/>
<text text-anchor="middle" x="1916.18" y="-86.3" font-family="Times,serif" font-size="14.00">ma2560 Calc II</text>
</g>
<!-- ma2550&#45;&gt;ma2560 -->
<g id="edge17" class="edge">
<title>ma2550&#45;&gt;ma2560</title>
<path fill="none" stroke="black" d="M1916.18,-143.7C1916.18,-135.98 1916.18,-126.71 1916.18,-118.11"/>
<polygon fill="black" stroke="black" points="1919.68,-118.1 1916.18,-108.1 1912.68,-118.1 1919.68,-118.1"/>
</g>
<!-- ma2560&#45;&gt;cs4760 -->
<g id="edge24" class="edge">
<title>ma2560&#45;&gt;cs4760</title>
<path fill="none" stroke="black" d="M1858.06,-77.27C1847.17,-75.32 1835.85,-73.46 1825.18,-72 1655.68,-48.77 1457.9,-33.65 1336.36,-25.72"/>
<polygon fill="black" stroke="black" points="1336.5,-22.23 1326.29,-25.07 1336.05,-29.21 1336.5,-22.23"/>
</g>
</g>
</svg>
