<?xml version="1.0" encoding="UTF-8" standalone="no"?>
<!DOCTYPE svg PUBLIC "-//W3C//DTD SVG 1.1//EN"
 "http://www.w3.org/Graphics/SVG/1.1/DTD/svg11.dtd">
<!-- Generated by graphviz version 2.43.0 (0)
 -->
<!-- Title: %3 Pages: 1 -->
<svg width="1951pt" height="332pt"
 viewBox="0.00 0.00 1951.43 332.00" xmlns="http://www.w3.org/2000/svg" xmlns:xlink="http://www.w3.org/1999/xlink">
<g id="graph0" class="graph" transform="scale(1 1) rotate(0) translate(4 328)">
<title>%3</title>
<polygon fill="white" stroke="transparent" points="-4,4 -4,-328 1947.43,-328 1947.43,4 -4,4"/>
<!-- cs2370 -->
<g id="node1" class="node">
<title>cs2370</title>
<ellipse fill="none" stroke="black" cx="714.18" cy="-306" rx="148.67" ry="18"/>
<text text-anchor="middle" x="714.18" y="-302.3" font-family="Times,serif" font-size="14.00">cs2370 Intro to Programming</text>
</g>
<!-- cs2381 -->
<g id="node2" class="node">
<title>cs2381</title>
<ellipse fill="none" stroke="black" cx="843.18" cy="-234" rx="121.58" ry="18"/>
<text text-anchor="middle" x="843.18" y="-230.3" font-family="Times,serif" font-size="14.00">cs2381 Data Structures</text>
</g>
<!-- cs2370&#45;&gt;cs2381 -->
<g id="edge1" class="edge">
<title>cs2370&#45;&gt;cs2381</title>
<path fill="none" stroke="black" d="M745.08,-288.23C762.63,-278.71 784.79,-266.69 803.6,-256.48"/>
<polygon fill="black" stroke="black" points="805.42,-259.48 812.54,-251.63 802.08,-253.32 805.42,-259.48"/>
</g>
<!-- cs2220 -->
<g id="node3" class="node">
<title>cs2220</title>
<ellipse fill="none" stroke="black" cx="561.18" cy="-234" rx="142.17" ry="18"/>
<text text-anchor="middle" x="561.18" y="-230.3" font-family="Times,serif" font-size="14.00">cs2220 Computer Hardware</text>
</g>
<!-- cs2370&#45;&gt;cs2220 -->
<g id="edge2" class="edge">
<title>cs2370&#45;&gt;cs2220</title>
<path fill="none" stroke="black" d="M677.92,-288.41C656.49,-278.6 629.16,-266.1 606.33,-255.66"/>
<polygon fill="black" stroke="black" points="607.73,-252.45 597.18,-251.47 604.82,-258.81 607.73,-252.45"/>
</g>
<!-- cs2470 -->
<g id="node4" class="node">
<title>cs2470</title>
<ellipse fill="none" stroke="black" cx="200.18" cy="-234" rx="200.36" ry="18"/>
<text text-anchor="middle" x="200.18" y="-230.3" font-family="Times,serif" font-size="14.00">cs2470 Systems Programming in C/C++</text>
</g>
<!-- cs2370&#45;&gt;cs2470 -->
<g id="edge3" class="edge">
<title>cs2370&#45;&gt;cs2470</title>
<path fill="none" stroke="black" d="M619.31,-292.08C533.61,-280.41 407.27,-263.2 315.72,-250.73"/>
<polygon fill="black" stroke="black" points="315.95,-247.23 305.57,-249.35 315.01,-254.17 315.95,-247.23"/>
</g>
<!-- cs3600 -->
<g id="node10" class="node">
<title>cs3600</title>
<ellipse fill="none" stroke="black" cx="1077.18" cy="-234" rx="94.78" ry="18"/>
<text text-anchor="middle" x="1077.18" y="-230.3" font-family="Times,serif" font-size="14.00">cs3600 Databases</text>
</g>
<!-- cs2370&#45;&gt;cs3600 -->
<g id="edge10" class="edge">
<title>cs2370&#45;&gt;cs3600</title>
<path fill="none" stroke="black" d="M789.84,-290.41C852.43,-278.34 940.83,-261.29 1003.01,-249.3"/>
<polygon fill="black" stroke="black" points="1003.99,-252.68 1013.14,-247.35 1002.66,-245.81 1003.99,-252.68"/>
</g>
<!-- cs4250 -->
<g id="node5" class="node">
<title>cs4250</title>
<ellipse fill="none" stroke="black" cx="508.18" cy="-162" rx="156.77" ry="18"/>
<text text-anchor="middle" x="508.18" y="-158.3" font-family="Times,serif" font-size="14.00">cs4250 Computer Archetecture</text>
</g>
<!-- cs2381&#45;&gt;cs4250 -->
<g id="edge5" class="edge">
<title>cs2381&#45;&gt;cs4250</title>
<path fill="none" stroke="black" d="M775.79,-218.92C722.26,-207.73 647.18,-192.04 590.16,-180.13"/>
<polygon fill="black" stroke="black" points="590.6,-176.65 580.1,-178.03 589.17,-183.5 590.6,-176.65"/>
</g>
<!-- cs3221 -->
<g id="node8" class="node">
<title>cs3221</title>
<ellipse fill="none" stroke="black" cx="1200.18" cy="-162" rx="134.58" ry="18"/>
<text text-anchor="middle" x="1200.18" y="-158.3" font-family="Times,serif" font-size="14.00">cs3221 Algorithm Analysis</text>
</g>
<!-- cs2381&#45;&gt;cs3221 -->
<g id="edge7" class="edge">
<title>cs2381&#45;&gt;cs3221</title>
<path fill="none" stroke="black" d="M913.29,-219.25C971.96,-207.75 1055.77,-191.32 1117.66,-179.18"/>
<polygon fill="black" stroke="black" points="1118.65,-182.55 1127.79,-177.2 1117.3,-175.68 1118.65,-182.55"/>
</g>
<!-- cs3720 -->
<g id="node11" class="node">
<title>cs3720</title>
<ellipse fill="none" stroke="black" cx="865.18" cy="-162" rx="182.77" ry="18"/>
<text text-anchor="middle" x="865.18" y="-158.3" font-family="Times,serif" font-size="14.00">cs3720 Systems Analysis and Design</text>
</g>
<!-- cs2381&#45;&gt;cs3720 -->
<g id="edge12" class="edge">
<title>cs2381&#45;&gt;cs3720</title>
<path fill="none" stroke="black" d="M848.62,-215.7C851.07,-207.9 854.02,-198.51 856.75,-189.83"/>
<polygon fill="black" stroke="black" points="860.15,-190.69 859.81,-180.1 853.47,-188.59 860.15,-190.69"/>
</g>
<!-- cs2220&#45;&gt;cs4250 -->
<g id="edge4" class="edge">
<title>cs2220&#45;&gt;cs4250</title>
<path fill="none" stroke="black" d="M548.35,-216.05C542.07,-207.75 534.37,-197.58 527.4,-188.38"/>
<polygon fill="black" stroke="black" points="530.09,-186.14 521.26,-180.28 524.51,-190.36 530.09,-186.14"/>
</g>
<!-- cs4760 -->
<g id="node18" class="node">
<title>cs4760</title>
<ellipse fill="none" stroke="black" cx="1168.18" cy="-18" rx="113.18" ry="18"/>
<text text-anchor="middle" x="1168.18" y="-14.3" font-family="Times,serif" font-size="14.00">cs4760 Senior Project</text>
</g>
<!-- cs2470&#45;&gt;cs4760 -->
<g id="edge16" class="edge">
<title>cs2470&#45;&gt;cs4760</title>
<path fill="none" stroke="black" d="M212.35,-215.87C238.03,-181.33 301.55,-103.9 376.18,-72 436.23,-46.34 841.56,-29.62 1047.94,-22.67"/>
<polygon fill="black" stroke="black" points="1048.34,-26.16 1058.21,-22.33 1048.1,-19.16 1048.34,-26.16"/>
</g>
<!-- cs4310 -->
<g id="node6" class="node">
<title>cs4310</title>
<ellipse fill="none" stroke="black" cx="521.18" cy="-90" rx="135.68" ry="18"/>
<text text-anchor="middle" x="521.18" y="-86.3" font-family="Times,serif" font-size="14.00">cs4310 Operating Systems</text>
</g>
<!-- cs4250&#45;&gt;cs4310 -->
<g id="edge6" class="edge">
<title>cs4250&#45;&gt;cs4310</title>
<path fill="none" stroke="black" d="M511.4,-143.7C512.83,-135.98 514.55,-126.71 516.15,-118.11"/>
<polygon fill="black" stroke="black" points="519.62,-118.58 518.01,-108.1 512.74,-117.3 519.62,-118.58"/>
</g>
<!-- cs4310&#45;&gt;cs4760 -->
<g id="edge18" class="edge">
<title>cs4310&#45;&gt;cs4760</title>
<path fill="none" stroke="black" d="M622.63,-78.02C744.13,-64.88 946.4,-43 1067.54,-29.89"/>
<polygon fill="black" stroke="black" points="1067.99,-33.36 1077.56,-28.8 1067.24,-26.4 1067.99,-33.36"/>
</g>
<!-- ma2450 -->
<g id="node7" class="node">
<title>ma2450</title>
<ellipse fill="none" stroke="black" cx="1138.18" cy="-306" rx="166.27" ry="18"/>
<text text-anchor="middle" x="1138.18" y="-302.3" font-family="Times,serif" font-size="14.00">ma2450 Mathematical Reasoning</text>
</g>
<!-- ma2450&#45;&gt;cs3221 -->
<g id="edge8" class="edge">
<title>ma2450&#45;&gt;cs3221</title>
<path fill="none" stroke="black" d="M1155.64,-287.83C1164.56,-278.1 1174.84,-265.26 1181.18,-252 1190.52,-232.46 1195.31,-208.32 1197.74,-190.12"/>
<polygon fill="black" stroke="black" points="1201.22,-190.51 1198.91,-180.16 1194.27,-189.68 1201.22,-190.51"/>
</g>
<!-- ma2450&#45;&gt;cs3600 -->
<g id="edge11" class="edge">
<title>ma2450&#45;&gt;cs3600</title>
<path fill="none" stroke="black" d="M1123.42,-288.05C1115.92,-279.46 1106.69,-268.86 1098.44,-259.4"/>
<polygon fill="black" stroke="black" points="1101.02,-257.03 1091.81,-251.79 1095.74,-261.63 1101.02,-257.03"/>
</g>
<!-- cs3780 -->
<g id="node9" class="node">
<title>cs3780</title>
<ellipse fill="none" stroke="black" cx="1168.18" cy="-90" rx="150.27" ry="18"/>
<text text-anchor="middle" x="1168.18" y="-86.3" font-family="Times,serif" font-size="14.00">cs3780 Computational Theory</text>
</g>
<!-- cs3221&#45;&gt;cs3780 -->
<g id="edge9" class="edge">
<title>cs3221&#45;&gt;cs3780</title>
<path fill="none" stroke="black" d="M1192.27,-143.7C1188.63,-135.73 1184.23,-126.1 1180.19,-117.26"/>
<polygon fill="black" stroke="black" points="1183.34,-115.74 1176,-108.1 1176.98,-118.65 1183.34,-115.74"/>
</g>
<!-- cs3780&#45;&gt;cs4760 -->
<g id="edge17" class="edge">
<title>cs3780&#45;&gt;cs4760</title>
<path fill="none" stroke="black" d="M1168.18,-71.7C1168.18,-63.98 1168.18,-54.71 1168.18,-46.11"/>
<polygon fill="black" stroke="black" points="1171.68,-46.1 1168.18,-36.1 1164.68,-46.1 1171.68,-46.1"/>
</g>
<!-- cs3600&#45;&gt;cs3720 -->
<g id="edge13" class="edge">
<title>cs3600&#45;&gt;cs3720</title>
<path fill="none" stroke="black" d="M1031.96,-218.07C1000.64,-207.73 958.62,-193.85 924.6,-182.62"/>
<polygon fill="black" stroke="black" points="925.37,-179.19 914.78,-179.38 923.17,-185.83 925.37,-179.19"/>
</g>
<!-- cs4140 -->
<g id="node12" class="node">
<title>cs4140</title>
<ellipse fill="none" stroke="black" cx="851.18" cy="-90" rx="148.67" ry="18"/>
<text text-anchor="middle" x="851.18" y="-86.3" font-family="Times,serif" font-size="14.00">cs4140 Software Engineering</text>
</g>
<!-- cs3720&#45;&gt;cs4140 -->
<g id="edge14" class="edge">
<title>cs3720&#45;&gt;cs4140</title>
<path fill="none" stroke="black" d="M861.72,-143.7C860.18,-135.98 858.32,-126.71 856.6,-118.11"/>
<polygon fill="black" stroke="black" points="860,-117.22 854.6,-108.1 853.13,-118.6 860,-117.22"/>
</g>
<!-- cs4140&#45;&gt;cs4760 -->
<g id="edge19" class="edge">
<title>cs4140&#45;&gt;cs4760</title>
<path fill="none" stroke="black" d="M919.19,-73.98C970.89,-62.57 1041.9,-46.88 1094.87,-35.19"/>
<polygon fill="black" stroke="black" points="1095.86,-38.55 1104.87,-32.98 1094.35,-31.72 1095.86,-38.55"/>
</g>
<!-- cs2010 -->
<g id="node13" class="node">
<title>cs2010</title>
<ellipse fill="none" stroke="black" cx="1435.18" cy="-306" rx="113.18" ry="18"/>
<text text-anchor="middle" x="1435.18" y="-302.3" font-family="Times,serif" font-size="14.00">cs2010 Fundamentals</text>
</g>
<!-- cs4520 -->
<g id="node14" class="node">
<title>cs4520</title>
<ellipse fill="none" stroke="black" cx="1439.18" cy="-90" rx="102.88" ry="18"/>
<text text-anchor="middle" x="1439.18" y="-86.3" font-family="Times,serif" font-size="14.00">cs4520 Cyberethics</text>
</g>
<!-- cs4520&#45;&gt;cs4760 -->
<g id="edge20" class="edge">
<title>cs4520&#45;&gt;cs4760</title>
<path fill="none" stroke="black" d="M1384.01,-74.75C1340.91,-63.61 1280.82,-48.09 1234.99,-36.26"/>
<polygon fill="black" stroke="black" points="1235.7,-32.82 1225.14,-33.71 1233.95,-39.6 1235.7,-32.82"/>
</g>
<!-- ma2300 -->
<g id="node15" class="node">
<title>ma2300</title>
<ellipse fill="none" stroke="black" cx="1661.18" cy="-90" rx="101.28" ry="18"/>
<text text-anchor="middle" x="1661.18" y="-86.3" font-family="Times,serif" font-size="14.00">ma2300 Statistics I</text>
</g>
<!-- ma2300&#45;&gt;cs4760 -->
<g id="edge21" class="edge">
<title>ma2300&#45;&gt;cs4760</title>
<path fill="none" stroke="black" d="M1587.84,-77.5C1575.6,-75.63 1563.04,-73.74 1551.18,-72 1452.66,-57.57 1339.72,-42.07 1262.15,-31.58"/>
<polygon fill="black" stroke="black" points="1262.29,-28.07 1251.92,-30.2 1261.36,-35.01 1262.29,-28.07"/>
</g>
<!-- ma2550 -->
<g id="node16" class="node">
<title>ma2550</title>
<ellipse fill="none" stroke="black" cx="1862.18" cy="-162" rx="77.19" ry="18"/>
<text text-anchor="middle" x="1862.18" y="-158.3" font-family="Times,serif" font-size="14.00">ma2550 Calc I</text>
</g>
<!-- ma2560 -->
<g id="node17" class="node">
<title>ma2560</title>
<ellipse fill="none" stroke="black" cx="1862.18" cy="-90" rx="81.49" ry="18"/>
<text text-anchor="middle" x="1862.18" y="-86.3" font-family="Times,serif" font-size="14.00">ma2560 Calc II</text>
</g>
<!-- ma2550&#45;&gt;ma2560 -->
<g id="edge15" class="edge">
<title>ma2550&#45;&gt;ma2560</title>
<path fill="none" stroke="black" d="M1862.18,-143.7C1862.18,-135.98 1862.18,-126.71 1862.18,-118.11"/>
<polygon fill="black" stroke="black" points="1865.68,-118.1 1862.18,-108.1 1858.68,-118.1 1865.68,-118.1"/>
</g>
<!-- ma2560&#45;&gt;cs4760 -->
<g id="edge22" class="edge">
<title>ma2560&#45;&gt;cs4760</title>
<path fill="none" stroke="black" d="M1804.06,-77.27C1793.17,-75.32 1781.85,-73.46 1771.18,-72 1601.68,-48.77 1403.9,-33.65 1282.36,-25.72"/>
<polygon fill="black" stroke="black" points="1282.5,-22.23 1272.29,-25.07 1282.05,-29.21 1282.5,-22.23"/>
</g>
</g>
</svg>
