<?xml version="1.0" encoding="UTF-8" standalone="no"?>
<!DOCTYPE svg PUBLIC "-//W3C//DTD SVG 1.1//EN"
 "http://www.w3.org/Graphics/SVG/1.1/DTD/svg11.dtd">
<!-- Generated by graphviz version 2.43.0 (0)
 -->
<!-- Title: %3 Pages: 1 -->
<svg width="1527pt" height="332pt"
 viewBox="0.00 0.00 1526.92 332.00" xmlns="http://www.w3.org/2000/svg" xmlns:xlink="http://www.w3.org/1999/xlink">
<g id="graph0" class="graph" transform="scale(1 1) rotate(0) translate(4 328)">
<title>%3</title>
<polygon fill="white" stroke="transparent" points="-4,4 -4,-328 1522.92,-328 1522.92,4 -4,4"/>
<!-- cs2370 -->
<g id="node1" class="node">
<title>cs2370</title>
<ellipse fill="none" stroke="black" cx="380.48" cy="-306" rx="148.67" ry="18"/>
<text text-anchor="middle" x="380.48" y="-302.3" font-family="Times,serif" font-size="14.00">cs2370 Intro to Programming</text>
</g>
<!-- cs2381 -->
<g id="node2" class="node">
<title>cs2381</title>
<ellipse fill="none" stroke="black" cx="571.48" cy="-234" rx="121.58" ry="18"/>
<text text-anchor="middle" x="571.48" y="-230.3" font-family="Times,serif" font-size="14.00">cs2381 Data Structures</text>
</g>
<!-- cs2370&#45;&gt;cs2381 -->
<g id="edge1" class="edge">
<title>cs2370&#45;&gt;cs2381</title>
<path fill="none" stroke="black" d="M424.78,-288.76C452.7,-278.53 488.91,-265.26 518.37,-254.46"/>
<polygon fill="black" stroke="black" points="519.9,-257.63 528.08,-250.91 517.49,-251.06 519.9,-257.63"/>
</g>
<!-- cs2220 -->
<g id="node5" class="node">
<title>cs2220</title>
<ellipse fill="none" stroke="black" cx="239.48" cy="-234" rx="142.17" ry="18"/>
<text text-anchor="middle" x="239.48" y="-230.3" font-family="Times,serif" font-size="14.00">cs2220 Computer Hardware</text>
</g>
<!-- cs2370&#45;&gt;cs2220 -->
<g id="edge4" class="edge">
<title>cs2370&#45;&gt;cs2220</title>
<path fill="none" stroke="black" d="M347.07,-288.41C327.63,-278.76 302.93,-266.5 282.11,-256.16"/>
<polygon fill="black" stroke="black" points="283.66,-253.02 273.14,-251.71 280.55,-259.29 283.66,-253.02"/>
</g>
<!-- cs3xxx -->
<g id="node3" class="node">
<title>cs3xxx</title>
<ellipse fill="none" stroke="black" cx="598.48" cy="-162" rx="151.37" ry="18"/>
<text text-anchor="middle" x="598.48" y="-158.3" font-family="Times,serif" font-size="14.00">cs3xxx Software Development</text>
</g>
<!-- cs2381&#45;&gt;cs3xxx -->
<g id="edge2" class="edge">
<title>cs2381&#45;&gt;cs3xxx</title>
<path fill="none" stroke="black" d="M578.16,-215.7C581.2,-207.81 584.86,-198.3 588.24,-189.55"/>
<polygon fill="black" stroke="black" points="591.55,-190.69 591.88,-180.1 585.02,-188.17 591.55,-190.69"/>
</g>
<!-- cs2470 -->
<g id="node6" class="node">
<title>cs2470</title>
<ellipse fill="none" stroke="black" cx="214.48" cy="-162" rx="214.46" ry="18"/>
<text text-anchor="middle" x="214.48" y="-158.3" font-family="Times,serif" font-size="14.00">cs2470 Systems Programming (C and ASM)</text>
</g>
<!-- cs2381&#45;&gt;cs2470 -->
<g id="edge6" class="edge">
<title>cs2381&#45;&gt;cs2470</title>
<path fill="none" stroke="black" d="M501.38,-219.25C445.11,-208.22 365.72,-192.66 304.72,-180.69"/>
<polygon fill="black" stroke="black" points="305.19,-177.22 294.71,-178.73 303.85,-184.09 305.19,-177.22"/>
</g>
<!-- cs3221 -->
<g id="node9" class="node">
<title>cs3221</title>
<ellipse fill="none" stroke="black" cx="902.48" cy="-162" rx="134.58" ry="18"/>
<text text-anchor="middle" x="902.48" y="-158.3" font-family="Times,serif" font-size="14.00">cs3221 Algorithm Analysis</text>
</g>
<!-- cs2381&#45;&gt;cs3221 -->
<g id="edge8" class="edge">
<title>cs2381&#45;&gt;cs3221</title>
<path fill="none" stroke="black" d="M638.07,-218.92C691.67,-207.58 767.15,-191.62 823.74,-179.65"/>
<polygon fill="black" stroke="black" points="824.67,-183.03 833.73,-177.54 823.22,-176.19 824.67,-183.03"/>
</g>
<!-- cs4140 -->
<g id="node4" class="node">
<title>cs4140</title>
<ellipse fill="none" stroke="black" cx="585.48" cy="-90" rx="148.67" ry="18"/>
<text text-anchor="middle" x="585.48" y="-86.3" font-family="Times,serif" font-size="14.00">cs4140 Software Engineering</text>
</g>
<!-- cs3xxx&#45;&gt;cs4140 -->
<g id="edge3" class="edge">
<title>cs3xxx&#45;&gt;cs4140</title>
<path fill="none" stroke="black" d="M595.27,-143.7C593.83,-135.98 592.11,-126.71 590.52,-118.11"/>
<polygon fill="black" stroke="black" points="593.92,-117.3 588.66,-108.1 587.04,-118.58 593.92,-117.3"/>
</g>
<!-- cs4760 -->
<g id="node14" class="node">
<title>cs4760</title>
<ellipse fill="none" stroke="black" cx="902.48" cy="-18" rx="113.18" ry="18"/>
<text text-anchor="middle" x="902.48" y="-14.3" font-family="Times,serif" font-size="14.00">cs4760 Senior Project</text>
</g>
<!-- cs4140&#45;&gt;cs4760 -->
<g id="edge14" class="edge">
<title>cs4140&#45;&gt;cs4760</title>
<path fill="none" stroke="black" d="M653.49,-73.98C705.19,-62.57 776.2,-46.88 829.17,-35.19"/>
<polygon fill="black" stroke="black" points="830.16,-38.55 839.17,-32.98 828.65,-31.72 830.16,-38.55"/>
</g>
<!-- cs2220&#45;&gt;cs2470 -->
<g id="edge5" class="edge">
<title>cs2220&#45;&gt;cs2470</title>
<path fill="none" stroke="black" d="M233.3,-215.7C230.49,-207.81 227.09,-198.3 223.96,-189.55"/>
<polygon fill="black" stroke="black" points="227.25,-188.34 220.59,-180.1 220.66,-190.7 227.25,-188.34"/>
</g>
<!-- cs4310 -->
<g id="node7" class="node">
<title>cs4310</title>
<ellipse fill="none" stroke="black" cx="248.48" cy="-90" rx="135.68" ry="18"/>
<text text-anchor="middle" x="248.48" y="-86.3" font-family="Times,serif" font-size="14.00">cs4310 Operating Systems</text>
</g>
<!-- cs2470&#45;&gt;cs4310 -->
<g id="edge7" class="edge">
<title>cs2470&#45;&gt;cs4310</title>
<path fill="none" stroke="black" d="M222.89,-143.7C226.76,-135.73 231.43,-126.1 235.72,-117.26"/>
<polygon fill="black" stroke="black" points="238.95,-118.63 240.17,-108.1 232.66,-115.57 238.95,-118.63"/>
</g>
<!-- cs4310&#45;&gt;cs4760 -->
<g id="edge13" class="edge">
<title>cs4310&#45;&gt;cs4760</title>
<path fill="none" stroke="black" d="M350.67,-78.06C473.67,-64.9 678.92,-42.93 801.41,-29.82"/>
<polygon fill="black" stroke="black" points="801.97,-33.28 811.55,-28.73 801.23,-26.32 801.97,-33.28"/>
</g>
<!-- ma2450 -->
<g id="node8" class="node">
<title>ma2450</title>
<ellipse fill="none" stroke="black" cx="902.48" cy="-234" rx="166.27" ry="18"/>
<text text-anchor="middle" x="902.48" y="-230.3" font-family="Times,serif" font-size="14.00">ma2450 Mathematical Reasoning</text>
</g>
<!-- ma2450&#45;&gt;cs3221 -->
<g id="edge9" class="edge">
<title>ma2450&#45;&gt;cs3221</title>
<path fill="none" stroke="black" d="M902.48,-215.7C902.48,-207.98 902.48,-198.71 902.48,-190.11"/>
<polygon fill="black" stroke="black" points="905.98,-190.1 902.48,-180.1 898.98,-190.1 905.98,-190.1"/>
</g>
<!-- cs3780 -->
<g id="node10" class="node">
<title>cs3780</title>
<ellipse fill="none" stroke="black" cx="902.48" cy="-90" rx="150.27" ry="18"/>
<text text-anchor="middle" x="902.48" y="-86.3" font-family="Times,serif" font-size="14.00">cs3780 Computational Theory</text>
</g>
<!-- cs3221&#45;&gt;cs3780 -->
<g id="edge10" class="edge">
<title>cs3221&#45;&gt;cs3780</title>
<path fill="none" stroke="black" d="M902.48,-143.7C902.48,-135.98 902.48,-126.71 902.48,-118.11"/>
<polygon fill="black" stroke="black" points="905.98,-118.1 902.48,-108.1 898.98,-118.1 905.98,-118.1"/>
</g>
<!-- cs3780&#45;&gt;cs4760 -->
<g id="edge12" class="edge">
<title>cs3780&#45;&gt;cs4760</title>
<path fill="none" stroke="black" d="M902.48,-71.7C902.48,-63.98 902.48,-54.71 902.48,-46.11"/>
<polygon fill="black" stroke="black" points="905.98,-46.1 902.48,-36.1 898.98,-46.1 905.98,-46.1"/>
</g>
<!-- cs4520 -->
<g id="node11" class="node">
<title>cs4520</title>
<ellipse fill="none" stroke="black" cx="1173.48" cy="-90" rx="102.88" ry="18"/>
<text text-anchor="middle" x="1173.48" y="-86.3" font-family="Times,serif" font-size="14.00">cs4520 Cyberethics</text>
</g>
<!-- cs4520&#45;&gt;cs4760 -->
<g id="edge15" class="edge">
<title>cs4520&#45;&gt;cs4760</title>
<path fill="none" stroke="black" d="M1118.31,-74.75C1075.2,-63.61 1015.12,-48.09 969.28,-36.26"/>
<polygon fill="black" stroke="black" points="970,-32.82 959.44,-33.71 968.24,-39.6 970,-32.82"/>
</g>
<!-- ma2550 -->
<g id="node12" class="node">
<title>ma2550</title>
<ellipse fill="none" stroke="black" cx="1406.48" cy="-162" rx="77.19" ry="18"/>
<text text-anchor="middle" x="1406.48" y="-158.3" font-family="Times,serif" font-size="14.00">ma2550 Calc I</text>
</g>
<!-- ma3500 -->
<g id="node13" class="node">
<title>ma3500</title>
<ellipse fill="none" stroke="black" cx="1406.48" cy="-90" rx="112.38" ry="18"/>
<text text-anchor="middle" x="1406.48" y="-86.3" font-family="Times,serif" font-size="14.00">ma3500 Stats w/ Calc</text>
</g>
<!-- ma2550&#45;&gt;ma3500 -->
<g id="edge11" class="edge">
<title>ma2550&#45;&gt;ma3500</title>
<path fill="none" stroke="black" d="M1406.48,-143.7C1406.48,-135.98 1406.48,-126.71 1406.48,-118.11"/>
<polygon fill="black" stroke="black" points="1409.98,-118.1 1406.48,-108.1 1402.98,-118.1 1409.98,-118.1"/>
</g>
<!-- ma3500&#45;&gt;cs4760 -->
<g id="edge16" class="edge">
<title>ma3500&#45;&gt;cs4760</title>
<path fill="none" stroke="black" d="M1325.13,-77.55C1311.88,-75.69 1298.3,-73.79 1285.48,-72 1186.38,-58.18 1072.84,-42.49 995.27,-31.79"/>
<polygon fill="black" stroke="black" points="995.43,-28.27 985.04,-30.37 994.47,-35.21 995.43,-28.27"/>
</g>
</g>
</svg>
