<?xml version="1.0" encoding="UTF-8" standalone="no"?>
<!DOCTYPE svg PUBLIC "-//W3C//DTD SVG 1.1//EN"
 "http://www.w3.org/Graphics/SVG/1.1/DTD/svg11.dtd">
<!-- Generated by graphviz version 2.43.0 (0)
 -->
<!-- Title: %3 Pages: 1 -->
<svg width="1528pt" height="332pt"
 viewBox="0.00 0.00 1527.92 332.00" xmlns="http://www.w3.org/2000/svg" xmlns:xlink="http://www.w3.org/1999/xlink">
<g id="graph0" class="graph" transform="scale(1 1) rotate(0) translate(4 328)">
<title>%3</title>
<polygon fill="white" stroke="transparent" points="-4,4 -4,-328 1523.92,-328 1523.92,4 -4,4"/>
<!-- cs2370 -->
<g id="node1" class="node">
<title>cs2370</title>
<ellipse fill="none" stroke="black" cx="597.48" cy="-306" rx="148.67" ry="18"/>
<text text-anchor="middle" x="597.48" y="-302.3" font-family="Times,serif" font-size="14.00">cs2370 Intro to Programming</text>
</g>
<!-- cs2381 -->
<g id="node2" class="node">
<title>cs2381</title>
<ellipse fill="none" stroke="black" cx="597.48" cy="-234" rx="121.58" ry="18"/>
<text text-anchor="middle" x="597.48" y="-230.3" font-family="Times,serif" font-size="14.00">cs2381 Data Structures</text>
</g>
<!-- cs2370&#45;&gt;cs2381 -->
<g id="edge1" class="edge">
<title>cs2370&#45;&gt;cs2381</title>
<path fill="none" stroke="black" d="M597.48,-287.7C597.48,-279.98 597.48,-270.71 597.48,-262.11"/>
<polygon fill="black" stroke="black" points="600.98,-262.1 597.48,-252.1 593.98,-262.1 600.98,-262.1"/>
</g>
<!-- cs3xxx -->
<g id="node3" class="node">
<title>cs3xxx</title>
<ellipse fill="none" stroke="black" cx="598.48" cy="-162" rx="151.37" ry="18"/>
<text text-anchor="middle" x="598.48" y="-158.3" font-family="Times,serif" font-size="14.00">cs3xxx Software Development</text>
</g>
<!-- cs2381&#45;&gt;cs3xxx -->
<g id="edge2" class="edge">
<title>cs2381&#45;&gt;cs3xxx</title>
<path fill="none" stroke="black" d="M597.73,-215.7C597.84,-207.98 597.97,-198.71 598.09,-190.11"/>
<polygon fill="black" stroke="black" points="601.59,-190.15 598.24,-180.1 594.59,-190.05 601.59,-190.15"/>
</g>
<!-- cs2470 -->
<g id="node6" class="node">
<title>cs2470</title>
<ellipse fill="none" stroke="black" cx="214.48" cy="-162" rx="214.46" ry="18"/>
<text text-anchor="middle" x="214.48" y="-158.3" font-family="Times,serif" font-size="14.00">cs2470 Systems Programming (C and ASM)</text>
</g>
<!-- cs2381&#45;&gt;cs2470 -->
<g id="edge5" class="edge">
<title>cs2381&#45;&gt;cs2470</title>
<path fill="none" stroke="black" d="M524.09,-219.59C463.14,-208.45 376.01,-192.52 309.69,-180.4"/>
<polygon fill="black" stroke="black" points="310.12,-176.92 299.65,-178.57 308.86,-183.81 310.12,-176.92"/>
</g>
<!-- cs3221 -->
<g id="node9" class="node">
<title>cs3221</title>
<ellipse fill="none" stroke="black" cx="903.48" cy="-162" rx="134.58" ry="18"/>
<text text-anchor="middle" x="903.48" y="-158.3" font-family="Times,serif" font-size="14.00">cs3221 Algorithm Analysis</text>
</g>
<!-- cs2381&#45;&gt;cs3221 -->
<g id="edge7" class="edge">
<title>cs2381&#45;&gt;cs3221</title>
<path fill="none" stroke="black" d="M660.51,-218.58C709.41,-207.4 777.32,-191.86 828.92,-180.06"/>
<polygon fill="black" stroke="black" points="829.72,-183.46 838.69,-177.82 828.16,-176.64 829.72,-183.46"/>
</g>
<!-- cs4140 -->
<g id="node4" class="node">
<title>cs4140</title>
<ellipse fill="none" stroke="black" cx="586.48" cy="-90" rx="148.67" ry="18"/>
<text text-anchor="middle" x="586.48" y="-86.3" font-family="Times,serif" font-size="14.00">cs4140 Software Engineering</text>
</g>
<!-- cs3xxx&#45;&gt;cs4140 -->
<g id="edge3" class="edge">
<title>cs3xxx&#45;&gt;cs4140</title>
<path fill="none" stroke="black" d="M595.51,-143.7C594.19,-135.98 592.6,-126.71 591.13,-118.11"/>
<polygon fill="black" stroke="black" points="594.55,-117.37 589.41,-108.1 587.65,-118.55 594.55,-117.37"/>
</g>
<!-- cs4760 -->
<g id="node14" class="node">
<title>cs4760</title>
<ellipse fill="none" stroke="black" cx="903.48" cy="-18" rx="113.18" ry="18"/>
<text text-anchor="middle" x="903.48" y="-14.3" font-family="Times,serif" font-size="14.00">cs4760 Senior Project</text>
</g>
<!-- cs4140&#45;&gt;cs4760 -->
<g id="edge13" class="edge">
<title>cs4140&#45;&gt;cs4760</title>
<path fill="none" stroke="black" d="M654.49,-73.98C706.19,-62.57 777.2,-46.88 830.17,-35.19"/>
<polygon fill="black" stroke="black" points="831.16,-38.55 840.17,-32.98 829.65,-31.72 831.16,-38.55"/>
</g>
<!-- cs2220 -->
<g id="node5" class="node">
<title>cs2220</title>
<ellipse fill="none" stroke="black" cx="214.48" cy="-234" rx="142.17" ry="18"/>
<text text-anchor="middle" x="214.48" y="-230.3" font-family="Times,serif" font-size="14.00">cs2220 Computer Hardware</text>
</g>
<!-- cs2220&#45;&gt;cs2470 -->
<g id="edge4" class="edge">
<title>cs2220&#45;&gt;cs2470</title>
<path fill="none" stroke="black" d="M214.48,-215.7C214.48,-207.98 214.48,-198.71 214.48,-190.11"/>
<polygon fill="black" stroke="black" points="217.98,-190.1 214.48,-180.1 210.98,-190.1 217.98,-190.1"/>
</g>
<!-- cs4310 -->
<g id="node7" class="node">
<title>cs4310</title>
<ellipse fill="none" stroke="black" cx="249.48" cy="-90" rx="135.68" ry="18"/>
<text text-anchor="middle" x="249.48" y="-86.3" font-family="Times,serif" font-size="14.00">cs4310 Operating Systems</text>
</g>
<!-- cs2470&#45;&gt;cs4310 -->
<g id="edge6" class="edge">
<title>cs2470&#45;&gt;cs4310</title>
<path fill="none" stroke="black" d="M223.13,-143.7C227.12,-135.73 231.93,-126.1 236.35,-117.26"/>
<polygon fill="black" stroke="black" points="239.59,-118.61 240.93,-108.1 233.33,-115.48 239.59,-118.61"/>
</g>
<!-- cs4310&#45;&gt;cs4760 -->
<g id="edge12" class="edge">
<title>cs4310&#45;&gt;cs4760</title>
<path fill="none" stroke="black" d="M351.67,-78.06C474.67,-64.9 679.92,-42.93 802.41,-29.82"/>
<polygon fill="black" stroke="black" points="802.97,-33.28 812.55,-28.73 802.23,-26.32 802.97,-33.28"/>
</g>
<!-- ma2450 -->
<g id="node8" class="node">
<title>ma2450</title>
<ellipse fill="none" stroke="black" cx="903.48" cy="-234" rx="166.27" ry="18"/>
<text text-anchor="middle" x="903.48" y="-230.3" font-family="Times,serif" font-size="14.00">ma2450 Mathematical Reasoning</text>
</g>
<!-- ma2450&#45;&gt;cs3221 -->
<g id="edge8" class="edge">
<title>ma2450&#45;&gt;cs3221</title>
<path fill="none" stroke="black" d="M903.48,-215.7C903.48,-207.98 903.48,-198.71 903.48,-190.11"/>
<polygon fill="black" stroke="black" points="906.98,-190.1 903.48,-180.1 899.98,-190.1 906.98,-190.1"/>
</g>
<!-- cs3780 -->
<g id="node10" class="node">
<title>cs3780</title>
<ellipse fill="none" stroke="black" cx="903.48" cy="-90" rx="150.27" ry="18"/>
<text text-anchor="middle" x="903.48" y="-86.3" font-family="Times,serif" font-size="14.00">cs3780 Computational Theory</text>
</g>
<!-- cs3221&#45;&gt;cs3780 -->
<g id="edge9" class="edge">
<title>cs3221&#45;&gt;cs3780</title>
<path fill="none" stroke="black" d="M903.48,-143.7C903.48,-135.98 903.48,-126.71 903.48,-118.11"/>
<polygon fill="black" stroke="black" points="906.98,-118.1 903.48,-108.1 899.98,-118.1 906.98,-118.1"/>
</g>
<!-- cs3780&#45;&gt;cs4760 -->
<g id="edge11" class="edge">
<title>cs3780&#45;&gt;cs4760</title>
<path fill="none" stroke="black" d="M903.48,-71.7C903.48,-63.98 903.48,-54.71 903.48,-46.11"/>
<polygon fill="black" stroke="black" points="906.98,-46.1 903.48,-36.1 899.98,-46.1 906.98,-46.1"/>
</g>
<!-- cs4520 -->
<g id="node11" class="node">
<title>cs4520</title>
<ellipse fill="none" stroke="black" cx="1174.48" cy="-90" rx="102.88" ry="18"/>
<text text-anchor="middle" x="1174.48" y="-86.3" font-family="Times,serif" font-size="14.00">cs4520 Cyberethics</text>
</g>
<!-- cs4520&#45;&gt;cs4760 -->
<g id="edge14" class="edge">
<title>cs4520&#45;&gt;cs4760</title>
<path fill="none" stroke="black" d="M1119.31,-74.75C1076.2,-63.61 1016.12,-48.09 970.28,-36.26"/>
<polygon fill="black" stroke="black" points="971,-32.82 960.44,-33.71 969.24,-39.6 971,-32.82"/>
</g>
<!-- ma2550 -->
<g id="node12" class="node">
<title>ma2550</title>
<ellipse fill="none" stroke="black" cx="1407.48" cy="-162" rx="77.19" ry="18"/>
<text text-anchor="middle" x="1407.48" y="-158.3" font-family="Times,serif" font-size="14.00">ma2550 Calc I</text>
</g>
<!-- ma3500 -->
<g id="node13" class="node">
<title>ma3500</title>
<ellipse fill="none" stroke="black" cx="1407.48" cy="-90" rx="112.38" ry="18"/>
<text text-anchor="middle" x="1407.48" y="-86.3" font-family="Times,serif" font-size="14.00">ma3500 Stats w/ Calc</text>
</g>
<!-- ma2550&#45;&gt;ma3500 -->
<g id="edge10" class="edge">
<title>ma2550&#45;&gt;ma3500</title>
<path fill="none" stroke="black" d="M1407.48,-143.7C1407.48,-135.98 1407.48,-126.71 1407.48,-118.11"/>
<polygon fill="black" stroke="black" points="1410.98,-118.1 1407.48,-108.1 1403.98,-118.1 1410.98,-118.1"/>
</g>
<!-- ma3500&#45;&gt;cs4760 -->
<g id="edge15" class="edge">
<title>ma3500&#45;&gt;cs4760</title>
<path fill="none" stroke="black" d="M1326.13,-77.55C1312.88,-75.69 1299.3,-73.79 1286.48,-72 1187.38,-58.18 1073.84,-42.49 996.27,-31.79"/>
<polygon fill="black" stroke="black" points="996.43,-28.27 986.04,-30.37 995.47,-35.21 996.43,-28.27"/>
</g>
</g>
</svg>
