<?xml version="1.0" encoding="UTF-8" standalone="no"?>
<!DOCTYPE svg PUBLIC "-//W3C//DTD SVG 1.1//EN"
 "http://www.w3.org/Graphics/SVG/1.1/DTD/svg11.dtd">
<!-- Generated by graphviz version 2.43.0 (0)
 -->
<!-- Title: %3 Pages: 1 -->
<svg width="1678pt" height="404pt"
 viewBox="0.00 0.00 1677.99 404.00" xmlns="http://www.w3.org/2000/svg" xmlns:xlink="http://www.w3.org/1999/xlink">
<g id="graph0" class="graph" transform="scale(1 1) rotate(0) translate(4 400)">
<title>%3</title>
<polygon fill="white" stroke="transparent" points="-4,4 -4,-400 1673.99,-400 1673.99,4 -4,4"/>
<!-- cs2010 -->
<g id="node1" class="node">
<title>cs2010</title>
<ellipse fill="none" stroke="black" cx="949.74" cy="-378" rx="137.58" ry="18"/>
<text text-anchor="middle" x="949.74" y="-374.3" font-family="Times,serif" font-size="14.00">cs2010 Prog Fundamentals</text>
</g>
<!-- cs2370 -->
<g id="node2" class="node">
<title>cs2370</title>
<ellipse fill="none" stroke="black" cx="809.74" cy="-306" rx="119.68" ry="18"/>
<text text-anchor="middle" x="809.74" y="-302.3" font-family="Times,serif" font-size="14.00">cs2370 Programming 2</text>
</g>
<!-- cs2010&#45;&gt;cs2370 -->
<g id="edge1" class="edge">
<title>cs2010&#45;&gt;cs2370</title>
<path fill="none" stroke="black" d="M916.56,-360.41C897.21,-350.73 872.61,-338.43 851.89,-328.08"/>
<polygon fill="black" stroke="black" points="853.19,-324.81 842.68,-323.47 850.06,-331.07 853.19,-324.81"/>
</g>
<!-- cs2220 -->
<g id="node4" class="node">
<title>cs2220</title>
<ellipse fill="none" stroke="black" cx="1161.74" cy="-306" rx="142.17" ry="18"/>
<text text-anchor="middle" x="1161.74" y="-302.3" font-family="Times,serif" font-size="14.00">cs2220 Computer Hardware</text>
</g>
<!-- cs2010&#45;&gt;cs2220 -->
<g id="edge3" class="edge">
<title>cs2010&#45;&gt;cs2220</title>
<path fill="none" stroke="black" d="M997.85,-361.12C1029.32,-350.73 1070.6,-337.09 1103.86,-326.11"/>
<polygon fill="black" stroke="black" points="1105.06,-329.4 1113.46,-322.94 1102.87,-322.75 1105.06,-329.4"/>
</g>
<!-- cs2381 -->
<g id="node3" class="node">
<title>cs2381</title>
<ellipse fill="none" stroke="black" cx="665.74" cy="-234" rx="121.58" ry="18"/>
<text text-anchor="middle" x="665.74" y="-230.3" font-family="Times,serif" font-size="14.00">cs2381 Data Structures</text>
</g>
<!-- cs2370&#45;&gt;cs2381 -->
<g id="edge2" class="edge">
<title>cs2370&#45;&gt;cs2381</title>
<path fill="none" stroke="black" d="M775.98,-288.59C755.85,-278.8 730.1,-266.29 708.55,-255.81"/>
<polygon fill="black" stroke="black" points="709.82,-252.53 699.29,-251.31 706.76,-258.83 709.82,-252.53"/>
</g>
<!-- cs2470 -->
<g id="node5" class="node">
<title>cs2470</title>
<ellipse fill="none" stroke="black" cx="1005.74" cy="-234" rx="200.36" ry="18"/>
<text text-anchor="middle" x="1005.74" y="-230.3" font-family="Times,serif" font-size="14.00">cs2470 Systems Programming in C/C++</text>
</g>
<!-- cs2370&#45;&gt;cs2470 -->
<g id="edge4" class="edge">
<title>cs2370&#45;&gt;cs2470</title>
<path fill="none" stroke="black" d="M854.22,-289.12C882.55,-279 919.49,-265.8 949.81,-254.98"/>
<polygon fill="black" stroke="black" points="951.16,-258.21 959.4,-251.55 948.8,-251.62 951.16,-258.21"/>
</g>
<!-- cs3600 -->
<g id="node11" class="node">
<title>cs3600</title>
<ellipse fill="none" stroke="black" cx="87.74" cy="-234" rx="87.99" ry="18"/>
<text text-anchor="middle" x="87.74" y="-230.3" font-family="Times,serif" font-size="14.00">cs3600 Web Dev</text>
</g>
<!-- cs2370&#45;&gt;cs3600 -->
<g id="edge11" class="edge">
<title>cs2370&#45;&gt;cs3600</title>
<path fill="none" stroke="black" d="M700.19,-298.67C575.16,-290.76 364.68,-275.35 184.74,-252 176.73,-250.96 168.36,-249.72 160.05,-248.4"/>
<polygon fill="black" stroke="black" points="160.41,-244.91 149.97,-246.75 159.28,-251.82 160.41,-244.91"/>
</g>
<!-- cs3221 -->
<g id="node9" class="node">
<title>cs3221</title>
<ellipse fill="none" stroke="black" cx="604.74" cy="-162" rx="134.58" ry="18"/>
<text text-anchor="middle" x="604.74" y="-158.3" font-family="Times,serif" font-size="14.00">cs3221 Algorithm Analysis</text>
</g>
<!-- cs2381&#45;&gt;cs3221 -->
<g id="edge8" class="edge">
<title>cs2381&#45;&gt;cs3221</title>
<path fill="none" stroke="black" d="M650.98,-216.05C643.59,-207.58 634.52,-197.17 626.37,-187.82"/>
<polygon fill="black" stroke="black" points="629,-185.51 619.8,-180.28 623.73,-190.11 629,-185.51"/>
</g>
<!-- cs4250 -->
<g id="node6" class="node">
<title>cs4250</title>
<ellipse fill="none" stroke="black" cx="1005.74" cy="-162" rx="156.77" ry="18"/>
<text text-anchor="middle" x="1005.74" y="-158.3" font-family="Times,serif" font-size="14.00">cs4250 Computer Archetecture</text>
</g>
<!-- cs2220&#45;&gt;cs4250 -->
<g id="edge5" class="edge">
<title>cs2220&#45;&gt;cs4250</title>
<path fill="none" stroke="black" d="M1183.98,-288.14C1205.68,-269.62 1232.96,-239.42 1214.74,-216 1201.47,-198.94 1157.62,-186.48 1113.49,-177.95"/>
<polygon fill="black" stroke="black" points="1113.96,-174.48 1103.49,-176.08 1112.67,-181.36 1113.96,-174.48"/>
</g>
<!-- cs2470&#45;&gt;cs4250 -->
<g id="edge6" class="edge">
<title>cs2470&#45;&gt;cs4250</title>
<path fill="none" stroke="black" d="M1005.74,-215.7C1005.74,-207.98 1005.74,-198.71 1005.74,-190.11"/>
<polygon fill="black" stroke="black" points="1009.24,-190.1 1005.74,-180.1 1002.24,-190.1 1009.24,-190.1"/>
</g>
<!-- cs4310 -->
<g id="node7" class="node">
<title>cs4310</title>
<ellipse fill="none" stroke="black" cx="908.74" cy="-90" rx="135.68" ry="18"/>
<text text-anchor="middle" x="908.74" y="-86.3" font-family="Times,serif" font-size="14.00">cs4310 Operating Systems</text>
</g>
<!-- cs4250&#45;&gt;cs4310 -->
<g id="edge7" class="edge">
<title>cs4250&#45;&gt;cs4310</title>
<path fill="none" stroke="black" d="M982.26,-144.05C969.63,-134.94 953.89,-123.58 940.21,-113.71"/>
<polygon fill="black" stroke="black" points="942.16,-110.8 932.01,-107.79 938.07,-116.48 942.16,-110.8"/>
</g>
<!-- cs4760 -->
<g id="node18" class="node">
<title>cs4760</title>
<ellipse fill="none" stroke="black" cx="1036.74" cy="-18" rx="113.18" ry="18"/>
<text text-anchor="middle" x="1036.74" y="-14.3" font-family="Times,serif" font-size="14.00">cs4760 Senior Project</text>
</g>
<!-- cs4310&#45;&gt;cs4760 -->
<g id="edge16" class="edge">
<title>cs4310&#45;&gt;cs4760</title>
<path fill="none" stroke="black" d="M939.08,-72.41C956.61,-62.82 978.86,-50.65 997.69,-40.36"/>
<polygon fill="black" stroke="black" points="999.53,-43.34 1006.63,-35.47 996.17,-37.2 999.53,-43.34"/>
</g>
<!-- ma2450 -->
<g id="node8" class="node">
<title>ma2450</title>
<ellipse fill="none" stroke="black" cx="359.74" cy="-234" rx="166.27" ry="18"/>
<text text-anchor="middle" x="359.74" y="-230.3" font-family="Times,serif" font-size="14.00">ma2450 Mathematical Reasoning</text>
</g>
<!-- ma2450&#45;&gt;cs3221 -->
<g id="edge9" class="edge">
<title>ma2450&#45;&gt;cs3221</title>
<path fill="none" stroke="black" d="M415.64,-217.03C452.88,-206.39 501.91,-192.38 540.71,-181.29"/>
<polygon fill="black" stroke="black" points="541.69,-184.65 550.35,-178.54 539.77,-177.92 541.69,-184.65"/>
</g>
<!-- cs3780 -->
<g id="node10" class="node">
<title>cs3780</title>
<ellipse fill="none" stroke="black" cx="604.74" cy="-90" rx="150.27" ry="18"/>
<text text-anchor="middle" x="604.74" y="-86.3" font-family="Times,serif" font-size="14.00">cs3780 Computational Theory</text>
</g>
<!-- cs3221&#45;&gt;cs3780 -->
<g id="edge10" class="edge">
<title>cs3221&#45;&gt;cs3780</title>
<path fill="none" stroke="black" d="M604.74,-143.7C604.74,-135.98 604.74,-126.71 604.74,-118.11"/>
<polygon fill="black" stroke="black" points="608.24,-118.1 604.74,-108.1 601.24,-118.1 608.24,-118.1"/>
</g>
<!-- cs3780&#45;&gt;cs4760 -->
<g id="edge15" class="edge">
<title>cs3780&#45;&gt;cs4760</title>
<path fill="none" stroke="black" d="M690.09,-75.17C765.51,-62.95 874.98,-45.21 950.63,-32.95"/>
<polygon fill="black" stroke="black" points="951.3,-36.39 960.61,-31.34 950.18,-29.48 951.3,-36.39"/>
</g>
<!-- cs3720 -->
<g id="node12" class="node">
<title>cs3720</title>
<ellipse fill="none" stroke="black" cx="208.74" cy="-162" rx="182.77" ry="18"/>
<text text-anchor="middle" x="208.74" y="-158.3" font-family="Times,serif" font-size="14.00">cs3720 Systems Analysis and Design</text>
</g>
<!-- cs3600&#45;&gt;cs3720 -->
<g id="edge12" class="edge">
<title>cs3600&#45;&gt;cs3720</title>
<path fill="none" stroke="black" d="M115.81,-216.76C132.1,-207.34 152.84,-195.34 170.59,-185.07"/>
<polygon fill="black" stroke="black" points="172.66,-187.92 179.57,-179.88 169.16,-181.86 172.66,-187.92"/>
</g>
<!-- cs4140 -->
<g id="node13" class="node">
<title>cs4140</title>
<ellipse fill="none" stroke="black" cx="248.74" cy="-90" rx="148.67" ry="18"/>
<text text-anchor="middle" x="248.74" y="-86.3" font-family="Times,serif" font-size="14.00">cs4140 Software Engineering</text>
</g>
<!-- cs3720&#45;&gt;cs4140 -->
<g id="edge13" class="edge">
<title>cs3720&#45;&gt;cs4140</title>
<path fill="none" stroke="black" d="M218.63,-143.7C223.23,-135.64 228.8,-125.89 233.9,-116.98"/>
<polygon fill="black" stroke="black" points="237.05,-118.52 238.97,-108.1 230.97,-115.05 237.05,-118.52"/>
</g>
<!-- cs4140&#45;&gt;cs4760 -->
<g id="edge17" class="edge">
<title>cs4140&#45;&gt;cs4760</title>
<path fill="none" stroke="black" d="M365.01,-78.67C517.66,-65.11 783.47,-41.5 930.8,-28.41"/>
<polygon fill="black" stroke="black" points="931.12,-31.9 940.77,-27.53 930.5,-24.92 931.12,-31.9"/>
</g>
<!-- cs4520 -->
<g id="node14" class="node">
<title>cs4520</title>
<ellipse fill="none" stroke="black" cx="1165.74" cy="-90" rx="102.88" ry="18"/>
<text text-anchor="middle" x="1165.74" y="-86.3" font-family="Times,serif" font-size="14.00">cs4520 Cyberethics</text>
</g>
<!-- cs4520&#45;&gt;cs4760 -->
<g id="edge18" class="edge">
<title>cs4520&#45;&gt;cs4760</title>
<path fill="none" stroke="black" d="M1135.82,-72.76C1117.96,-63.07 1095.07,-50.65 1075.8,-40.19"/>
<polygon fill="black" stroke="black" points="1077.4,-37.08 1066.95,-35.39 1074.07,-43.24 1077.4,-37.08"/>
</g>
<!-- ma2300 -->
<g id="node15" class="node">
<title>ma2300</title>
<ellipse fill="none" stroke="black" cx="1387.74" cy="-90" rx="101.28" ry="18"/>
<text text-anchor="middle" x="1387.74" y="-86.3" font-family="Times,serif" font-size="14.00">ma2300 Statistics I</text>
</g>
<!-- ma2300&#45;&gt;cs4760 -->
<g id="edge19" class="edge">
<title>ma2300&#45;&gt;cs4760</title>
<path fill="none" stroke="black" d="M1322.95,-76.08C1264.01,-64.32 1176.9,-46.95 1114.27,-34.46"/>
<polygon fill="black" stroke="black" points="1114.93,-31.02 1104.44,-32.5 1113.56,-37.89 1114.93,-31.02"/>
</g>
<!-- ma2550 -->
<g id="node16" class="node">
<title>ma2550</title>
<ellipse fill="none" stroke="black" cx="1588.74" cy="-162" rx="77.19" ry="18"/>
<text text-anchor="middle" x="1588.74" y="-158.3" font-family="Times,serif" font-size="14.00">ma2550 Calc I</text>
</g>
<!-- ma2560 -->
<g id="node17" class="node">
<title>ma2560</title>
<ellipse fill="none" stroke="black" cx="1588.74" cy="-90" rx="81.49" ry="18"/>
<text text-anchor="middle" x="1588.74" y="-86.3" font-family="Times,serif" font-size="14.00">ma2560 Calc II</text>
</g>
<!-- ma2550&#45;&gt;ma2560 -->
<g id="edge14" class="edge">
<title>ma2550&#45;&gt;ma2560</title>
<path fill="none" stroke="black" d="M1588.74,-143.7C1588.74,-135.98 1588.74,-126.71 1588.74,-118.11"/>
<polygon fill="black" stroke="black" points="1592.24,-118.1 1588.74,-108.1 1585.24,-118.1 1592.24,-118.1"/>
</g>
<!-- ma2560&#45;&gt;cs4760 -->
<g id="edge20" class="edge">
<title>ma2560&#45;&gt;cs4760</title>
<path fill="none" stroke="black" d="M1530.1,-77.42C1519.36,-75.48 1508.23,-73.58 1497.74,-72 1375.92,-53.64 1235.13,-38.3 1141.51,-28.93"/>
<polygon fill="black" stroke="black" points="1141.77,-25.44 1131.47,-27.93 1141.07,-32.4 1141.77,-25.44"/>
</g>
</g>
</svg>
