<?xml version="1.0" encoding="UTF-8" standalone="no"?>
<!DOCTYPE svg PUBLIC "-//W3C//DTD SVG 1.1//EN"
 "http://www.w3.org/Graphics/SVG/1.1/DTD/svg11.dtd">
<!-- Generated by graphviz version 2.43.0 (0)
 -->
<!-- Title: %3 Pages: 1 -->
<svg width="1731pt" height="298pt"
 viewBox="0.00 0.00 1731.37 298.31" xmlns="http://www.w3.org/2000/svg" xmlns:xlink="http://www.w3.org/1999/xlink">
<g id="graph0" class="graph" transform="scale(1 1) rotate(0) translate(4 294.31)">
<title>%3</title>
<polygon fill="white" stroke="transparent" points="-4,4 -4,-294.31 1727.37,-294.31 1727.37,4 -4,4"/>
<!-- cs2370 -->
<g id="node1" class="node">
<title>cs2370</title>
<ellipse fill="none" stroke="black" cx="522.18" cy="-272.31" rx="148.67" ry="18"/>
<text text-anchor="middle" x="522.18" y="-268.61" font-family="Times,serif" font-size="14.00">cs2370 Intro to Programming</text>
</g>
<!-- cs2381 -->
<g id="node2" class="node">
<title>cs2381</title>
<ellipse fill="none" stroke="black" cx="843.18" cy="-200.31" rx="121.58" ry="18"/>
<text text-anchor="middle" x="843.18" y="-196.61" font-family="Times,serif" font-size="14.00">cs2381 Data Structures</text>
</g>
<!-- cs2370&#45;&gt;cs2381 -->
<g id="edge1" class="edge">
<title>cs2370&#45;&gt;cs2381</title>
<path fill="none" stroke="black" d="M591.04,-256.29C643.16,-244.93 714.66,-229.34 768.21,-217.66"/>
<polygon fill="black" stroke="black" points="768.97,-221.07 777.99,-215.52 767.48,-214.24 768.97,-221.07"/>
</g>
<!-- cs2470 -->
<g id="node6" class="node">
<title>cs2470</title>
<ellipse fill="none" stroke="black" cx="200.18" cy="-200.31" rx="200.36" ry="18"/>
<text text-anchor="middle" x="200.18" y="-196.61" font-family="Times,serif" font-size="14.00">cs2470 Systems Programming in C/C++</text>
</g>
<!-- cs2370&#45;&gt;cs2470 -->
<g id="edge4" class="edge">
<title>cs2370&#45;&gt;cs2470</title>
<path fill="none" stroke="black" d="M453.11,-256.29C403.19,-245.44 335.56,-230.74 282.79,-219.27"/>
<polygon fill="black" stroke="black" points="283.29,-215.79 272.78,-217.09 281.81,-222.63 283.29,-215.79"/>
</g>
<!-- cs31x1 -->
<g id="node3" class="node">
<title>cs31x1</title>
<ellipse fill="none" stroke="black" cx="813.18" cy="-118.73" rx="163.27" ry="18"/>
<text text-anchor="middle" x="813.18" y="-115.03" font-family="Times,serif" font-size="14.00">cs31x1 Programming Languages</text>
</g>
<!-- cs2381&#45;&gt;cs31x1 -->
<g id="edge2" class="edge">
<title>cs2381&#45;&gt;cs31x1</title>
<path fill="none" stroke="black" d="M836.67,-182.04C832.74,-171.61 827.65,-158.11 823.21,-146.34"/>
<polygon fill="black" stroke="black" points="826.48,-145.09 819.68,-136.96 819.93,-147.56 826.48,-145.09"/>
</g>
<!-- cs4250 -->
<g id="node7" class="node">
<title>cs4250</title>
<ellipse fill="none" stroke="black" cx="475.18" cy="-118.73" rx="156.77" ry="18"/>
<text text-anchor="middle" x="475.18" y="-115.03" font-family="Times,serif" font-size="14.00">cs4250 Computer Archetecture</text>
</g>
<!-- cs2381&#45;&gt;cs4250 -->
<g id="edge6" class="edge">
<title>cs2381&#45;&gt;cs4250</title>
<path fill="none" stroke="black" d="M777.39,-185.08C715.15,-171.62 621.63,-151.4 555.12,-137.02"/>
<polygon fill="black" stroke="black" points="555.61,-133.54 545.1,-134.85 554.13,-140.38 555.61,-133.54"/>
</g>
<!-- cs3221 -->
<g id="node10" class="node">
<title>cs3221</title>
<ellipse fill="none" stroke="black" cx="1320.18" cy="-118.73" rx="134.58" ry="18"/>
<text text-anchor="middle" x="1320.18" y="-115.03" font-family="Times,serif" font-size="14.00">cs3221 Algorithm Analysis</text>
</g>
<!-- cs2381&#45;&gt;cs3221 -->
<g id="edge9" class="edge">
<title>cs2381&#45;&gt;cs3221</title>
<path fill="none" stroke="black" d="M922.95,-186.64C988.98,-176.08 1085.23,-160.52 1169.18,-146.31 1189.82,-142.82 1212.03,-138.96 1232.89,-135.3"/>
<polygon fill="black" stroke="black" points="1233.77,-138.69 1243.01,-133.51 1232.55,-131.8 1233.77,-138.69"/>
</g>
<!-- cs4xx1 -->
<g id="node15" class="node">
<title>cs4xx1</title>
<ellipse fill="none" stroke="black" cx="1077.18" cy="-118.73" rx="82.96" ry="27.65"/>
<text text-anchor="middle" x="1077.18" y="-107.03" font-family="Times,serif" font-size="14.00"> Project Seq 1</text>
</g>
<!-- cs2381&#45;&gt;cs4xx1 -->
<g id="edge13" class="edge">
<title>cs2381&#45;&gt;cs4xx1</title>
<path fill="none" stroke="black" d="M889.41,-183.59C924.16,-171.77 972.25,-155.42 1011.06,-142.22"/>
<polygon fill="black" stroke="black" points="1012.38,-145.47 1020.72,-138.93 1010.12,-138.84 1012.38,-145.47"/>
</g>
<!-- cs36x1 -->
<g id="node4" class="node">
<title>cs36x1</title>
<ellipse fill="none" stroke="black" cx="813.18" cy="-27.58" rx="109.38" ry="18"/>
<text text-anchor="middle" x="813.18" y="-23.88" font-family="Times,serif" font-size="14.00">cs36x1 Software Dev</text>
</g>
<!-- cs31x1&#45;&gt;cs36x1 -->
<g id="edge3" class="edge">
<title>cs31x1&#45;&gt;cs36x1</title>
<path fill="none" stroke="black" d="M813.18,-100.54C813.18,-87.96 813.18,-70.63 813.18,-56.13"/>
<polygon fill="black" stroke="black" points="816.68,-55.71 813.18,-45.71 809.68,-55.71 816.68,-55.71"/>
</g>
<!-- cs2220 -->
<g id="node5" class="node">
<title>cs2220</title>
<ellipse fill="none" stroke="black" cx="561.18" cy="-200.31" rx="142.17" ry="18"/>
<text text-anchor="middle" x="561.18" y="-196.61" font-family="Times,serif" font-size="14.00">cs2220 Computer Hardware</text>
</g>
<!-- cs2220&#45;&gt;cs4250 -->
<g id="edge5" class="edge">
<title>cs2220&#45;&gt;cs4250</title>
<path fill="none" stroke="black" d="M542.94,-182.43C530.83,-171.22 514.73,-156.32 501.26,-143.87"/>
<polygon fill="black" stroke="black" points="503.41,-141.08 493.69,-136.86 498.65,-146.22 503.41,-141.08"/>
</g>
<!-- cs4310 -->
<g id="node8" class="node">
<title>cs4310</title>
<ellipse fill="none" stroke="black" cx="383.18" cy="-27.58" rx="135.68" ry="18"/>
<text text-anchor="middle" x="383.18" y="-23.88" font-family="Times,serif" font-size="14.00">cs4310 Operating Systems</text>
</g>
<!-- cs2470&#45;&gt;cs4310 -->
<g id="edge8" class="edge">
<title>cs2470&#45;&gt;cs4310</title>
<path fill="none" stroke="black" d="M216.77,-182.02C237.79,-160.31 275.38,-122.13 309.18,-91.15 323.8,-77.76 340.65,-63.43 354.57,-51.87"/>
<polygon fill="black" stroke="black" points="356.91,-54.48 362.39,-45.41 352.45,-49.08 356.91,-54.48"/>
</g>
<!-- cs4250&#45;&gt;cs4310 -->
<g id="edge7" class="edge">
<title>cs4250&#45;&gt;cs4310</title>
<path fill="none" stroke="black" d="M457.44,-100.54C443.44,-86.97 423.74,-67.88 408.15,-52.77"/>
<polygon fill="black" stroke="black" points="410.48,-50.16 400.87,-45.71 405.61,-55.19 410.48,-50.16"/>
</g>
<!-- ma2450 -->
<g id="node9" class="node">
<title>ma2450</title>
<ellipse fill="none" stroke="black" cx="1320.18" cy="-200.31" rx="166.27" ry="18"/>
<text text-anchor="middle" x="1320.18" y="-196.61" font-family="Times,serif" font-size="14.00">ma2450 Mathematical Reasoning</text>
</g>
<!-- ma2450&#45;&gt;cs3221 -->
<g id="edge10" class="edge">
<title>ma2450&#45;&gt;cs3221</title>
<path fill="none" stroke="black" d="M1320.18,-182.04C1320.18,-171.82 1320.18,-158.65 1320.18,-147.05"/>
<polygon fill="black" stroke="black" points="1323.68,-146.96 1320.18,-136.96 1316.68,-146.96 1323.68,-146.96"/>
</g>
<!-- cs3780 -->
<g id="node11" class="node">
<title>cs3780</title>
<ellipse fill="none" stroke="black" cx="1324.18" cy="-27.58" rx="150.27" ry="18"/>
<text text-anchor="middle" x="1324.18" y="-23.88" font-family="Times,serif" font-size="14.00">cs3780 Computational Theory</text>
</g>
<!-- cs3221&#45;&gt;cs3780 -->
<g id="edge11" class="edge">
<title>cs3221&#45;&gt;cs3780</title>
<path fill="none" stroke="black" d="M1320.95,-100.54C1321.52,-87.96 1322.3,-70.63 1322.95,-56.13"/>
<polygon fill="black" stroke="black" points="1326.46,-55.86 1323.41,-45.71 1319.47,-55.55 1326.46,-55.86"/>
</g>
<!-- cs4520 -->
<g id="node12" class="node">
<title>cs4520</title>
<ellipse fill="none" stroke="black" cx="1153.18" cy="-272.31" rx="102.88" ry="18"/>
<text text-anchor="middle" x="1153.18" y="-268.61" font-family="Times,serif" font-size="14.00">cs4520 Cyberethics</text>
</g>
<!-- ma2550 -->
<g id="node13" class="node">
<title>ma2550</title>
<ellipse fill="none" stroke="black" cx="1614.18" cy="-272.31" rx="77.19" ry="18"/>
<text text-anchor="middle" x="1614.18" y="-268.61" font-family="Times,serif" font-size="14.00">ma2550 Calc I</text>
</g>
<!-- ma3500 -->
<g id="node14" class="node">
<title>ma3500</title>
<ellipse fill="none" stroke="black" cx="1614.18" cy="-200.31" rx="109.38" ry="18"/>
<text text-anchor="middle" x="1614.18" y="-196.61" font-family="Times,serif" font-size="14.00">ma3500 Stats w/Calc</text>
</g>
<!-- ma2550&#45;&gt;ma3500 -->
<g id="edge12" class="edge">
<title>ma2550&#45;&gt;ma3500</title>
<path fill="none" stroke="black" d="M1614.18,-254.01C1614.18,-246.29 1614.18,-237.02 1614.18,-228.42"/>
<polygon fill="black" stroke="black" points="1617.68,-228.41 1614.18,-218.41 1610.68,-228.41 1617.68,-228.41"/>
</g>
<!-- cs4xx2 -->
<g id="node16" class="node">
<title>cs4xx2</title>
<ellipse fill="none" stroke="black" cx="1073.18" cy="-27.58" rx="82.96" ry="27.65"/>
<text text-anchor="middle" x="1073.18" y="-15.88" font-family="Times,serif" font-size="14.00"> Project Seq 2</text>
</g>
<!-- cs4xx1&#45;&gt;cs4xx2 -->
<g id="edge14" class="edge">
<title>cs4xx1&#45;&gt;cs4xx2</title>
<path fill="none" stroke="black" d="M1075.98,-90.98C1075.62,-82.96 1075.22,-74.02 1074.84,-65.46"/>
<polygon fill="black" stroke="black" points="1078.33,-65.14 1074.38,-55.31 1071.33,-65.45 1078.33,-65.14"/>
</g>
</g>
</svg>
