<?xml version="1.0" encoding="UTF-8" standalone="no"?>
<!DOCTYPE svg PUBLIC "-//W3C//DTD SVG 1.1//EN"
 "http://www.w3.org/Graphics/SVG/1.1/DTD/svg11.dtd">
<!-- Generated by graphviz version 2.43.0 (0)
 -->
<!-- Title: %3 Pages: 1 -->
<svg width="2057pt" height="370pt"
 viewBox="0.00 0.00 2057.02 370.31" xmlns="http://www.w3.org/2000/svg" xmlns:xlink="http://www.w3.org/1999/xlink">
<g id="graph0" class="graph" transform="scale(1 1) rotate(0) translate(4 366.31)">
<title>%3</title>
<polygon fill="white" stroke="transparent" points="-4,4 -4,-366.31 2053.02,-366.31 2053.02,4 -4,4"/>
<!-- cs2370 -->
<g id="node1" class="node">
<title>cs2370</title>
<ellipse fill="none" stroke="black" cx="879.18" cy="-344.31" rx="148.67" ry="18"/>
<text text-anchor="middle" x="879.18" y="-340.61" font-family="Times,serif" font-size="14.00">cs2370 Intro to Programming</text>
</g>
<!-- cs2381 -->
<g id="node2" class="node">
<title>cs2381</title>
<ellipse fill="none" stroke="black" cx="879.18" cy="-272.31" rx="121.58" ry="18"/>
<text text-anchor="middle" x="879.18" y="-268.61" font-family="Times,serif" font-size="14.00">cs2381 Data Structures</text>
</g>
<!-- cs2370&#45;&gt;cs2381 -->
<g id="edge1" class="edge">
<title>cs2370&#45;&gt;cs2381</title>
<path fill="none" stroke="black" d="M879.18,-326.01C879.18,-318.29 879.18,-309.02 879.18,-300.42"/>
<polygon fill="black" stroke="black" points="882.68,-300.41 879.18,-290.41 875.68,-300.41 882.68,-300.41"/>
</g>
<!-- cs2470 -->
<g id="node5" class="node">
<title>cs2470</title>
<ellipse fill="none" stroke="black" cx="200.18" cy="-272.31" rx="200.36" ry="18"/>
<text text-anchor="middle" x="200.18" y="-268.61" font-family="Times,serif" font-size="14.00">cs2470 Systems Programming in C/C++</text>
</g>
<!-- cs2370&#45;&gt;cs2470 -->
<g id="edge3" class="edge">
<title>cs2370&#45;&gt;cs2470</title>
<path fill="none" stroke="black" d="M770.09,-332.06C652.2,-319.91 464.12,-300.52 336.55,-287.37"/>
<polygon fill="black" stroke="black" points="336.63,-283.86 326.32,-286.31 335.91,-290.82 336.63,-283.86"/>
</g>
<!-- cs3600 -->
<g id="node11" class="node">
<title>cs3600</title>
<ellipse fill="none" stroke="black" cx="1764.18" cy="-190.73" rx="94.78" ry="18"/>
<text text-anchor="middle" x="1764.18" y="-187.03" font-family="Times,serif" font-size="14.00">cs3600 Databases</text>
</g>
<!-- cs2370&#45;&gt;cs3600 -->
<g id="edge11" class="edge">
<title>cs2370&#45;&gt;cs3600</title>
<path fill="none" stroke="black" d="M1026.39,-341.65C1152.45,-337.63 1338.11,-325.5 1496.18,-290.31 1577.95,-272.1 1668.54,-234.98 1720.68,-211.85"/>
<polygon fill="black" stroke="black" points="1722.26,-214.98 1729.96,-207.7 1719.4,-208.59 1722.26,-214.98"/>
</g>
<!-- cs31x1 -->
<g id="node3" class="node">
<title>cs31x1</title>
<ellipse fill="none" stroke="black" cx="723.18" cy="-190.73" rx="163.27" ry="18"/>
<text text-anchor="middle" x="723.18" y="-187.03" font-family="Times,serif" font-size="14.00">cs31x1 Programming Languages</text>
</g>
<!-- cs2381&#45;&gt;cs31x1 -->
<g id="edge2" class="edge">
<title>cs2381&#45;&gt;cs31x1</title>
<path fill="none" stroke="black" d="M846.86,-254.82C823.17,-242.74 790.81,-226.23 765.13,-213.13"/>
<polygon fill="black" stroke="black" points="766.5,-209.9 756,-208.47 763.32,-216.13 766.5,-209.9"/>
</g>
<!-- cs4250 -->
<g id="node6" class="node">
<title>cs4250</title>
<ellipse fill="none" stroke="black" cx="385.18" cy="-190.73" rx="156.77" ry="18"/>
<text text-anchor="middle" x="385.18" y="-187.03" font-family="Times,serif" font-size="14.00">cs4250 Computer Archetecture</text>
</g>
<!-- cs2381&#45;&gt;cs4250 -->
<g id="edge5" class="edge">
<title>cs2381&#45;&gt;cs4250</title>
<path fill="none" stroke="black" d="M800.09,-258.57C713.69,-244.65 575.27,-222.35 482.33,-207.38"/>
<polygon fill="black" stroke="black" points="482.79,-203.91 472.36,-205.77 481.68,-210.82 482.79,-203.91"/>
</g>
<!-- cs3221 -->
<g id="node9" class="node">
<title>cs3221</title>
<ellipse fill="none" stroke="black" cx="1222.18" cy="-190.73" rx="134.58" ry="18"/>
<text text-anchor="middle" x="1222.18" y="-187.03" font-family="Times,serif" font-size="14.00">cs3221 Algorithm Analysis</text>
</g>
<!-- cs2381&#45;&gt;cs3221 -->
<g id="edge8" class="edge">
<title>cs2381&#45;&gt;cs3221</title>
<path fill="none" stroke="black" d="M941.69,-256.81C999.81,-243.32 1086.43,-223.23 1148.02,-208.94"/>
<polygon fill="black" stroke="black" points="1149.11,-212.28 1158.06,-206.61 1147.53,-205.46 1149.11,-212.28"/>
</g>
<!-- cs4xx1 -->
<g id="node16" class="node">
<title>cs4xx1</title>
<ellipse fill="none" stroke="black" cx="987.18" cy="-190.73" rx="82.96" ry="27.65"/>
<text text-anchor="middle" x="987.18" y="-179.03" font-family="Times,serif" font-size="14.00"> Project Seq 1</text>
</g>
<!-- cs2381&#45;&gt;cs4xx1 -->
<g id="edge15" class="edge">
<title>cs2381&#45;&gt;cs4xx1</title>
<path fill="none" stroke="black" d="M902.09,-254.43C914.83,-245.04 931.09,-233.06 945.97,-222.1"/>
<polygon fill="black" stroke="black" points="948.09,-224.88 954.06,-216.13 943.94,-219.25 948.09,-224.88"/>
</g>
<!-- cs4760 -->
<g id="node18" class="node">
<title>cs4760</title>
<ellipse fill="none" stroke="black" cx="1123.18" cy="-18" rx="113.18" ry="18"/>
<text text-anchor="middle" x="1123.18" y="-14.3" font-family="Times,serif" font-size="14.00">cs4760 Senior Project</text>
</g>
<!-- cs31x1&#45;&gt;cs4760 -->
<g id="edge22" class="edge">
<title>cs31x1&#45;&gt;cs4760</title>
<path fill="none" stroke="black" d="M723.99,-172.62C726.22,-146.54 734.49,-97.2 765.18,-72 801.04,-42.55 914.71,-29.44 1004.46,-23.62"/>
<polygon fill="black" stroke="black" points="1004.68,-27.11 1014.44,-22.99 1004.24,-20.12 1004.68,-27.11"/>
</g>
<!-- cs2220 -->
<g id="node4" class="node">
<title>cs2220</title>
<ellipse fill="none" stroke="black" cx="561.18" cy="-272.31" rx="142.17" ry="18"/>
<text text-anchor="middle" x="561.18" y="-268.61" font-family="Times,serif" font-size="14.00">cs2220 Computer Hardware</text>
</g>
<!-- cs2220&#45;&gt;cs4250 -->
<g id="edge4" class="edge">
<title>cs2220&#45;&gt;cs4250</title>
<path fill="none" stroke="black" d="M524.71,-254.82C497.55,-242.54 460.27,-225.68 431.08,-212.48"/>
<polygon fill="black" stroke="black" points="432.46,-209.27 421.91,-208.34 429.58,-215.64 432.46,-209.27"/>
</g>
<!-- cs4310 -->
<g id="node7" class="node">
<title>cs4310</title>
<ellipse fill="none" stroke="black" cx="385.18" cy="-99.58" rx="135.68" ry="18"/>
<text text-anchor="middle" x="385.18" y="-95.88" font-family="Times,serif" font-size="14.00">cs4310 Operating Systems</text>
</g>
<!-- cs2470&#45;&gt;cs4310 -->
<g id="edge7" class="edge">
<title>cs2470&#45;&gt;cs4310</title>
<path fill="none" stroke="black" d="M198.34,-254.19C196.81,-230.89 197.65,-189.13 219.18,-163.15 237.82,-140.67 265.42,-126.26 292.8,-117.02"/>
<polygon fill="black" stroke="black" points="293.97,-120.32 302.45,-113.96 291.86,-113.64 293.97,-120.32"/>
</g>
<!-- cs4250&#45;&gt;cs4310 -->
<g id="edge6" class="edge">
<title>cs4250&#45;&gt;cs4310</title>
<path fill="none" stroke="black" d="M385.18,-172.54C385.18,-159.96 385.18,-142.63 385.18,-128.13"/>
<polygon fill="black" stroke="black" points="388.68,-127.71 385.18,-117.71 381.68,-127.71 388.68,-127.71"/>
</g>
<!-- cs4310&#45;&gt;cs4760 -->
<g id="edge18" class="edge">
<title>cs4310&#45;&gt;cs4760</title>
<path fill="none" stroke="black" d="M487.02,-87.6C628.12,-72.38 881.53,-45.06 1022.17,-29.89"/>
<polygon fill="black" stroke="black" points="1022.95,-33.33 1032.52,-28.78 1022.2,-26.37 1022.95,-33.33"/>
</g>
<!-- ma2450 -->
<g id="node8" class="node">
<title>ma2450</title>
<ellipse fill="none" stroke="black" cx="1321.18" cy="-272.31" rx="166.27" ry="18"/>
<text text-anchor="middle" x="1321.18" y="-268.61" font-family="Times,serif" font-size="14.00">ma2450 Mathematical Reasoning</text>
</g>
<!-- ma2450&#45;&gt;cs3221 -->
<g id="edge9" class="edge">
<title>ma2450&#45;&gt;cs3221</title>
<path fill="none" stroke="black" d="M1300.19,-254.43C1285.88,-242.93 1266.75,-227.56 1251.02,-214.91"/>
<polygon fill="black" stroke="black" points="1253.13,-212.12 1243.15,-208.58 1248.75,-217.58 1253.13,-212.12"/>
</g>
<!-- ma2450&#45;&gt;cs3600 -->
<g id="edge12" class="edge">
<title>ma2450&#45;&gt;cs3600</title>
<path fill="none" stroke="black" d="M1422.88,-257.99C1490.44,-248.5 1580.97,-234.58 1660.18,-218.31 1674.06,-215.46 1688.87,-211.95 1702.84,-208.44"/>
<polygon fill="black" stroke="black" points="1704.01,-211.75 1712.83,-205.89 1702.28,-204.97 1704.01,-211.75"/>
</g>
<!-- cs3780 -->
<g id="node10" class="node">
<title>cs3780</title>
<ellipse fill="none" stroke="black" cx="1123.18" cy="-99.58" rx="150.27" ry="18"/>
<text text-anchor="middle" x="1123.18" y="-95.88" font-family="Times,serif" font-size="14.00">cs3780 Computational Theory</text>
</g>
<!-- cs3221&#45;&gt;cs3780 -->
<g id="edge10" class="edge">
<title>cs3221&#45;&gt;cs3780</title>
<path fill="none" stroke="black" d="M1203.09,-172.54C1188.03,-158.97 1166.83,-139.88 1150.05,-124.77"/>
<polygon fill="black" stroke="black" points="1151.98,-121.81 1142.21,-117.71 1147.3,-127.01 1151.98,-121.81"/>
</g>
<!-- cs3780&#45;&gt;cs4760 -->
<g id="edge17" class="edge">
<title>cs3780&#45;&gt;cs4760</title>
<path fill="none" stroke="black" d="M1123.18,-81.31C1123.18,-71.09 1123.18,-57.92 1123.18,-46.31"/>
<polygon fill="black" stroke="black" points="1126.68,-46.23 1123.18,-36.23 1119.68,-46.23 1126.68,-46.23"/>
</g>
<!-- cs4140 -->
<g id="node12" class="node">
<title>cs4140</title>
<ellipse fill="none" stroke="black" cx="1900.18" cy="-99.58" rx="148.67" ry="18"/>
<text text-anchor="middle" x="1900.18" y="-95.88" font-family="Times,serif" font-size="14.00">cs4140 Software Engineering</text>
</g>
<!-- cs3600&#45;&gt;cs4140 -->
<g id="edge13" class="edge">
<title>cs3600&#45;&gt;cs4140</title>
<path fill="none" stroke="black" d="M1789.44,-173.17C1811.06,-159 1842.37,-138.47 1866.19,-122.86"/>
<polygon fill="black" stroke="black" points="1868.15,-125.76 1874.59,-117.35 1864.31,-119.91 1868.15,-125.76"/>
</g>
<!-- cs4140&#45;&gt;cs4760 -->
<g id="edge19" class="edge">
<title>cs4140&#45;&gt;cs4760</title>
<path fill="none" stroke="black" d="M1822.41,-84.2C1796.91,-79.84 1768.4,-75.32 1742.18,-72 1566.42,-49.73 1361.37,-34.22 1236.98,-25.96"/>
<polygon fill="black" stroke="black" points="1236.89,-22.45 1226.68,-25.28 1236.43,-29.43 1236.89,-22.45"/>
</g>
<!-- cs4520 -->
<g id="node13" class="node">
<title>cs4520</title>
<ellipse fill="none" stroke="black" cx="1394.18" cy="-99.58" rx="102.88" ry="18"/>
<text text-anchor="middle" x="1394.18" y="-95.88" font-family="Times,serif" font-size="14.00">cs4520 Cyberethics</text>
</g>
<!-- cs4520&#45;&gt;cs4760 -->
<g id="edge20" class="edge">
<title>cs4520&#45;&gt;cs4760</title>
<path fill="none" stroke="black" d="M1343.84,-83.8C1298.74,-70.55 1232.45,-51.09 1184.31,-36.95"/>
<polygon fill="black" stroke="black" points="1185.21,-33.57 1174.63,-34.11 1183.24,-40.28 1185.21,-33.57"/>
</g>
<!-- ma2550 -->
<g id="node14" class="node">
<title>ma2550</title>
<ellipse fill="none" stroke="black" cx="1574.18" cy="-190.73" rx="77.19" ry="18"/>
<text text-anchor="middle" x="1574.18" y="-187.03" font-family="Times,serif" font-size="14.00">ma2550 Calc I</text>
</g>
<!-- ma3500 -->
<g id="node15" class="node">
<title>ma3500</title>
<ellipse fill="none" stroke="black" cx="1624.18" cy="-99.58" rx="109.38" ry="18"/>
<text text-anchor="middle" x="1624.18" y="-95.88" font-family="Times,serif" font-size="14.00">ma3500 Stats w/Calc</text>
</g>
<!-- ma2550&#45;&gt;ma3500 -->
<g id="edge14" class="edge">
<title>ma2550&#45;&gt;ma3500</title>
<path fill="none" stroke="black" d="M1583.82,-172.54C1591.09,-159.59 1601.17,-141.61 1609.44,-126.86"/>
<polygon fill="black" stroke="black" points="1612.73,-128.15 1614.57,-117.71 1606.63,-124.72 1612.73,-128.15"/>
</g>
<!-- ma3500&#45;&gt;cs4760 -->
<g id="edge21" class="edge">
<title>ma3500&#45;&gt;cs4760</title>
<path fill="none" stroke="black" d="M1565.56,-84.35C1546.67,-80.04 1525.6,-75.52 1506.18,-72 1410.26,-54.59 1299.91,-39.88 1222.37,-30.4"/>
<polygon fill="black" stroke="black" points="1222.48,-26.89 1212.13,-29.16 1221.64,-33.84 1222.48,-26.89"/>
</g>
<!-- cs4xx2 -->
<g id="node17" class="node">
<title>cs4xx2</title>
<ellipse fill="none" stroke="black" cx="872.18" cy="-99.58" rx="82.96" ry="27.65"/>
<text text-anchor="middle" x="872.18" y="-87.88" font-family="Times,serif" font-size="14.00"> Project Seq 2</text>
</g>
<!-- cs4xx1&#45;&gt;cs4xx2 -->
<g id="edge16" class="edge">
<title>cs4xx1&#45;&gt;cs4xx2</title>
<path fill="none" stroke="black" d="M955.45,-165.13C942,-154.71 926.18,-142.44 911.96,-131.42"/>
<polygon fill="black" stroke="black" points="913.86,-128.46 903.81,-125.09 909.57,-133.99 913.86,-128.46"/>
</g>
<!-- cs4xx1&#45;&gt;cs4760 -->
<g id="edge23" class="edge">
<title>cs4xx1&#45;&gt;cs4760</title>
<path fill="none" stroke="black" d="M926.64,-171.89C865.96,-153.95 781.33,-128.7 780.18,-127.15 765.57,-107.47 764.23,-90.61 780.18,-72 808.57,-38.89 914.54,-26.28 1001.27,-21.57"/>
<polygon fill="black" stroke="black" points="1001.67,-25.05 1011.47,-21.05 1001.31,-18.06 1001.67,-25.05"/>
</g>
</g>
</svg>
