<?xml version="1.0" encoding="UTF-8" standalone="no"?>
<!DOCTYPE svg PUBLIC "-//W3C//DTD SVG 1.1//EN"
 "http://www.w3.org/Graphics/SVG/1.1/DTD/svg11.dtd">
<!-- Generated by graphviz version 2.43.0 (0)
 -->
<!-- Title: %3 Pages: 1 -->
<svg width="1620pt" height="877pt"
 viewBox="0.00 0.00 1619.67 877.18" xmlns="http://www.w3.org/2000/svg" xmlns:xlink="http://www.w3.org/1999/xlink">
<g id="graph0" class="graph" transform="scale(1 1) rotate(0) translate(4 873.18)">
<title>%3</title>
<polygon fill="white" stroke="transparent" points="-4,4 -4,-873.18 1615.67,-873.18 1615.67,4 -4,4"/>
<g id="clust1" class="cluster">
<title>cluster_year1</title>
<polygon fill="lightgrey" stroke="lightgrey" points="684.32,-628.7 684.32,-861.18 1093.32,-861.18 1093.32,-628.7 684.32,-628.7"/>
<text text-anchor="middle" x="888.82" y="-845.98" font-family="Times,serif" font-size="14.00">Year 1</text>
</g>
<g id="clust2" class="cluster">
<title>cluster_fall1</title>
<polygon fill="white" stroke="white" points="730.32,-737.44 730.32,-830.18 1046.32,-830.18 1046.32,-737.44 730.32,-737.44"/>
<text text-anchor="middle" x="888.32" y="-814.98" font-family="Times,serif" font-size="14.00">Year 1 Fall</text>
</g>
<g id="clust3" class="cluster">
<title>cluster_spring1</title>
<polygon fill="white" stroke="white" points="692.32,-636.7 692.32,-729.44 1085.32,-729.44 1085.32,-636.7 692.32,-636.7"/>
<text text-anchor="middle" x="888.82" y="-714.24" font-family="Times,serif" font-size="14.00">Year 1 Spring</text>
</g>
<g id="clust4" class="cluster">
<title>cluster_year2</title>
<polygon fill="lightgrey" stroke="lightgrey" points="24.32,-388.22 24.32,-620.7 1158.32,-620.7 1158.32,-388.22 24.32,-388.22"/>
<text text-anchor="middle" x="591.32" y="-605.5" font-family="Times,serif" font-size="14.00">Year 2</text>
</g>
<g id="clust5" class="cluster">
<title>cluster_fall2</title>
<polygon fill="white" stroke="white" points="32.32,-496.96 32.32,-589.7 1150.32,-589.7 1150.32,-496.96 32.32,-496.96"/>
<text text-anchor="middle" x="591.32" y="-574.5" font-family="Times,serif" font-size="14.00">Year 2 Fall</text>
</g>
<g id="clust6" class="cluster">
<title>cluster_spring2</title>
<polygon fill="white" stroke="white" points="32.32,-396.22 32.32,-488.96 327.32,-488.96 327.32,-396.22 32.32,-396.22"/>
<text text-anchor="middle" x="179.82" y="-473.76" font-family="Times,serif" font-size="14.00">Year 2 Spring</text>
</g>
<g id="clust7" class="cluster">
<title>cluster_year3</title>
<polygon fill="lightgrey" stroke="lightgrey" points="441.32,-116.74 441.32,-380.22 1025.32,-380.22 1025.32,-116.74 441.32,-116.74"/>
<text text-anchor="middle" x="733.32" y="-365.02" font-family="Times,serif" font-size="14.00">Year 3</text>
</g>
<g id="clust8" class="cluster">
<title>cluster_fall3</title>
<polygon fill="white" stroke="white" points="449.32,-256.48 449.32,-349.22 1017.32,-349.22 1017.32,-256.48 449.32,-256.48"/>
<text text-anchor="middle" x="733.32" y="-334.02" font-family="Times,serif" font-size="14.00">Year 3 Fall</text>
</g>
<g id="clust9" class="cluster">
<title>cluster_spring3</title>
<polygon fill="white" stroke="white" points="449.32,-124.74 449.32,-217.48 876.32,-217.48 876.32,-124.74 449.32,-124.74"/>
<text text-anchor="middle" x="662.82" y="-202.28" font-family="Times,serif" font-size="14.00">Year 3 Spring</text>
</g>
<g id="clust10" class="cluster">
<title>cluster_year4</title>
<polygon fill="lightgrey" stroke="lightgrey" points="1033.32,-8 1033.32,-248.48 1585.32,-248.48 1585.32,-8 1033.32,-8"/>
<text text-anchor="middle" x="1309.32" y="-233.28" font-family="Times,serif" font-size="14.00">Year 4</text>
</g>
<g id="clust11" class="cluster">
<title>cluster_fall4</title>
<polygon fill="white" stroke="white" points="1041.32,-124.74 1041.32,-217.48 1577.32,-217.48 1577.32,-124.74 1041.32,-124.74"/>
<text text-anchor="middle" x="1309.32" y="-202.28" font-family="Times,serif" font-size="14.00">Year 4 Fall</text>
</g>
<g id="clust12" class="cluster">
<title>cluster_spring4</title>
<polygon fill="white" stroke="white" points="1041.32,-16 1041.32,-108.74 1461.32,-108.74 1461.32,-16 1041.32,-16"/>
<text text-anchor="middle" x="1251.32" y="-93.54" font-family="Times,serif" font-size="14.00">Year 4 Spring</text>
</g>
<!-- cs2010 -->
<g id="node1" class="node">
<title>cs2010</title>
<ellipse fill="none" stroke="black" cx="822.32" cy="-772.31" rx="84.29" ry="26.74"/>
<text text-anchor="middle" x="822.32" y="-776.11" font-family="Times,serif" font-size="14.00">CS 2010</text>
<text text-anchor="middle" x="822.32" y="-761.11" font-family="Times,serif" font-size="14.00">Fundamentals</text>
</g>
<!-- cs2370 -->
<g id="node3" class="node">
<title>cs2370</title>
<ellipse fill="none" stroke="black" cx="822.32" cy="-671.57" rx="122.16" ry="26.74"/>
<text text-anchor="middle" x="822.32" y="-675.37" font-family="Times,serif" font-size="14.00">CS 2370</text>
<text text-anchor="middle" x="822.32" y="-660.37" font-family="Times,serif" font-size="14.00">Intro to Programming</text>
</g>
<!-- cs2010&#45;&gt;cs2370 -->
<!-- cs2010&#45;&gt;cs2370 -->
<g id="edge5" class="edge">
<title>cs2010&#45;&gt;cs2370</title>
<path fill="none" stroke="black" d="M828.35,-745.37C829.09,-734.23 829.26,-721.02 828.86,-708.94"/>
<polygon fill="black" stroke="black" points="832.34,-708.5 828.36,-698.68 825.35,-708.84 832.34,-708.5"/>
</g>
<!-- ma2550 -->
<g id="node2" class="node">
<title>ma2550</title>
<ellipse fill="none" stroke="black" cx="981.32" cy="-772.31" rx="57.05" ry="26.74"/>
<text text-anchor="middle" x="981.32" y="-776.11" font-family="Times,serif" font-size="14.00">MA 2550</text>
<text text-anchor="middle" x="981.32" y="-761.11" font-family="Times,serif" font-size="14.00">Calc I</text>
</g>
<!-- ma2560 -->
<g id="node4" class="node">
<title>ma2560</title>
<ellipse fill="none" stroke="black" cx="1020.32" cy="-671.57" rx="57.05" ry="26.74"/>
<text text-anchor="middle" x="1020.32" y="-675.37" font-family="Times,serif" font-size="14.00">MA 2560</text>
<text text-anchor="middle" x="1020.32" y="-660.37" font-family="Times,serif" font-size="14.00">Calc II</text>
</g>
<!-- ma2550&#45;&gt;ma2560 -->
<g id="edge27" class="edge">
<title>ma2550&#45;&gt;ma2560</title>
<path fill="none" stroke="black" d="M991.47,-745.63C996.03,-734.08 1001.48,-720.28 1006.41,-707.79"/>
<polygon fill="black" stroke="black" points="1009.81,-708.71 1010.23,-698.13 1003.3,-706.14 1009.81,-708.71"/>
</g>
<!-- cs2220 -->
<g id="node5" class="node">
<title>cs2220</title>
<ellipse fill="none" stroke="black" cx="822.32" cy="-531.83" rx="115.93" ry="26.74"/>
<text text-anchor="middle" x="822.32" y="-535.63" font-family="Times,serif" font-size="14.00">CS 2220</text>
<text text-anchor="middle" x="822.32" y="-520.63" font-family="Times,serif" font-size="14.00">Computer Hardware</text>
</g>
<!-- cs2370&#45;&gt;cs2220 -->
<g id="edge6" class="edge">
<title>cs2370&#45;&gt;cs2220</title>
<path fill="none" stroke="black" d="M822.32,-644.66C822.32,-623.35 822.32,-592.89 822.32,-569.14"/>
<polygon fill="black" stroke="black" points="825.82,-569.09 822.32,-559.09 818.82,-569.09 825.82,-569.09"/>
</g>
<!-- cs2381 -->
<g id="node6" class="node">
<title>cs2381</title>
<ellipse fill="none" stroke="black" cx="1049.32" cy="-531.83" rx="92.76" ry="26.74"/>
<text text-anchor="middle" x="1049.32" y="-535.63" font-family="Times,serif" font-size="14.00">CS 2381</text>
<text text-anchor="middle" x="1049.32" y="-520.63" font-family="Times,serif" font-size="14.00">Data Structures</text>
</g>
<!-- cs2370&#45;&gt;cs2381 -->
<g id="edge7" class="edge">
<title>cs2370&#45;&gt;cs2381</title>
<path fill="none" stroke="black" d="M888.51,-648.87C908.1,-641.22 929.14,-631.73 947.32,-620.7 972.9,-605.18 998.4,-583.21 1017.51,-565.12"/>
<polygon fill="black" stroke="black" points="1019.98,-567.6 1024.76,-558.15 1015.13,-562.56 1019.98,-567.6"/>
</g>
<!-- cs2470 -->
<g id="node7" class="node">
<title>cs2470</title>
<ellipse fill="none" stroke="black" cx="510.32" cy="-531.83" rx="178.38" ry="26.74"/>
<text text-anchor="middle" x="510.32" y="-535.63" font-family="Times,serif" font-size="14.00">CS 2470</text>
<text text-anchor="middle" x="510.32" y="-520.63" font-family="Times,serif" font-size="14.00">Systems Programming in C/C++</text>
</g>
<!-- cs2370&#45;&gt;cs2470 -->
<g id="edge8" class="edge">
<title>cs2370&#45;&gt;cs2470</title>
<path fill="none" stroke="black" d="M763.52,-647.95C742.52,-639.65 718.76,-630 697.32,-620.7 654.4,-602.07 606.66,-579.61 570.17,-562.06"/>
<polygon fill="black" stroke="black" points="571.67,-558.9 561.14,-557.71 568.63,-565.21 571.67,-558.9"/>
</g>
<!-- cs3600 -->
<g id="node9" class="node">
<title>cs3600</title>
<ellipse fill="none" stroke="black" cx="255.32" cy="-431.09" rx="64.19" ry="26.74"/>
<text text-anchor="middle" x="255.32" y="-434.89" font-family="Times,serif" font-size="14.00">CS 3600</text>
<text text-anchor="middle" x="255.32" y="-419.89" font-family="Times,serif" font-size="14.00">Databases</text>
</g>
<!-- cs2370&#45;&gt;cs3600 -->
<g id="edge9" class="edge">
<title>cs2370&#45;&gt;cs3600</title>
<path fill="none" stroke="black" d="M701.25,-667.27C484.59,-660.77 50.97,-644.82 28.32,-620.7 -9.33,-580.61 -9.54,-536.85 28.32,-496.96 40.04,-484.61 165.35,-494.86 181.32,-488.96 196.78,-483.25 211.64,-473.1 223.93,-462.94"/>
<polygon fill="black" stroke="black" points="226.34,-465.49 231.62,-456.31 221.76,-460.19 226.34,-465.49"/>
</g>
<!-- cs4760 -->
<g id="node18" class="node">
<title>cs4760</title>
<ellipse fill="none" stroke="black" cx="1133.32" cy="-50.87" rx="84.29" ry="26.74"/>
<text text-anchor="middle" x="1133.32" y="-54.67" font-family="Times,serif" font-size="14.00">CS 4760</text>
<text text-anchor="middle" x="1133.32" y="-39.67" font-family="Times,serif" font-size="14.00">Senior Project</text>
</g>
<!-- ma2560&#45;&gt;cs4760 -->
<g id="edge26" class="edge">
<title>ma2560&#45;&gt;cs4760</title>
<path fill="none" stroke="black" d="M1072.8,-660.61C1215.04,-632.11 1597.32,-545.02 1597.32,-432.09 1597.32,-432.09 1597.32,-432.09 1597.32,-290.35 1597.32,-212.86 1637.98,-169.6 1581.32,-116.74 1566.9,-103.28 1245.25,-114.3 1226.32,-108.74 1207.17,-103.12 1188.01,-92.47 1172.11,-81.9"/>
<polygon fill="black" stroke="black" points="1173.85,-78.85 1163.63,-76.07 1169.88,-84.62 1173.85,-78.85"/>
</g>
<!-- cs2220&#45;&gt;cs3600 -->
<!-- cs4250 -->
<g id="node16" class="node">
<title>cs4250</title>
<ellipse fill="none" stroke="black" cx="1440.32" cy="-159.61" rx="128.89" ry="26.74"/>
<text text-anchor="middle" x="1440.32" y="-163.41" font-family="Times,serif" font-size="14.00">CS 4250</text>
<text text-anchor="middle" x="1440.32" y="-148.41" font-family="Times,serif" font-size="14.00">Computer Architecture</text>
</g>
<!-- cs2220&#45;&gt;cs4250 -->
<g id="edge10" class="edge">
<title>cs2220&#45;&gt;cs4250</title>
<path fill="none" stroke="black" d="M855.17,-505.9C940.88,-441.05 1167.49,-271.09 1207.32,-256.48 1247.1,-241.89 1262.18,-262.03 1302.32,-248.48 1338.99,-236.1 1375.72,-212.01 1402.06,-192.18"/>
<polygon fill="black" stroke="black" points="1404.42,-194.77 1410.23,-185.91 1400.16,-189.22 1404.42,-194.77"/>
</g>
<!-- cs2220&#45;&gt;cs4760 -->
<g id="edge21" class="edge">
<title>cs2220&#45;&gt;cs4760</title>
<path fill="none" stroke="black" d="M757.71,-509.43C654.9,-474.75 463.73,-407.39 445.32,-380.22 412.49,-331.74 405.91,-160.04 445.32,-116.74 484.53,-73.66 860.29,-58.61 1039.33,-53.85"/>
<polygon fill="black" stroke="black" points="1039.63,-57.35 1049.53,-53.59 1039.45,-50.35 1039.63,-57.35"/>
</g>
<!-- cs2381&#45;&gt;cs3600 -->
<g id="edge12" class="edge">
<title>cs2381&#45;&gt;cs3600</title>
<path fill="none" stroke="black" d="M994.63,-510.14C979.5,-505.11 962.93,-500.24 947.32,-496.96 725.71,-450.41 457.13,-437.25 329.54,-433.54"/>
<polygon fill="black" stroke="black" points="329.59,-430.04 319.49,-433.26 329.39,-437.04 329.59,-430.04"/>
</g>
<!-- cs3221 -->
<g id="node11" class="node">
<title>cs3221</title>
<ellipse fill="none" stroke="black" cx="564.32" cy="-291.35" rx="107.46" ry="26.74"/>
<text text-anchor="middle" x="564.32" y="-295.15" font-family="Times,serif" font-size="14.00">CS 3221</text>
<text text-anchor="middle" x="564.32" y="-280.15" font-family="Times,serif" font-size="14.00">Algorithm Analysis</text>
</g>
<!-- cs2381&#45;&gt;cs3221 -->
<g id="edge11" class="edge">
<title>cs2381&#45;&gt;cs3221</title>
<path fill="none" stroke="black" d="M993.83,-510.22C905.24,-476.97 736.16,-412.03 680.32,-380.22 651.97,-364.07 622.71,-341.85 600.66,-323.8"/>
<polygon fill="black" stroke="black" points="602.82,-321.04 592.88,-317.36 598.35,-326.43 602.82,-321.04"/>
</g>
<!-- cs3720 -->
<g id="node12" class="node">
<title>cs3720</title>
<ellipse fill="none" stroke="black" cx="849.32" cy="-291.35" rx="159.61" ry="26.74"/>
<text text-anchor="middle" x="849.32" y="-295.15" font-family="Times,serif" font-size="14.00">CS 3720</text>
<text text-anchor="middle" x="849.32" y="-280.15" font-family="Times,serif" font-size="14.00">Systems Analysis and Design</text>
</g>
<!-- cs2381&#45;&gt;cs3720 -->
<g id="edge13" class="edge">
<title>cs2381&#45;&gt;cs3720</title>
<path fill="none" stroke="black" d="M1060.89,-505.11C1072.68,-474.66 1086.25,-423.61 1063.32,-388.22 1039.96,-352.16 999.49,-329.54 959.99,-315.4"/>
<polygon fill="black" stroke="black" points="961.11,-312.09 950.52,-312.16 958.85,-318.71 961.11,-312.09"/>
</g>
<!-- cs2381&#45;&gt;cs4250 -->
<g id="edge14" class="edge">
<title>cs2381&#45;&gt;cs4250</title>
<path fill="none" stroke="black" d="M1075.58,-505.96C1144.2,-440.99 1328.85,-266.16 1405.86,-193.24"/>
<polygon fill="black" stroke="black" points="1408.55,-195.52 1413.4,-186.1 1403.73,-190.43 1408.55,-195.52"/>
</g>
<!-- cs2470&#45;&gt;cs4760 -->
<g id="edge23" class="edge">
<title>cs2470&#45;&gt;cs4760</title>
<path fill="none" stroke="black" d="M466.68,-505.53C460.59,-500.62 454.88,-495.07 450.32,-488.96 350.96,-355.68 301.17,-239.46 413.32,-116.74 454.76,-71.4 853.89,-57.47 1039.4,-53.42"/>
<polygon fill="black" stroke="black" points="1039.5,-56.92 1049.42,-53.21 1039.35,-49.92 1039.5,-56.92"/>
</g>
<!-- ma2450 -->
<g id="node8" class="node">
<title>ma2450</title>
<ellipse fill="none" stroke="black" cx="177.32" cy="-531.83" rx="137.36" ry="26.74"/>
<text text-anchor="middle" x="177.32" y="-535.63" font-family="Times,serif" font-size="14.00">MA 2450</text>
<text text-anchor="middle" x="177.32" y="-520.63" font-family="Times,serif" font-size="14.00">Mathematical Reasoning</text>
</g>
<!-- ma2450&#45;&gt;cs3600 -->
<g id="edge16" class="edge">
<title>ma2450&#45;&gt;cs3600</title>
<path fill="none" stroke="black" d="M197.61,-505.15C207.33,-492.84 219.08,-477.97 229.44,-464.86"/>
<polygon fill="black" stroke="black" points="232.22,-466.98 235.67,-456.96 226.73,-462.64 232.22,-466.98"/>
</g>
<!-- ma2450&#45;&gt;cs3221 -->
<g id="edge15" class="edge">
<title>ma2450&#45;&gt;cs3221</title>
<path fill="none" stroke="black" d="M271.41,-512.23C291.81,-506.31 312.8,-498.68 331.32,-488.96 413.78,-445.7 492.95,-369.04 534.4,-325.32"/>
<polygon fill="black" stroke="black" points="537.16,-327.5 541.46,-317.81 532.06,-322.71 537.16,-327.5"/>
</g>
<!-- cs3600&#45;&gt;cs3720 -->
<g id="edge18" class="edge">
<title>cs3600&#45;&gt;cs3720</title>
<path fill="none" stroke="black" d="M319.81,-429.71C404.39,-427.61 556.58,-418.25 680.32,-380.22 723.66,-366.9 769.06,-342.64 801.87,-322.99"/>
<polygon fill="black" stroke="black" points="804.05,-325.76 810.78,-317.58 800.42,-319.77 804.05,-325.76"/>
</g>
<!-- ma2300 -->
<g id="node10" class="node">
<title>ma2300</title>
<ellipse fill="none" stroke="black" cx="106.32" cy="-431.09" rx="66.44" ry="26.74"/>
<text text-anchor="middle" x="106.32" y="-434.89" font-family="Times,serif" font-size="14.00">MA 2300</text>
<text text-anchor="middle" x="106.32" y="-419.89" font-family="Times,serif" font-size="14.00">Statistics I</text>
</g>
<!-- ma2300&#45;&gt;cs4760 -->
<g id="edge25" class="edge">
<title>ma2300&#45;&gt;cs4760</title>
<path fill="none" stroke="black" d="M118.93,-404.36C151.04,-342.04 242.51,-183.29 371.32,-116.74 485.3,-57.86 861.42,-50.91 1038.96,-51.04"/>
<polygon fill="black" stroke="black" points="1039.06,-54.54 1049.07,-51.05 1039.08,-47.54 1039.06,-54.54"/>
</g>
<!-- cs3780 -->
<g id="node13" class="node">
<title>cs3780</title>
<ellipse fill="none" stroke="black" cx="744.32" cy="-159.61" rx="124.4" ry="26.74"/>
<text text-anchor="middle" x="744.32" y="-163.41" font-family="Times,serif" font-size="14.00">CS 3780</text>
<text text-anchor="middle" x="744.32" y="-148.41" font-family="Times,serif" font-size="14.00">Computational Theory</text>
</g>
<!-- cs3221&#45;&gt;cs3780 -->
<!-- cs3221&#45;&gt;cs3780 -->
<g id="edge17" class="edge">
<title>cs3221&#45;&gt;cs3780</title>
<path fill="none" stroke="black" d="M603.14,-266.25C633.77,-245.35 676.1,-214.96 706.47,-192.13"/>
<polygon fill="black" stroke="black" points="708.84,-194.73 714.7,-185.91 704.61,-189.15 708.84,-194.73"/>
</g>
<!-- cs4140 -->
<g id="node15" class="node">
<title>cs4140</title>
<ellipse fill="none" stroke="black" cx="1171.32" cy="-159.61" rx="122.16" ry="26.74"/>
<text text-anchor="middle" x="1171.32" y="-163.41" font-family="Times,serif" font-size="14.00">CS 4140</text>
<text text-anchor="middle" x="1171.32" y="-148.41" font-family="Times,serif" font-size="14.00">Software Engineering</text>
</g>
<!-- cs3720&#45;&gt;cs4140 -->
<g id="edge19" class="edge">
<title>cs3720&#45;&gt;cs4140</title>
<path fill="none" stroke="black" d="M920.6,-267.27C937.65,-261.42 955.72,-254.96 972.32,-248.48 1019.88,-229.93 1072.69,-206.47 1111.95,-188.46"/>
<polygon fill="black" stroke="black" points="1113.5,-191.6 1121.12,-184.24 1110.58,-185.24 1113.5,-191.6"/>
</g>
<!-- cs3720&#45;&gt;cs4760 -->
<g id="edge22" class="edge">
<title>cs3720&#45;&gt;cs4760</title>
<path fill="none" stroke="black" d="M874.67,-264.61C909.78,-229.51 975.86,-165.43 1037.32,-116.74 1053.02,-104.3 1071.03,-91.73 1087.18,-81.01"/>
<polygon fill="black" stroke="black" points="1089.5,-83.67 1095.93,-75.25 1085.65,-77.82 1089.5,-83.67"/>
</g>
<!-- cs3780&#45;&gt;cs4760 -->
<g id="edge24" class="edge">
<title>cs3780&#45;&gt;cs4760</title>
<path fill="none" stroke="black" d="M819.33,-138.03C889.08,-118.89 992.32,-90.56 1061.15,-71.67"/>
<polygon fill="black" stroke="black" points="1062.33,-74.98 1071.05,-68.96 1060.48,-68.23 1062.33,-74.98"/>
</g>
<!-- cs4520 -->
<g id="node14" class="node">
<title>cs4520</title>
<ellipse fill="none" stroke="black" cx="529.32" cy="-159.61" rx="72.25" ry="26.74"/>
<text text-anchor="middle" x="529.32" y="-163.41" font-family="Times,serif" font-size="14.00">CS 4520</text>
<text text-anchor="middle" x="529.32" y="-148.41" font-family="Times,serif" font-size="14.00">Cyberethics</text>
</g>
<!-- cs4310 -->
<g id="node17" class="node">
<title>cs4310</title>
<ellipse fill="none" stroke="black" cx="1344.32" cy="-50.87" rx="108.79" ry="26.74"/>
<text text-anchor="middle" x="1344.32" y="-54.67" font-family="Times,serif" font-size="14.00">CS 4310</text>
<text text-anchor="middle" x="1344.32" y="-39.67" font-family="Times,serif" font-size="14.00">Operating Systems</text>
</g>
<!-- cs4140&#45;&gt;cs4310 -->
<!-- cs4250&#45;&gt;cs4310 -->
<g id="edge20" class="edge">
<title>cs4250&#45;&gt;cs4310</title>
<path fill="none" stroke="black" d="M1417.33,-133.04C1404.38,-118.65 1388.08,-100.52 1374.16,-85.04"/>
<polygon fill="black" stroke="black" points="1376.42,-82.32 1367.13,-77.23 1371.21,-87 1376.42,-82.32"/>
</g>
</g>
</svg>
