<?xml version="1.0" encoding="UTF-8" standalone="no"?>
<!DOCTYPE svg PUBLIC "-//W3C//DTD SVG 1.1//EN"
 "http://www.w3.org/Graphics/SVG/1.1/DTD/svg11.dtd">
<!-- Generated by graphviz version 2.43.0 (0)
 -->
<!-- Title: %3 Pages: 1 -->
<svg width="1577pt" height="776pt"
 viewBox="0.00 0.00 1576.69 776.44" xmlns="http://www.w3.org/2000/svg" xmlns:xlink="http://www.w3.org/1999/xlink">
<g id="graph0" class="graph" transform="scale(1 1) rotate(0) translate(4 772.44)">
<title>%3</title>
<polygon fill="white" stroke="transparent" points="-4,4 -4,-772.44 1572.69,-772.44 1572.69,4 -4,4"/>
<g id="clust1" class="cluster">
<title>cluster_year1</title>
<polygon fill="lightgrey" stroke="lightgrey" points="936.69,-496.96 936.69,-760.44 1560.69,-760.44 1560.69,-496.96 936.69,-496.96"/>
<text text-anchor="middle" x="1248.69" y="-745.24" font-family="Times,serif" font-size="14.00">Year 1</text>
</g>
<g id="clust2" class="cluster">
<title>cluster_fall1</title>
<polygon fill="white" stroke="white" points="944.69,-636.7 944.69,-729.44 1532.69,-729.44 1532.69,-636.7 944.69,-636.7"/>
<text text-anchor="middle" x="1238.69" y="-714.24" font-family="Times,serif" font-size="14.00">Year 1 Fall</text>
</g>
<g id="clust3" class="cluster">
<title>cluster_spring1</title>
<polygon fill="white" stroke="white" points="944.69,-504.96 944.69,-597.7 1552.69,-597.7 1552.69,-504.96 944.69,-504.96"/>
<text text-anchor="middle" x="1248.69" y="-582.5" font-family="Times,serif" font-size="14.00">Year 1 Spring</text>
</g>
<g id="clust4" class="cluster">
<title>cluster_year2</title>
<polygon fill="lightgrey" stroke="lightgrey" points="54.69,-388.22 54.69,-628.7 928.69,-628.7 928.69,-388.22 54.69,-388.22"/>
<text text-anchor="middle" x="491.69" y="-613.5" font-family="Times,serif" font-size="14.00">Year 2</text>
</g>
<g id="clust5" class="cluster">
<title>cluster_fall2</title>
<polygon fill="white" stroke="white" points="62.69,-504.96 62.69,-597.7 920.69,-597.7 920.69,-504.96 62.69,-504.96"/>
<text text-anchor="middle" x="491.69" y="-582.5" font-family="Times,serif" font-size="14.00">Year 2 Fall</text>
</g>
<g id="clust6" class="cluster">
<title>cluster_spring2</title>
<polygon fill="white" stroke="white" points="200.69,-396.22 200.69,-488.96 920.69,-488.96 920.69,-396.22 200.69,-396.22"/>
<text text-anchor="middle" x="560.69" y="-473.76" font-family="Times,serif" font-size="14.00">Year 2 Spring</text>
</g>
<g id="clust7" class="cluster">
<title>cluster_year3</title>
<polygon fill="lightgrey" stroke="lightgrey" points="230.69,-116.74 230.69,-380.22 993.69,-380.22 993.69,-116.74 230.69,-116.74"/>
<text text-anchor="middle" x="612.19" y="-365.02" font-family="Times,serif" font-size="14.00">Year 3</text>
</g>
<g id="clust8" class="cluster">
<title>cluster_fall3</title>
<polygon fill="white" stroke="white" points="238.69,-256.48 238.69,-349.22 985.69,-349.22 985.69,-256.48 238.69,-256.48"/>
<text text-anchor="middle" x="612.19" y="-334.02" font-family="Times,serif" font-size="14.00">Year 3 Fall</text>
</g>
<g id="clust9" class="cluster">
<title>cluster_spring3</title>
<polygon fill="white" stroke="white" points="238.69,-124.74 238.69,-217.48 748.69,-217.48 748.69,-124.74 238.69,-124.74"/>
<text text-anchor="middle" x="493.69" y="-202.28" font-family="Times,serif" font-size="14.00">Year 3 Spring</text>
</g>
<g id="clust10" class="cluster">
<title>cluster_year4</title>
<polygon fill="lightgrey" stroke="lightgrey" points="1001.69,-8 1001.69,-248.48 1439.69,-248.48 1439.69,-8 1001.69,-8"/>
<text text-anchor="middle" x="1220.69" y="-233.28" font-family="Times,serif" font-size="14.00">Year 4</text>
</g>
<g id="clust11" class="cluster">
<title>cluster_fall4</title>
<polygon fill="white" stroke="white" points="1009.69,-124.74 1009.69,-217.48 1431.69,-217.48 1431.69,-124.74 1009.69,-124.74"/>
<text text-anchor="middle" x="1220.69" y="-202.28" font-family="Times,serif" font-size="14.00">Year 4 Fall</text>
</g>
<g id="clust12" class="cluster">
<title>cluster_spring4</title>
<polygon fill="white" stroke="white" points="1009.69,-16 1009.69,-108.74 1193.69,-108.74 1193.69,-16 1009.69,-16"/>
<text text-anchor="middle" x="1101.69" y="-93.54" font-family="Times,serif" font-size="14.00">Year 4 Spring</text>
</g>
<!-- cs2010 -->
<g id="node1" class="node">
<title>cs2010</title>
<ellipse fill="none" stroke="black" cx="1440.69" cy="-671.57" rx="84.29" ry="26.74"/>
<text text-anchor="middle" x="1440.69" y="-675.37" font-family="Times,serif" font-size="14.00">CS 2010</text>
<text text-anchor="middle" x="1440.69" y="-660.37" font-family="Times,serif" font-size="14.00">Fundamentals</text>
</g>
<!-- cs2381 -->
<g id="node4" class="node">
<title>cs2381</title>
<ellipse fill="none" stroke="black" cx="1394.69" cy="-539.83" rx="149.81" ry="26.74"/>
<text text-anchor="middle" x="1394.69" y="-543.63" font-family="Times,serif" font-size="14.00">CS 2381</text>
<text text-anchor="middle" x="1394.69" y="-528.63" font-family="Times,serif" font-size="14.00">Intermediate Programming</text>
</g>
<!-- cs2010&#45;&gt;cs2381 -->
<g id="edge1" class="edge">
<title>cs2010&#45;&gt;cs2381</title>
<path fill="none" stroke="black" d="M1431.49,-644.63C1424.53,-625 1414.9,-597.84 1407.23,-576.22"/>
<polygon fill="black" stroke="black" points="1410.51,-574.98 1403.87,-566.73 1403.91,-577.32 1410.51,-574.98"/>
</g>
<!-- cs2370 -->
<g id="node2" class="node">
<title>cs2370</title>
<ellipse fill="none" stroke="black" cx="1216.69" cy="-671.57" rx="122.16" ry="26.74"/>
<text text-anchor="middle" x="1216.69" y="-675.37" font-family="Times,serif" font-size="14.00">CS 2370</text>
<text text-anchor="middle" x="1216.69" y="-660.37" font-family="Times,serif" font-size="14.00">Intro to Programming</text>
</g>
<!-- cs2370&#45;&gt;cs2381 -->
<g id="edge2" class="edge">
<title>cs2370&#45;&gt;cs2381</title>
<path fill="none" stroke="black" d="M1245.95,-645.25C1273.27,-624.19 1314.36,-594.16 1346.49,-571.7"/>
<polygon fill="black" stroke="black" points="1348.66,-574.45 1354.87,-565.87 1344.66,-568.7 1348.66,-574.45"/>
</g>
<!-- cs2370&#45;&gt;cs2381 -->
<!-- cs2220 -->
<g id="node6" class="node">
<title>cs2220</title>
<ellipse fill="none" stroke="black" cx="422.69" cy="-539.83" rx="115.93" ry="26.74"/>
<text text-anchor="middle" x="422.69" y="-543.63" font-family="Times,serif" font-size="14.00">CS 2220</text>
<text text-anchor="middle" x="422.69" y="-528.63" font-family="Times,serif" font-size="14.00">Computer Hardware</text>
</g>
<!-- cs2370&#45;&gt;cs2220 -->
<g id="edge7" class="edge">
<title>cs2370&#45;&gt;cs2220</title>
<path fill="none" stroke="black" d="M1147.27,-649.35C1127.56,-644.22 1105.94,-639.43 1085.69,-636.7 1056.06,-632.71 576.12,-637.93 547.69,-628.7 513.23,-617.52 479.96,-593.26 456.42,-573.06"/>
<polygon fill="black" stroke="black" points="458.65,-570.36 448.82,-566.39 454.03,-575.62 458.65,-570.36"/>
</g>
<!-- cs2470 -->
<g id="node7" class="node">
<title>cs2470</title>
<ellipse fill="none" stroke="black" cx="734.69" cy="-539.83" rx="178.38" ry="26.74"/>
<text text-anchor="middle" x="734.69" y="-543.63" font-family="Times,serif" font-size="14.00">CS 2470</text>
<text text-anchor="middle" x="734.69" y="-528.63" font-family="Times,serif" font-size="14.00">Systems Programming in C/C++</text>
</g>
<!-- cs2370&#45;&gt;cs2470 -->
<g id="edge8" class="edge">
<title>cs2370&#45;&gt;cs2470</title>
<path fill="none" stroke="black" d="M1146.17,-649.61C1126.73,-644.58 1105.53,-639.78 1085.69,-636.7 1021.91,-626.8 1003.54,-643.36 940.69,-628.7 887.29,-616.25 830.21,-590.85 789.71,-570.55"/>
<polygon fill="black" stroke="black" points="791.06,-567.31 780.56,-565.91 787.89,-573.55 791.06,-567.31"/>
</g>
<!-- ma2550 -->
<g id="node3" class="node">
<title>ma2550</title>
<ellipse fill="none" stroke="black" cx="1014.69" cy="-671.57" rx="61.54" ry="26.74"/>
<text text-anchor="middle" x="1014.69" y="-675.37" font-family="Times,serif" font-size="14.00">MA 2550</text>
<text text-anchor="middle" x="1014.69" y="-660.37" font-family="Times,serif" font-size="14.00">Calculus I</text>
</g>
<!-- ma3500 -->
<g id="node8" class="node">
<title>ma3500</title>
<ellipse fill="none" stroke="black" cx="179.69" cy="-539.83" rx="108.79" ry="26.74"/>
<text text-anchor="middle" x="179.69" y="-543.63" font-family="Times,serif" font-size="14.00">MA 3500</text>
<text text-anchor="middle" x="179.69" y="-528.63" font-family="Times,serif" font-size="14.00">Stats for Scientists</text>
</g>
<!-- ma2550&#45;&gt;ma3500 -->
<g id="edge25" class="edge">
<title>ma2550&#45;&gt;ma3500</title>
<path fill="none" stroke="black" d="M953.19,-669C790.73,-664.56 358.39,-650.81 297.69,-628.7 265.27,-616.9 234.21,-593.09 212.1,-573.23"/>
<polygon fill="black" stroke="black" points="214.39,-570.58 204.66,-566.39 209.66,-575.74 214.39,-570.58"/>
</g>
<!-- cs3221 -->
<g id="node9" class="node">
<title>cs3221</title>
<ellipse fill="none" stroke="black" cx="412.69" cy="-431.09" rx="203.79" ry="26.74"/>
<text text-anchor="middle" x="412.69" y="-434.89" font-family="Times,serif" font-size="14.00">CS 3221</text>
<text text-anchor="middle" x="412.69" y="-419.89" font-family="Times,serif" font-size="14.00">Data Structures &amp; Algorithm Analysis</text>
</g>
<!-- cs2381&#45;&gt;cs3221 -->
<g id="edge9" class="edge">
<title>cs2381&#45;&gt;cs3221</title>
<path fill="none" stroke="black" d="M1323.41,-516.09C1296.25,-508.48 1264.82,-500.93 1235.69,-496.96 1101.36,-478.67 759.98,-507.48 625.69,-488.96 581.82,-482.91 534.1,-470.72 494.97,-459.16"/>
<polygon fill="black" stroke="black" points="495.79,-455.76 485.21,-456.24 493.79,-462.46 495.79,-455.76"/>
</g>
<!-- cs34xx -->
<g id="node10" class="node">
<title>cs34xx</title>
<ellipse fill="none" stroke="black" cx="773.69" cy="-431.09" rx="139.1" ry="26.74"/>
<text text-anchor="middle" x="773.69" y="-434.89" font-family="Times,serif" font-size="14.00">CS 34xx</text>
<text text-anchor="middle" x="773.69" y="-419.89" font-family="Times,serif" font-size="14.00">Programming Languages</text>
</g>
<!-- cs2381&#45;&gt;cs34xx -->
<g id="edge10" class="edge">
<title>cs2381&#45;&gt;cs34xx</title>
<path fill="none" stroke="black" d="M1322.98,-516.19C1295.91,-508.64 1264.65,-501.1 1235.69,-496.96 1169.01,-487.43 998.89,-501.35 932.69,-488.96 900.06,-482.86 865.2,-471.03 836.46,-459.74"/>
<polygon fill="black" stroke="black" points="837.54,-456.4 826.96,-455.94 834.94,-462.9 837.54,-456.4"/>
</g>
<!-- cs3720 -->
<g id="node12" class="node">
<title>cs3720</title>
<ellipse fill="none" stroke="black" cx="672.69" cy="-291.35" rx="159.61" ry="26.74"/>
<text text-anchor="middle" x="672.69" y="-295.15" font-family="Times,serif" font-size="14.00">CS 3720</text>
<text text-anchor="middle" x="672.69" y="-280.15" font-family="Times,serif" font-size="14.00">Systems Analysis and Design</text>
</g>
<!-- cs2381&#45;&gt;cs3720 -->
<g id="edge11" class="edge">
<title>cs2381&#45;&gt;cs3720</title>
<path fill="none" stroke="black" d="M1340.52,-514.73C1259.66,-479.99 1101.77,-416.86 960.69,-388.22 908.3,-377.59 892.14,-394.7 840.69,-380.22 796.81,-367.88 751.24,-343.17 718.65,-323.1"/>
<polygon fill="black" stroke="black" points="720.15,-319.91 709.82,-317.57 716.44,-325.84 720.15,-319.91"/>
</g>
<!-- cs4250 -->
<g id="node14" class="node">
<title>cs4250</title>
<ellipse fill="lightblue" stroke="black" cx="611.69" cy="-159.61" rx="128.89" ry="26.74"/>
<text text-anchor="middle" x="611.69" y="-163.41" font-family="Times,serif" font-size="14.00">CS 4250</text>
<text text-anchor="middle" x="611.69" y="-148.41" font-family="Times,serif" font-size="14.00">Computer Architecture</text>
</g>
<!-- cs2381&#45;&gt;cs4250 -->
<g id="edge12" class="edge">
<title>cs2381&#45;&gt;cs4250</title>
<path fill="none" stroke="black" d="M1322.98,-516.23C1295.9,-508.68 1264.64,-501.14 1235.69,-496.96 1220.56,-494.78 973.05,-497.94 960.69,-488.96 922.22,-461.01 963.39,-415.83 924.69,-388.22 909.08,-377.09 248.16,-393.85 234.69,-380.22 196.02,-341.11 196.45,-296.01 234.69,-256.48 243.92,-246.93 460.99,-252.41 473.69,-248.48 511.02,-236.92 548.09,-212.4 574.4,-192.19"/>
<polygon fill="black" stroke="black" points="576.83,-194.73 582.54,-185.8 572.51,-189.22 576.83,-194.73"/>
</g>
<!-- ma2450 -->
<g id="node5" class="node">
<title>ma2450</title>
<ellipse fill="none" stroke="black" cx="1089.69" cy="-539.83" rx="137.36" ry="26.74"/>
<text text-anchor="middle" x="1089.69" y="-543.63" font-family="Times,serif" font-size="14.00">MA 2450</text>
<text text-anchor="middle" x="1089.69" y="-528.63" font-family="Times,serif" font-size="14.00">Mathematical Reasoning</text>
</g>
<!-- ma2450&#45;&gt;cs3221 -->
<g id="edge13" class="edge">
<title>ma2450&#45;&gt;cs3221</title>
<path fill="none" stroke="black" d="M1017.68,-516.87C989.02,-509.1 955.57,-501.24 924.69,-496.96 793.01,-478.72 757.25,-508.01 625.69,-488.96 582.21,-482.66 534.9,-470.58 495.94,-459.17"/>
<polygon fill="black" stroke="black" points="496.8,-455.77 486.22,-456.28 494.81,-462.48 496.8,-455.77"/>
</g>
<!-- cs2220&#45;&gt;cs4250 -->
<g id="edge27" class="edge">
<title>cs2220&#45;&gt;cs4250</title>
<path fill="none" stroke="black" d="M365.3,-516.34C344.33,-509 320.22,-501.56 297.69,-496.96 286.65,-494.71 204.32,-497.23 196.69,-488.96 179.78,-470.66 195.91,-264.99 204.69,-256.48 215.42,-246.07 459.39,-252.88 473.69,-248.48 511.04,-236.99 548.11,-212.46 574.41,-192.24"/>
<polygon fill="black" stroke="black" points="576.85,-194.77 582.56,-185.84 572.53,-189.26 576.85,-194.77"/>
</g>
<!-- cs4760 -->
<g id="node18" class="node">
<title>cs4760</title>
<ellipse fill="lightblue" stroke="black" cx="1101.69" cy="-50.87" rx="84.29" ry="26.74"/>
<text text-anchor="middle" x="1101.69" y="-54.67" font-family="Times,serif" font-size="14.00">CS 4760</text>
<text text-anchor="middle" x="1101.69" y="-39.67" font-family="Times,serif" font-size="14.00">Senior Project</text>
</g>
<!-- cs2220&#45;&gt;cs4760 -->
<g id="edge17" class="edge">
<title>cs2220&#45;&gt;cs4760</title>
<path fill="none" stroke="black" d="M366.32,-516.24C345.14,-508.74 320.64,-501.23 297.69,-496.96 278.11,-493.32 133.03,-502.77 118.69,-488.96 59.08,-431.57 67.41,-173.42 127.69,-116.74 190.83,-57.37 775.1,-51.46 1007.24,-51.48"/>
<polygon fill="black" stroke="black" points="1007.36,-54.98 1017.36,-51.49 1007.36,-47.98 1007.36,-54.98"/>
</g>
<!-- cs2470&#45;&gt;cs3221 -->
<!-- cs2470&#45;&gt;cs34xx -->
<g id="edge20" class="edge">
<title>cs2470&#45;&gt;cs34xx</title>
<path fill="none" stroke="black" d="M744.13,-512.99C749.12,-499.33 755.32,-482.34 760.76,-467.47"/>
<polygon fill="black" stroke="black" points="764.05,-468.66 764.2,-458.06 757.48,-466.25 764.05,-468.66"/>
</g>
<!-- cs4310 -->
<g id="node15" class="node">
<title>cs4310</title>
<ellipse fill="none" stroke="black" cx="355.69" cy="-159.61" rx="108.79" ry="26.74"/>
<text text-anchor="middle" x="355.69" y="-163.41" font-family="Times,serif" font-size="14.00">CS 4310</text>
<text text-anchor="middle" x="355.69" y="-148.41" font-family="Times,serif" font-size="14.00">Operating Systems</text>
</g>
<!-- cs2470&#45;&gt;cs4310 -->
<g id="edge26" class="edge">
<title>cs2470&#45;&gt;cs4310</title>
<path fill="none" stroke="black" d="M649.66,-516.07C617.9,-508.56 581.37,-501.07 547.69,-496.96 538,-495.78 203.5,-495.93 196.69,-488.96 181.2,-473.11 197.77,-268.2 204.69,-256.48 223.2,-225.09 256.47,-202.33 287.08,-186.89"/>
<polygon fill="black" stroke="black" points="289.01,-189.84 296.48,-182.33 285.95,-183.55 289.01,-189.84"/>
</g>
<!-- cs2470&#45;&gt;cs4760 -->
<g id="edge19" class="edge">
<title>cs2470&#45;&gt;cs4760</title>
<path fill="none" stroke="black" d="M650.13,-516.17C618.26,-508.62 581.54,-501.08 547.69,-496.96 537.7,-495.74 192.72,-496.15 185.69,-488.96 69.01,-369.68 102.92,-219.11 234.69,-116.74 294.61,-70.19 795.31,-56.74 1007.38,-53.12"/>
<polygon fill="black" stroke="black" points="1007.62,-56.61 1017.56,-52.95 1007.5,-49.62 1007.62,-56.61"/>
</g>
<!-- ma3500&#45;&gt;cs4760 -->
<g id="edge24" class="edge">
<title>ma3500&#45;&gt;cs4760</title>
<path fill="none" stroke="black" d="M112.21,-518.59C98.64,-511.39 86.01,-501.77 77.69,-488.96 -12.48,-350.26 -37.25,-235.73 77.69,-116.74 109.75,-83.55 761.04,-61.58 1007.92,-54.42"/>
<polygon fill="black" stroke="black" points="1008.06,-57.92 1017.95,-54.13 1007.86,-50.92 1008.06,-57.92"/>
</g>
<!-- cs3500 -->
<g id="node11" class="node">
<title>cs3500</title>
<ellipse fill="none" stroke="black" cx="913.69" cy="-291.35" rx="63.78" ry="26.74"/>
<text text-anchor="middle" x="913.69" y="-295.15" font-family="Times,serif" font-size="14.00">CS 3500</text>
<text text-anchor="middle" x="913.69" y="-280.15" font-family="Times,serif" font-size="14.00">Intro to AI</text>
</g>
<!-- cs3221&#45;&gt;cs3500 -->
<g id="edge14" class="edge">
<title>cs3221&#45;&gt;cs3500</title>
<path fill="none" stroke="black" d="M510.53,-407.51C546.54,-400.09 587.78,-392.62 625.69,-388.22 649.54,-385.45 820.17,-390.9 841.69,-380.22 864.82,-368.74 883.12,-346.01 895.49,-326.55"/>
<polygon fill="black" stroke="black" points="898.55,-328.25 900.75,-317.89 892.57,-324.62 898.55,-328.25"/>
</g>
<!-- cs3780 -->
<g id="node13" class="node">
<title>cs3780</title>
<ellipse fill="lightblue" stroke="black" cx="370.69" cy="-291.35" rx="124.4" ry="26.74"/>
<text text-anchor="middle" x="370.69" y="-295.15" font-family="Times,serif" font-size="14.00">CS 3780</text>
<text text-anchor="middle" x="370.69" y="-280.15" font-family="Times,serif" font-size="14.00">Computational Theory</text>
</g>
<!-- cs3221&#45;&gt;cs3780 -->
<g id="edge15" class="edge">
<title>cs3221&#45;&gt;cs3780</title>
<path fill="none" stroke="black" d="M404.79,-404.18C398.26,-382.77 388.92,-352.14 381.66,-328.34"/>
<polygon fill="black" stroke="black" points="384.96,-327.15 378.69,-318.61 378.26,-329.2 384.96,-327.15"/>
</g>
<!-- cs34xx&#45;&gt;cs4760 -->
<g id="edge21" class="edge">
<title>cs34xx&#45;&gt;cs4760</title>
<path fill="none" stroke="black" d="M891.09,-416.51C1069.33,-393.19 1394.82,-339.09 1463.69,-248.48 1499.11,-201.86 1501.26,-161.65 1463.69,-116.74 1430.05,-76.54 1290.65,-61.22 1194.99,-55.4"/>
<polygon fill="black" stroke="black" points="1195.19,-51.91 1185.01,-54.82 1194.78,-58.9 1195.19,-51.91"/>
</g>
<!-- cs3500&#45;&gt;cs4760 -->
<g id="edge22" class="edge">
<title>cs3500&#45;&gt;cs4760</title>
<path fill="none" stroke="black" d="M977.48,-289.97C1109.96,-288.5 1405.18,-281.53 1435.69,-248.48 1475.4,-205.46 1472.93,-161.92 1435.69,-116.74 1405.61,-80.26 1282.55,-64.04 1194.55,-57"/>
<polygon fill="black" stroke="black" points="1194.78,-53.51 1184.54,-56.23 1194.24,-60.49 1194.78,-53.51"/>
</g>
<!-- cs4140 -->
<g id="node16" class="node">
<title>cs4140</title>
<ellipse fill="none" stroke="black" cx="1301.69" cy="-159.61" rx="122.16" ry="26.74"/>
<text text-anchor="middle" x="1301.69" y="-163.41" font-family="Times,serif" font-size="14.00">CS 4140</text>
<text text-anchor="middle" x="1301.69" y="-148.41" font-family="Times,serif" font-size="14.00">Software Engineering</text>
</g>
<!-- cs3720&#45;&gt;cs4140 -->
<g id="edge16" class="edge">
<title>cs3720&#45;&gt;cs4140</title>
<path fill="none" stroke="black" d="M762.9,-269.15C787.95,-264.09 815.26,-259.33 840.69,-256.48 877.13,-252.4 1135.73,-259.58 1170.69,-248.48 1206.33,-237.16 1241.22,-212.91 1266.02,-192.75"/>
<polygon fill="black" stroke="black" points="1268.58,-195.18 1274.03,-186.09 1264.11,-189.79 1268.58,-195.18"/>
</g>
<!-- cs3720&#45;&gt;cs4760 -->
<g id="edge18" class="edge">
<title>cs3720&#45;&gt;cs4760</title>
<path fill="none" stroke="black" d="M772.18,-270.25C821.51,-260.18 871.19,-249.83 873.69,-248.48 946.63,-209.11 941.72,-169.46 1005.69,-116.74 1021.14,-104 1039.09,-91.36 1055.27,-80.67"/>
<polygon fill="black" stroke="black" points="1057.58,-83.34 1064.04,-74.94 1053.75,-77.47 1057.58,-83.34"/>
</g>
<!-- cs3780&#45;&gt;cs4250 -->
<!-- cs3780&#45;&gt;cs4760 -->
<g id="edge23" class="edge">
<title>cs3780&#45;&gt;cs4760</title>
<path fill="none" stroke="black" d="M441.9,-269.18C461.73,-264.12 483.4,-259.35 503.69,-256.48 531.09,-252.6 727.52,-260.02 752.69,-248.48 824.95,-215.34 806.01,-158.47 873.69,-116.74 916.76,-90.18 971.05,-74.17 1015.85,-64.7"/>
<polygon fill="black" stroke="black" points="1016.74,-68.09 1025.84,-62.67 1015.34,-61.23 1016.74,-68.09"/>
</g>
<!-- cs4520 -->
<g id="node17" class="node">
<title>cs4520</title>
<ellipse fill="none" stroke="black" cx="1089.69" cy="-159.61" rx="72.25" ry="26.74"/>
<text text-anchor="middle" x="1089.69" y="-163.41" font-family="Times,serif" font-size="14.00">CS 4520</text>
<text text-anchor="middle" x="1089.69" y="-148.41" font-family="Times,serif" font-size="14.00">Cyberethics</text>
</g>
<!-- cs4520&#45;&gt;cs4760 -->
</g>
</svg>
