<?xml version="1.0" encoding="UTF-8" standalone="no"?>
<!DOCTYPE svg PUBLIC "-//W3C//DTD SVG 1.1//EN"
 "http://www.w3.org/Graphics/SVG/1.1/DTD/svg11.dtd">
<!-- Generated by graphviz version 2.43.0 (0)
 -->
<!-- Title: %3 Pages: 1 -->
<svg width="2597pt" height="718pt"
 viewBox="0.00 0.00 2596.73 718.44" xmlns="http://www.w3.org/2000/svg" xmlns:xlink="http://www.w3.org/1999/xlink">
<g id="graph0" class="graph" transform="scale(1 1) rotate(0) translate(4 714.44)">
<title>%3</title>
<polygon fill="white" stroke="transparent" points="-4,4 -4,-714.44 2592.73,-714.44 2592.73,4 -4,4"/>
<g id="clust1" class="cluster">
<title>cluster_year1</title>
<polygon fill="lightgrey" stroke="lightgrey" points="347,-346.22 347,-702.44 1110,-702.44 1110,-346.22 347,-346.22"/>
<text text-anchor="middle" x="728.5" y="-687.24" font-family="Times,serif" font-size="14.00">Year 1</text>
</g>
<g id="clust2" class="cluster">
<title>cluster_fall1</title>
<polygon fill="white" stroke="white" points="580,-578.7 580,-671.44 1084,-671.44 1084,-578.7 580,-578.7"/>
<text text-anchor="middle" x="832" y="-656.24" font-family="Times,serif" font-size="14.00">Year 1 Fall</text>
</g>
<g id="clust3" class="cluster">
<title>cluster_spring1</title>
<polygon fill="white" stroke="white" points="355,-354.22 355,-570.7 1102,-570.7 1102,-354.22 355,-354.22"/>
<text text-anchor="middle" x="728.5" y="-555.5" font-family="Times,serif" font-size="14.00">Year 1 Spring</text>
</g>
<g id="clust4" class="cluster">
<title>cluster_year2</title>
<polygon fill="lightgrey" stroke="lightgrey" points="1118,-206.48 1118,-477.96 2564,-477.96 2564,-206.48 1118,-206.48"/>
<text text-anchor="middle" x="1841" y="-462.76" font-family="Times,serif" font-size="14.00">Year 2</text>
</g>
<g id="clust5" class="cluster">
<title>cluster_fall2</title>
<polygon fill="white" stroke="white" points="1126,-354.22 1126,-446.96 2556,-446.96 2556,-354.22 1126,-354.22"/>
<text text-anchor="middle" x="1841" y="-431.76" font-family="Times,serif" font-size="14.00">Year 2 Fall</text>
</g>
<g id="clust6" class="cluster">
<title>cluster_spring2</title>
<polygon fill="white" stroke="white" points="1695,-214.48 1695,-307.22 2423,-307.22 2423,-214.48 1695,-214.48"/>
<text text-anchor="middle" x="2059" y="-292.02" font-family="Times,serif" font-size="14.00">Year 2 Spring</text>
</g>
<g id="clust7" class="cluster">
<title>cluster_year3</title>
<polygon fill="lightgrey" stroke="lightgrey" points="8,-8 8,-338.22 1110,-338.22 1110,-8 8,-8"/>
<text text-anchor="middle" x="559" y="-323.02" font-family="Times,serif" font-size="14.00">Year 3</text>
</g>
<g id="clust8" class="cluster">
<title>cluster_fall3</title>
<polygon fill="white" stroke="white" points="16,-214.48 16,-307.22 1102,-307.22 1102,-214.48 16,-214.48"/>
<text text-anchor="middle" x="559" y="-292.02" font-family="Times,serif" font-size="14.00">Year 3 Fall</text>
</g>
<g id="clust9" class="cluster">
<title>cluster_spring3</title>
<polygon fill="white" stroke="white" points="450,-16 450,-198.48 1102,-198.48 1102,-16 450,-16"/>
<text text-anchor="middle" x="776" y="-183.28" font-family="Times,serif" font-size="14.00">Year 3 Spring</text>
</g>
<!-- cs2010 -->
<g id="node1" class="node">
<title>cs2010</title>
<ellipse fill="none" stroke="black" cx="933" cy="-613.57" rx="142.67" ry="26.74"/>
<text text-anchor="middle" x="933" y="-617.37" font-family="Times,serif" font-size="14.00">CS 2010</text>
<text text-anchor="middle" x="933" y="-602.37" font-family="Times,serif" font-size="14.00">Computing Fundamentals</text>
</g>
<!-- cs2370 -->
<g id="node3" class="node">
<title>cs2370</title>
<ellipse fill="none" stroke="black" cx="933" cy="-512.83" rx="160.53" ry="26.74"/>
<text text-anchor="middle" x="933" y="-516.63" font-family="Times,serif" font-size="14.00">CS 2370</text>
<text text-anchor="middle" x="933" y="-501.63" font-family="Times,serif" font-size="14.00">Introduction to Programming</text>
</g>
<!-- cs2010&#45;&gt;cs2370 -->
<!-- cs2010&#45;&gt;cs2370 -->
<g id="edge4" class="edge">
<title>cs2010&#45;&gt;cs2370</title>
<path fill="none" stroke="black" d="M939.02,-586.63C939.77,-575.49 939.94,-562.28 939.54,-550.2"/>
<polygon fill="black" stroke="black" points="943.02,-549.76 939.03,-539.94 936.03,-550.1 943.02,-549.76"/>
</g>
<!-- ma1800 -->
<g id="node2" class="node">
<title>ma1800</title>
<ellipse fill="none" stroke="black" cx="680" cy="-613.57" rx="91.85" ry="26.74"/>
<text text-anchor="middle" x="680" y="-617.37" font-family="Times,serif" font-size="14.00">MA 1800</text>
<text text-anchor="middle" x="680" y="-602.37" font-family="Times,serif" font-size="14.00">College Algebra</text>
</g>
<!-- cy2020 -->
<g id="node5" class="node">
<title>cy2020</title>
<ellipse fill="none" stroke="black" cx="934" cy="-389.09" rx="158.28" ry="26.74"/>
<text text-anchor="middle" x="934" y="-392.89" font-family="Times,serif" font-size="14.00">CY 2020</text>
<text text-anchor="middle" x="934" y="-377.89" font-family="Times,serif" font-size="14.00">Cybersecurity Fundamentals</text>
</g>
<!-- cs2370&#45;&gt;cy2020 -->
<g id="edge7" class="edge">
<title>cs2370&#45;&gt;cy2020</title>
<path fill="none" stroke="black" d="M933.21,-485.71C933.36,-468.38 933.55,-445.4 933.7,-426.31"/>
<polygon fill="black" stroke="black" points="937.2,-426.19 933.79,-416.16 930.2,-426.13 937.2,-426.19"/>
</g>
<!-- cs3240 -->
<g id="node6" class="node">
<title>cs3240</title>
<ellipse fill="none" stroke="black" cx="2303" cy="-389.09" rx="245.23" ry="26.74"/>
<text text-anchor="middle" x="2303" y="-392.89" font-family="Times,serif" font-size="14.00">CS 3240</text>
<text text-anchor="middle" x="2303" y="-377.89" font-family="Times,serif" font-size="14.00">Data Communication and Computer Networks</text>
</g>
<!-- cs2370&#45;&gt;cs3240 -->
<g id="edge5" class="edge">
<title>cs2370&#45;&gt;cs3240</title>
<path fill="none" stroke="black" d="M1092.45,-509.66C1378.52,-505.36 1957.73,-494.73 2049,-477.96 2114.75,-465.88 2186.46,-439.8 2236.86,-419.17"/>
<polygon fill="black" stroke="black" points="2238.43,-422.31 2246.34,-415.26 2235.76,-415.84 2238.43,-422.31"/>
</g>
<!-- cs3600 -->
<g id="node7" class="node">
<title>cs3600</title>
<ellipse fill="none" stroke="black" cx="1807" cy="-389.09" rx="232.78" ry="26.74"/>
<text text-anchor="middle" x="1807" y="-392.89" font-family="Times,serif" font-size="14.00">CS 3600</text>
<text text-anchor="middle" x="1807" y="-377.89" font-family="Times,serif" font-size="14.00">Database Management Systems &amp; Security</text>
</g>
<!-- cs2370&#45;&gt;cs3600 -->
<g id="edge6" class="edge">
<title>cs2370&#45;&gt;cs3600</title>
<path fill="none" stroke="black" d="M1091.87,-508.64C1248.93,-504.53 1477.99,-495.68 1565,-477.96 1627.21,-465.29 1694.88,-439.63 1742.8,-419.3"/>
<polygon fill="black" stroke="black" points="1744.3,-422.46 1752.12,-415.31 1741.55,-416.03 1744.3,-422.46"/>
</g>
<!-- cs4400 -->
<g id="node9" class="node">
<title>cs4400</title>
<ellipse fill="none" stroke="black" cx="2229" cy="-249.35" rx="185.94" ry="26.74"/>
<text text-anchor="middle" x="2229" y="-253.15" font-family="Times,serif" font-size="14.00">CS 4400</text>
<text text-anchor="middle" x="2229" y="-238.15" font-family="Times,serif" font-size="14.00">Computer Networks and Protocols</text>
</g>
<!-- cs2370&#45;&gt;cs4400 -->
<g id="edge9" class="edge">
<title>cs2370&#45;&gt;cs4400</title>
<path fill="none" stroke="black" d="M1093.51,-511.43C1499.06,-510.03 2534.58,-503.92 2560,-477.96 2600.97,-436.13 2595.17,-393.03 2560,-346.22 2535.26,-313.3 2441.43,-288.07 2359.95,-271.77"/>
<polygon fill="black" stroke="black" points="2360.57,-268.32 2350.08,-269.82 2359.22,-275.19 2360.57,-268.32"/>
</g>
<!-- cs4230 -->
<g id="node13" class="node">
<title>cs4230</title>
<ellipse fill="none" stroke="black" cx="152" cy="-249.35" rx="127.97" ry="26.74"/>
<text text-anchor="middle" x="152" y="-253.15" font-family="Times,serif" font-size="14.00">CS 4230</text>
<text text-anchor="middle" x="152" y="-238.15" font-family="Times,serif" font-size="14.00">System Administration</text>
</g>
<!-- cs2370&#45;&gt;cs4230 -->
<g id="edge8" class="edge">
<title>cs2370&#45;&gt;cs4230</title>
<path fill="none" stroke="black" d="M821.84,-493.36C690.38,-468.94 466.97,-419.27 289,-338.22 255.01,-322.74 219.59,-299.82 193.28,-281.26"/>
<polygon fill="black" stroke="black" points="195.25,-278.37 185.08,-275.41 191.18,-284.07 195.25,-278.37"/>
</g>
<!-- ma2210 -->
<g id="node4" class="node">
<title>ma2210</title>
<ellipse fill="none" stroke="black" cx="559" cy="-512.83" rx="195.74" ry="26.74"/>
<text text-anchor="middle" x="559" y="-516.63" font-family="Times,serif" font-size="14.00">MA 2210</text>
<text text-anchor="middle" x="559" y="-501.63" font-family="Times,serif" font-size="14.00">Finite Math with Business Statistics</text>
</g>
<!-- cy3010 -->
<g id="node10" class="node">
<title>cy3010</title>
<ellipse fill="none" stroke="black" cx="1864" cy="-249.35" rx="161.44" ry="26.74"/>
<text text-anchor="middle" x="1864" y="-253.15" font-family="Times,serif" font-size="14.00">CY 3010</text>
<text text-anchor="middle" x="1864" y="-238.15" font-family="Times,serif" font-size="14.00">Ethical Hacking &amp; Pentesting</text>
</g>
<!-- cy2020&#45;&gt;cy3010 -->
<g id="edge10" class="edge">
<title>cy2020&#45;&gt;cy3010</title>
<path fill="none" stroke="black" d="M1022.14,-366.73C1053.53,-359.58 1089.23,-351.97 1122,-346.22 1328.19,-310.02 1568.86,-281.4 1718.87,-265.17"/>
<polygon fill="black" stroke="black" points="1719.5,-268.62 1729.06,-264.07 1718.74,-261.66 1719.5,-268.62"/>
</g>
<!-- cy3020 -->
<g id="node11" class="node">
<title>cy3020</title>
<ellipse fill="none" stroke="black" cx="993" cy="-249.35" rx="101.23" ry="26.74"/>
<text text-anchor="middle" x="993" y="-253.15" font-family="Times,serif" font-size="14.00">CY 3020</text>
<text text-anchor="middle" x="993" y="-238.15" font-family="Times,serif" font-size="14.00">Network Security</text>
</g>
<!-- cy2020&#45;&gt;cy3020 -->
<g id="edge11" class="edge">
<title>cy2020&#45;&gt;cy3020</title>
<path fill="none" stroke="black" d="M945.1,-362.18C954.37,-340.54 967.68,-309.47 977.91,-285.57"/>
<polygon fill="black" stroke="black" points="981.23,-286.71 981.95,-276.14 974.8,-283.96 981.23,-286.71"/>
</g>
<!-- cy3030 -->
<g id="node12" class="node">
<title>cy3030</title>
<ellipse fill="none" stroke="black" cx="669" cy="-249.35" rx="205.12" ry="26.74"/>
<text text-anchor="middle" x="669" y="-253.15" font-family="Times,serif" font-size="14.00">CY 3030</text>
<text text-anchor="middle" x="669" y="-238.15" font-family="Times,serif" font-size="14.00">Digital Forensics &amp; Incident Response</text>
</g>
<!-- cy2020&#45;&gt;cy3030 -->
<g id="edge12" class="edge">
<title>cy2020&#45;&gt;cy3030</title>
<path fill="none" stroke="black" d="M886.32,-363.31C841.52,-340.02 774.41,-305.14 726.63,-280.3"/>
<polygon fill="black" stroke="black" points="728.13,-277.14 717.64,-275.63 724.9,-283.35 728.13,-277.14"/>
</g>
<!-- cs3240&#45;&gt;cs4400 -->
<!-- cs3240&#45;&gt;cs4400 -->
<g id="edge13" class="edge">
<title>cs3240&#45;&gt;cs4400</title>
<path fill="none" stroke="black" d="M2294.49,-362.18C2284.35,-340.35 2267.64,-308.92 2253.52,-284.93"/>
<polygon fill="black" stroke="black" points="2256.4,-282.92 2248.26,-276.14 2250.39,-286.52 2256.4,-282.92"/>
</g>
<!-- cs3240&#45;&gt;cy3020 -->
<g id="edge14" class="edge">
<title>cs3240&#45;&gt;cy3020</title>
<path fill="none" stroke="black" d="M2186.8,-365.4C2143.69,-357.92 2094.28,-350.44 2049,-346.22 1890.53,-331.46 1849.72,-349.95 1691,-338.22 1474.65,-322.23 1222.5,-286.13 1088.38,-265.52"/>
<polygon fill="black" stroke="black" points="1088.56,-262.01 1078.14,-263.94 1087.49,-268.92 1088.56,-262.01"/>
</g>
<!-- cs3600&#45;&gt;cy3030 -->
<g id="edge15" class="edge">
<title>cs3600&#45;&gt;cy3030</title>
<path fill="none" stroke="black" d="M1697.56,-365.35C1656.22,-357.76 1608.63,-350.22 1565,-346.22 1489.53,-339.29 957.26,-353.33 883,-338.22 826.9,-326.81 766.93,-300.86 724.79,-280.11"/>
<polygon fill="black" stroke="black" points="726.32,-276.96 715.81,-275.63 723.19,-283.22 726.32,-276.96"/>
</g>
<!-- cy3040 -->
<g id="node15" class="node">
<title>cy3040</title>
<ellipse fill="none" stroke="black" cx="607" cy="-140.61" rx="149.4" ry="26.74"/>
<text text-anchor="middle" x="607" y="-144.41" font-family="Times,serif" font-size="14.00">CY 3040</text>
<text text-anchor="middle" x="607" y="-129.41" font-family="Times,serif" font-size="14.00">Cloud Security and Privacy</text>
</g>
<!-- cs3600&#45;&gt;cy3040 -->
<g id="edge16" class="edge">
<title>cs3600&#45;&gt;cy3040</title>
<path fill="none" stroke="black" d="M1692.9,-365.64C1652.62,-358.44 1606.93,-351.07 1565,-346.22 1505.29,-339.31 1488.62,-351.49 1430,-338.22 1278.39,-303.89 1258.2,-238.1 1106,-206.48 1031.79,-191.06 839.51,-212.38 765,-198.48 732.81,-192.47 698.46,-180.79 670.04,-169.57"/>
<polygon fill="black" stroke="black" points="671.22,-166.28 660.64,-165.79 668.61,-172.77 671.22,-166.28"/>
</g>
<!-- cs3720 -->
<g id="node17" class="node">
<title>cs3720</title>
<ellipse fill="none" stroke="black" cx="934" cy="-140.61" rx="159.61" ry="26.74"/>
<text text-anchor="middle" x="934" y="-144.41" font-family="Times,serif" font-size="14.00">CS 3720</text>
<text text-anchor="middle" x="934" y="-129.41" font-family="Times,serif" font-size="14.00">Systems Analysis and Design</text>
</g>
<!-- cs3600&#45;&gt;cs3720 -->
<g id="edge17" class="edge">
<title>cs3600&#45;&gt;cs3720</title>
<path fill="none" stroke="black" d="M1746.78,-363.03C1728.74,-355.3 1708.98,-346.61 1691,-338.22 1573.26,-283.26 1555.81,-238.99 1430,-206.48 1385,-194.85 1267.16,-203.9 1221,-198.48 1157.95,-191.07 1088.07,-177.35 1033.04,-165.23"/>
<polygon fill="black" stroke="black" points="1033.47,-161.74 1022.95,-162.99 1031.95,-168.58 1033.47,-161.74"/>
</g>
<!-- mgm3100 -->
<g id="node8" class="node">
<title>mgm3100</title>
<ellipse fill="none" stroke="black" cx="1345" cy="-389.09" rx="211.35" ry="26.74"/>
<text text-anchor="middle" x="1345" y="-392.89" font-family="Times,serif" font-size="14.00">MGM 3100</text>
<text text-anchor="middle" x="1345" y="-377.89" font-family="Times,serif" font-size="14.00">Cybersecurity and Privacy for Business</text>
</g>
<!-- cy3100 -->
<g id="node16" class="node">
<title>cy3100</title>
<ellipse fill="none" stroke="black" cx="626" cy="-50.87" rx="168.08" ry="26.74"/>
<text text-anchor="middle" x="626" y="-54.67" font-family="Times,serif" font-size="14.00">CY 3100</text>
<text text-anchor="middle" x="626" y="-39.67" font-family="Times,serif" font-size="14.00">Red Team/Blue Team Capstone</text>
</g>
<!-- cs4400&#45;&gt;cy3100 -->
<g id="edge23" class="edge">
<title>cs4400&#45;&gt;cy3100</title>
<path fill="none" stroke="black" d="M2133.6,-226.17C2102.01,-219.28 2066.6,-212.04 2034,-206.48 1585.7,-129.98 1050.32,-83.32 787.63,-63.31"/>
<polygon fill="black" stroke="black" points="787.87,-59.82 777.63,-62.55 787.34,-66.8 787.87,-59.82"/>
</g>
<!-- cy3010&#45;&gt;cy3100 -->
<g id="edge18" class="edge">
<title>cy3010&#45;&gt;cy3100</title>
<path fill="none" stroke="black" d="M1750.28,-230.25C1697.13,-222.2 1632.93,-213.08 1575,-206.48 1532.46,-201.63 1521.32,-204.98 1479,-198.48 1309.68,-172.47 1271.68,-143.62 1103,-113.74 993.32,-94.31 868.43,-78.33 773.97,-67.48"/>
<polygon fill="black" stroke="black" points="774.1,-63.97 763.76,-66.32 773.3,-70.93 774.1,-63.97"/>
</g>
<!-- cy3020&#45;&gt;cy3040 -->
<!-- cy3020&#45;&gt;cy3100 -->
<g id="edge19" class="edge">
<title>cy3020&#45;&gt;cy3100</title>
<path fill="none" stroke="black" d="M944.51,-225.75C925.72,-218.11 903.76,-210.5 883,-206.48 871.16,-204.19 457.45,-207.08 449,-198.48 435.81,-185.04 438.1,-129.1 449,-113.74 461.58,-96.01 479.64,-83.33 499.47,-74.25"/>
<polygon fill="black" stroke="black" points="500.85,-77.47 508.69,-70.34 498.11,-71.03 500.85,-77.47"/>
</g>
<!-- cy3030&#45;&gt;cy3100 -->
<g id="edge20" class="edge">
<title>cy3030&#45;&gt;cy3100</title>
<path fill="none" stroke="black" d="M553.64,-227.11C496.26,-215.99 438.18,-203.64 434,-198.48 410.29,-169.22 411.83,-144.18 434,-113.74 447.8,-94.79 467.51,-81.52 489.1,-72.26"/>
<polygon fill="black" stroke="black" points="490.46,-75.48 498.45,-68.53 487.87,-68.98 490.46,-75.48"/>
</g>
<!-- cs4230&#45;&gt;cy3100 -->
<g id="edge21" class="edge">
<title>cs4230&#45;&gt;cy3100</title>
<path fill="none" stroke="black" d="M185.64,-223.14C227.32,-193.03 301.51,-143.05 372,-113.74 413.99,-96.28 462.02,-83.01 504.93,-73.33"/>
<polygon fill="black" stroke="black" points="505.85,-76.71 514.86,-71.13 504.34,-69.87 505.85,-76.71"/>
</g>
<!-- cs4520 -->
<g id="node14" class="node">
<title>cs4520</title>
<ellipse fill="none" stroke="black" cx="372" cy="-249.35" rx="73.58" ry="26.74"/>
<text text-anchor="middle" x="372" y="-253.15" font-family="Times,serif" font-size="14.00">CS 4520</text>
<text text-anchor="middle" x="372" y="-238.15" font-family="Times,serif" font-size="14.00">CyberEthics</text>
</g>
<!-- cs4520&#45;&gt;cy3100 -->
<g id="edge24" class="edge">
<title>cs4520&#45;&gt;cy3100</title>
<path fill="none" stroke="black" d="M372.81,-222.33C375.16,-192.12 383.62,-142.74 413,-113.74 433.16,-93.84 459.33,-80.26 486.38,-71.03"/>
<polygon fill="black" stroke="black" points="487.54,-74.33 495.98,-67.94 485.39,-67.67 487.54,-74.33"/>
</g>
<!-- cs3720&#45;&gt;cy3100 -->
<g id="edge22" class="edge">
<title>cs3720&#45;&gt;cy3100</title>
<path fill="none" stroke="black" d="M855.08,-117.13C812.5,-105 759.77,-89.98 715.64,-77.41"/>
<polygon fill="black" stroke="black" points="716.36,-73.97 705.78,-74.6 714.44,-80.7 716.36,-73.97"/>
</g>
</g>
</svg>
