<?xml version="1.0" encoding="UTF-8" standalone="no"?>
<!DOCTYPE svg PUBLIC "-//W3C//DTD SVG 1.1//EN"
 "http://www.w3.org/Graphics/SVG/1.1/DTD/svg11.dtd">
<!-- Generated by graphviz version 2.43.0 (0)
 -->
<!-- Title: %3 Pages: 1 -->
<svg width="2137pt" height="768pt"
 viewBox="0.00 0.00 2136.86 768.44" xmlns="http://www.w3.org/2000/svg" xmlns:xlink="http://www.w3.org/1999/xlink">
<g id="graph0" class="graph" transform="scale(1 1) rotate(0) translate(4 764.44)">
<title>%3</title>
<polygon fill="white" stroke="transparent" points="-4,4 -4,-764.44 2132.86,-764.44 2132.86,4 -4,4"/>
<g id="clust1" class="cluster">
<title>cluster_year1</title>
<polygon fill="lightgrey" stroke="lightgrey" points="1311.35,-519.96 1311.35,-752.44 2079.35,-752.44 2079.35,-519.96 1311.35,-519.96"/>
<text text-anchor="middle" x="1695.35" y="-737.24" font-family="Times,serif" font-size="14.00">Year 1</text>
</g>
<g id="clust2" class="cluster">
<title>cluster_fall1</title>
<polygon fill="white" stroke="white" points="1319.35,-628.7 1319.35,-721.44 2071.35,-721.44 2071.35,-628.7 1319.35,-628.7"/>
<text text-anchor="middle" x="1695.35" y="-706.24" font-family="Times,serif" font-size="14.00">Year 1 Fall</text>
</g>
<g id="clust3" class="cluster">
<title>cluster_spring1</title>
<polygon fill="white" stroke="white" points="1367.35,-527.96 1367.35,-620.7 2071.35,-620.7 2071.35,-527.96 1367.35,-527.96"/>
<text text-anchor="middle" x="1719.35" y="-605.5" font-family="Times,serif" font-size="14.00">Year 1 Spring</text>
</g>
<g id="clust4" class="cluster">
<title>cluster_year2</title>
<polygon fill="lightgrey" stroke="lightgrey" points="1002.35,-279.48 1002.35,-511.96 2112.35,-511.96 2112.35,-279.48 1002.35,-279.48"/>
<text text-anchor="middle" x="1557.35" y="-496.76" font-family="Times,serif" font-size="14.00">Year 2</text>
</g>
<g id="clust5" class="cluster">
<title>cluster_fall2</title>
<polygon fill="white" stroke="white" points="1010.35,-388.22 1010.35,-480.96 2033.35,-480.96 2033.35,-388.22 1010.35,-388.22"/>
<text text-anchor="middle" x="1521.85" y="-465.76" font-family="Times,serif" font-size="14.00">Year 2 Fall</text>
</g>
<g id="clust6" class="cluster">
<title>cluster_spring2</title>
<polygon fill="white" stroke="white" points="1010.35,-287.48 1010.35,-380.22 2104.35,-380.22 2104.35,-287.48 1010.35,-287.48"/>
<text text-anchor="middle" x="1557.35" y="-365.02" font-family="Times,serif" font-size="14.00">Year 2 Spring</text>
</g>
<g id="clust7" class="cluster">
<title>cluster_year3</title>
<polygon fill="lightgrey" stroke="lightgrey" points="91.35,-8 91.35,-271.48 1253.35,-271.48 1253.35,-8 91.35,-8"/>
<text text-anchor="middle" x="672.35" y="-256.28" font-family="Times,serif" font-size="14.00">Year 3</text>
</g>
<g id="clust8" class="cluster">
<title>cluster_fall3</title>
<polygon fill="white" stroke="white" points="99.35,-147.74 99.35,-240.48 1245.35,-240.48 1245.35,-147.74 99.35,-147.74"/>
<text text-anchor="middle" x="672.35" y="-225.28" font-family="Times,serif" font-size="14.00">Year 3 Fall</text>
</g>
<g id="clust9" class="cluster">
<title>cluster_spring3</title>
<polygon fill="white" stroke="white" points="99.35,-16 99.35,-108.74 492.35,-108.74 492.35,-16 99.35,-16"/>
<text text-anchor="middle" x="295.85" y="-93.54" font-family="Times,serif" font-size="14.00">Year 3 Spring</text>
</g>
<g id="clust10" class="cluster">
<title>cluster_year4</title>
<polygon fill="lightgrey" stroke="lightgrey" points="1261.35,-8 1261.35,-139.74 1780.35,-139.74 1780.35,-8 1261.35,-8"/>
<text text-anchor="middle" x="1520.85" y="-124.54" font-family="Times,serif" font-size="14.00">Year 4</text>
</g>
<g id="clust11" class="cluster">
<title>cluster_fall4</title>
<polygon fill="white" stroke="white" points="1269.35,-16 1269.35,-108.74 1772.35,-108.74 1772.35,-16 1269.35,-16"/>
<text text-anchor="middle" x="1520.85" y="-93.54" font-family="Times,serif" font-size="14.00">Year 4 Fall</text>
</g>
<!-- cs2010 -->
<g id="node1" class="node">
<title>cs2010</title>
<ellipse fill="none" stroke="black" cx="1979.35" cy="-663.57" rx="84.29" ry="26.74"/>
<text text-anchor="middle" x="1979.35" y="-667.37" font-family="Times,serif" font-size="14.00">CS 2010</text>
<text text-anchor="middle" x="1979.35" y="-652.37" font-family="Times,serif" font-size="14.00">Fundamentals</text>
</g>
<!-- cs2370 -->
<g id="node4" class="node">
<title>cs2370</title>
<ellipse fill="none" stroke="black" cx="1941.35" cy="-562.83" rx="122.16" ry="26.74"/>
<text text-anchor="middle" x="1941.35" y="-566.63" font-family="Times,serif" font-size="14.00">CS 2370</text>
<text text-anchor="middle" x="1941.35" y="-551.63" font-family="Times,serif" font-size="14.00">Intro to Programming</text>
</g>
<!-- cs2010&#45;&gt;cs2370 -->
<!-- cs2010&#45;&gt;cs2370 -->
<g id="edge5" class="edge">
<title>cs2010&#45;&gt;cs2370</title>
<path fill="none" stroke="black" d="M1975.39,-636.63C1971.71,-625.06 1966.55,-611.26 1961.3,-598.81"/>
<polygon fill="black" stroke="black" points="1964.48,-597.36 1957.28,-589.6 1958.07,-600.17 1964.48,-597.36"/>
</g>
<!-- ma2130 -->
<g id="node2" class="node">
<title>ma2130</title>
<ellipse fill="none" stroke="black" cx="1807.35" cy="-663.57" rx="70.01" ry="26.74"/>
<text text-anchor="middle" x="1807.35" y="-667.37" font-family="Times,serif" font-size="14.00">MA 2130</text>
<text text-anchor="middle" x="1807.35" y="-652.37" font-family="Times,serif" font-size="14.00">Precalculus</text>
</g>
<!-- ma2210 -->
<g id="node3" class="node">
<title>ma2210</title>
<ellipse fill="none" stroke="black" cx="1523.35" cy="-663.57" rx="195.74" ry="26.74"/>
<text text-anchor="middle" x="1523.35" y="-667.37" font-family="Times,serif" font-size="14.00">MA 2210</text>
<text text-anchor="middle" x="1523.35" y="-652.37" font-family="Times,serif" font-size="14.00">Finite Math with Business Statistics</text>
</g>
<!-- cs2220 -->
<g id="node7" class="node">
<title>cs2220</title>
<ellipse fill="none" stroke="black" cx="1909.35" cy="-423.09" rx="115.93" ry="26.74"/>
<text text-anchor="middle" x="1909.35" y="-426.89" font-family="Times,serif" font-size="14.00">CS 2220</text>
<text text-anchor="middle" x="1909.35" y="-411.89" font-family="Times,serif" font-size="14.00">Computer Hardware</text>
</g>
<!-- cs2370&#45;&gt;cs2220 -->
<g id="edge6" class="edge">
<title>cs2370&#45;&gt;cs2220</title>
<path fill="none" stroke="black" d="M1935.33,-535.92C1930.38,-514.61 1923.3,-484.15 1917.78,-460.4"/>
<polygon fill="black" stroke="black" points="1921.12,-459.3 1915.45,-450.35 1914.3,-460.88 1921.12,-459.3"/>
</g>
<!-- cs3240 -->
<g id="node8" class="node">
<title>cs3240</title>
<ellipse fill="none" stroke="black" cx="1263.35" cy="-423.09" rx="245.23" ry="26.74"/>
<text text-anchor="middle" x="1263.35" y="-426.89" font-family="Times,serif" font-size="14.00">CS 3240</text>
<text text-anchor="middle" x="1263.35" y="-411.89" font-family="Times,serif" font-size="14.00">Data Communication and Computer Networks</text>
</g>
<!-- cs2370&#45;&gt;cs3240 -->
<g id="edge7" class="edge">
<title>cs2370&#45;&gt;cs3240</title>
<path fill="none" stroke="black" d="M1882.42,-539.26C1859.9,-531.67 1833.76,-524.08 1809.35,-519.96 1681.77,-498.41 1645.65,-535.08 1518.35,-511.96 1452.34,-499.97 1380.35,-473.88 1329.74,-453.23"/>
<polygon fill="black" stroke="black" points="1330.81,-449.88 1320.23,-449.31 1328.15,-456.35 1330.81,-449.88"/>
</g>
<!-- cs3420 -->
<g id="node9" class="node">
<title>cs3420</title>
<ellipse fill="none" stroke="black" cx="1651.35" cy="-423.09" rx="124.4" ry="26.74"/>
<text text-anchor="middle" x="1651.35" y="-426.89" font-family="Times,serif" font-size="14.00">CS 3420</text>
<text text-anchor="middle" x="1651.35" y="-411.89" font-family="Times,serif" font-size="14.00">Intro to Cybersecurity</text>
</g>
<!-- cs2370&#45;&gt;cs3420 -->
<g id="edge8" class="edge">
<title>cs2370&#45;&gt;cs3420</title>
<path fill="none" stroke="black" d="M1873.57,-540.33C1831.22,-526.89 1784.63,-512.09 1784.35,-511.96 1751.59,-496.31 1717.48,-473.63 1692.01,-455.23"/>
<polygon fill="black" stroke="black" points="1693.86,-452.24 1683.72,-449.17 1689.73,-457.9 1693.86,-452.24"/>
</g>
<!-- cs3600 -->
<g id="node10" class="node">
<title>cs3600</title>
<ellipse fill="none" stroke="black" cx="1251.35" cy="-322.35" rx="232.78" ry="26.74"/>
<text text-anchor="middle" x="1251.35" y="-326.15" font-family="Times,serif" font-size="14.00">CS 3600</text>
<text text-anchor="middle" x="1251.35" y="-311.15" font-family="Times,serif" font-size="14.00">Database Management Systems &amp; Security</text>
</g>
<!-- cs2370&#45;&gt;cs3600 -->
<g id="edge9" class="edge">
<title>cs2370&#45;&gt;cs3600</title>
<path fill="none" stroke="black" d="M2006.98,-540.06C2019.07,-533.02 2030.13,-523.84 2037.35,-511.96 2065.9,-464.96 2075.95,-427.39 2037.35,-388.22 2026.72,-377.44 1507.37,-382.08 1492.35,-380.22 1442.67,-374.07 1388.32,-361.75 1343.83,-350.14"/>
<polygon fill="black" stroke="black" points="1344.47,-346.69 1333.91,-347.52 1342.69,-353.46 1344.47,-346.69"/>
</g>
<!-- cs3820 -->
<g id="node11" class="node">
<title>cs3820</title>
<ellipse fill="none" stroke="black" cx="1662.35" cy="-322.35" rx="160.53" ry="26.74"/>
<text text-anchor="middle" x="1662.35" y="-326.15" font-family="Times,serif" font-size="14.00">CS 3820</text>
<text text-anchor="middle" x="1662.35" y="-311.15" font-family="Times,serif" font-size="14.00">Human&#45;Computer Interaction</text>
</g>
<!-- cs2370&#45;&gt;cs3820 -->
<g id="edge10" class="edge">
<title>cs2370&#45;&gt;cs3820</title>
<path fill="none" stroke="black" d="M2027.65,-543.59C2043.3,-536.32 2057.69,-526.16 2067.35,-511.96 2098.26,-466.48 2105.57,-427.76 2067.35,-388.22 2058.23,-378.79 1844.25,-382.56 1831.35,-380.22 1797.13,-374.02 1760.39,-362.31 1729.95,-351.12"/>
<polygon fill="black" stroke="black" points="1730.88,-347.73 1720.29,-347.51 1728.43,-354.29 1730.88,-347.73"/>
</g>
<!-- cs4230 -->
<g id="node12" class="node">
<title>cs4230</title>
<ellipse fill="none" stroke="black" cx="1968.35" cy="-322.35" rx="127.97" ry="26.74"/>
<text text-anchor="middle" x="1968.35" y="-326.15" font-family="Times,serif" font-size="14.00">CS 4230</text>
<text text-anchor="middle" x="1968.35" y="-311.15" font-family="Times,serif" font-size="14.00">System Administration</text>
</g>
<!-- cs2370&#45;&gt;cs4230 -->
<g id="edge11" class="edge">
<title>cs2370&#45;&gt;cs4230</title>
<path fill="none" stroke="black" d="M2049.33,-549.93C2071.17,-542.37 2091.61,-530.49 2105.35,-511.96 2138.09,-467.78 2134.76,-434.69 2105.35,-388.22 2093.99,-370.27 2076.17,-357.19 2057.1,-347.7"/>
<polygon fill="black" stroke="black" points="2058.51,-344.49 2047.96,-343.45 2055.56,-350.84 2058.51,-344.49"/>
</g>
<!-- ma2300 -->
<g id="node5" class="node">
<title>ma2300</title>
<ellipse fill="none" stroke="black" cx="1734.35" cy="-562.83" rx="66.44" ry="26.74"/>
<text text-anchor="middle" x="1734.35" y="-566.63" font-family="Times,serif" font-size="14.00">MA 2300</text>
<text text-anchor="middle" x="1734.35" y="-551.63" font-family="Times,serif" font-size="14.00">Statistics I</text>
</g>
<!-- ma2450 -->
<g id="node6" class="node">
<title>ma2450</title>
<ellipse fill="none" stroke="black" cx="1512.35" cy="-562.83" rx="137.36" ry="26.74"/>
<text text-anchor="middle" x="1512.35" y="-566.63" font-family="Times,serif" font-size="14.00">MA 2450</text>
<text text-anchor="middle" x="1512.35" y="-551.63" font-family="Times,serif" font-size="14.00">Mathematical Reasoning</text>
</g>
<!-- cs2220&#45;&gt;cs3600 -->
<!-- cs4400 -->
<g id="node15" class="node">
<title>cs4400</title>
<ellipse fill="none" stroke="black" cx="293.35" cy="-182.61" rx="185.94" ry="26.74"/>
<text text-anchor="middle" x="293.35" y="-186.41" font-family="Times,serif" font-size="14.00">CS 4400</text>
<text text-anchor="middle" x="293.35" y="-171.41" font-family="Times,serif" font-size="14.00">Computer Networks and Protocols</text>
</g>
<!-- cs3240&#45;&gt;cs4400 -->
<g id="edge12" class="edge">
<title>cs3240&#45;&gt;cs4400</title>
<path fill="none" stroke="black" d="M1076.04,-405.67C1019.34,-399.31 957.08,-390.92 900.35,-380.22 714.25,-345.12 666.84,-334.76 488.35,-271.48 441.56,-254.89 390.47,-231.67 352.32,-213.27"/>
<polygon fill="black" stroke="black" points="353.44,-209.92 342.91,-208.7 350.38,-216.21 353.44,-209.92"/>
</g>
<!-- cs4420 -->
<g id="node16" class="node">
<title>cs4420</title>
<ellipse fill="none" stroke="black" cx="377.35" cy="-50.87" rx="107.46" ry="26.74"/>
<text text-anchor="middle" x="377.35" y="-54.67" font-family="Times,serif" font-size="14.00">CS 4420</text>
<text text-anchor="middle" x="377.35" y="-39.67" font-family="Times,serif" font-size="14.00">Computer Security</text>
</g>
<!-- cs3240&#45;&gt;cs4420 -->
<g id="edge14" class="edge">
<title>cs3240&#45;&gt;cs4420</title>
<path fill="none" stroke="black" d="M1021.2,-418.6C874.04,-413.99 682.7,-403.56 514.35,-380.22 294.67,-349.76 166.03,-444.54 27.35,-271.48 -7.04,-228.56 -10.87,-187.29 27.35,-147.74 36.35,-138.43 248.13,-144.05 260.35,-139.74 292.92,-128.25 323.9,-104.17 345.78,-84.13"/>
<polygon fill="black" stroke="black" points="348.24,-86.63 353.14,-77.23 343.45,-81.52 348.24,-86.63"/>
</g>
<!-- cs4760 -->
<g id="node18" class="node">
<title>cs4760</title>
<ellipse fill="none" stroke="black" cx="1662.35" cy="-50.87" rx="84.29" ry="26.74"/>
<text text-anchor="middle" x="1662.35" y="-54.67" font-family="Times,serif" font-size="14.00">CS 4760</text>
<text text-anchor="middle" x="1662.35" y="-39.67" font-family="Times,serif" font-size="14.00">Senior Project</text>
</g>
<!-- cs3240&#45;&gt;cs4760 -->
<g id="edge19" class="edge">
<title>cs3240&#45;&gt;cs4760</title>
<path fill="none" stroke="black" d="M1051.54,-409.41C1017.81,-403.12 990.12,-393.84 978.35,-380.22 949.08,-346.34 947.16,-311.6 978.35,-279.48 999.33,-257.87 1225.52,-289.92 1249.35,-271.48 1294.64,-236.43 1240.03,-182.76 1285.35,-147.74 1310.24,-128.5 1539.25,-151.7 1568.35,-139.74 1595.95,-128.39 1620.34,-104.96 1637.36,-85.14"/>
<polygon fill="black" stroke="black" points="1640.26,-87.13 1643.96,-77.2 1634.88,-82.65 1640.26,-87.13"/>
</g>
<!-- cs3420&#45;&gt;cs4420 -->
<g id="edge13" class="edge">
<title>cs3420&#45;&gt;cs4420</title>
<path fill="none" stroke="black" d="M1580.66,-400.96C1560.4,-395.79 1538.16,-390.97 1517.35,-388.22 1398.59,-372.55 1097.75,-389.82 978.35,-380.22 670.74,-355.49 598.69,-307.32 291.35,-279.48 278.72,-278.34 72.15,-280.6 63.35,-271.48 25.15,-231.92 25.26,-187.41 63.35,-147.74 78.52,-131.94 239.71,-147.09 260.35,-139.74 292.88,-128.14 323.86,-104.08 345.76,-84.06"/>
<polygon fill="black" stroke="black" points="348.21,-86.56 353.12,-77.17 343.42,-81.45 348.21,-86.56"/>
</g>
<!-- cs3420&#45;&gt;cs4760 -->
<g id="edge20" class="edge">
<title>cs3420&#45;&gt;cs4760</title>
<path fill="none" stroke="black" d="M1580.66,-400.97C1560.4,-395.8 1538.16,-390.98 1517.35,-388.22 1503.27,-386.36 1016.31,-390.34 1006.35,-380.22 974.94,-348.31 975.14,-311.59 1006.35,-279.48 1017.15,-268.36 1272.22,-279.73 1285.35,-271.48 1337.77,-238.54 1297.05,-180.89 1349.35,-147.74 1369.91,-134.7 1545.86,-149.09 1568.35,-139.74 1595.9,-128.28 1620.3,-104.85 1637.33,-85.07"/>
<polygon fill="black" stroke="black" points="1640.22,-87.06 1643.93,-77.14 1634.84,-82.58 1640.22,-87.06"/>
</g>
<!-- cs3650 -->
<g id="node13" class="node">
<title>cs3650</title>
<ellipse fill="none" stroke="black" cx="698.35" cy="-182.61" rx="200.64" ry="26.74"/>
<text text-anchor="middle" x="698.35" y="-186.41" font-family="Times,serif" font-size="14.00">CS 3650</text>
<text text-anchor="middle" x="698.35" y="-171.41" font-family="Times,serif" font-size="14.00">Big Data Administration and Analysis</text>
</g>
<!-- cs3600&#45;&gt;cs3650 -->
<g id="edge15" class="edge">
<title>cs3600&#45;&gt;cs3650</title>
<path fill="none" stroke="black" d="M1112.58,-300.71C1066.11,-293.87 1014,-286.27 966.35,-279.48 940.58,-275.81 933.45,-278.34 908.35,-271.48 855.54,-257.05 798.39,-232.51 757.06,-213.02"/>
<polygon fill="black" stroke="black" points="758.5,-209.83 747.97,-208.7 755.49,-216.15 758.5,-209.83"/>
</g>
<!-- cs3720 -->
<g id="node14" class="node">
<title>cs3720</title>
<ellipse fill="none" stroke="black" cx="1077.35" cy="-182.61" rx="159.61" ry="26.74"/>
<text text-anchor="middle" x="1077.35" y="-186.41" font-family="Times,serif" font-size="14.00">CS 3720</text>
<text text-anchor="middle" x="1077.35" y="-171.41" font-family="Times,serif" font-size="14.00">Systems Analysis and Design</text>
</g>
<!-- cs3600&#45;&gt;cs3720 -->
<g id="edge16" class="edge">
<title>cs3600&#45;&gt;cs3720</title>
<path fill="none" stroke="black" d="M1218.62,-295.44C1189.88,-272.69 1147.99,-239.53 1117.29,-215.23"/>
<polygon fill="black" stroke="black" points="1119.35,-212.4 1109.34,-208.94 1115.01,-217.89 1119.35,-212.4"/>
</g>
<!-- cs3600&#45;&gt;cs4420 -->
<g id="edge17" class="edge">
<title>cs3600&#45;&gt;cs4420</title>
<path fill="none" stroke="black" d="M1128.31,-299.52C1078.24,-291.62 1019.7,-283.62 966.35,-279.48 954.29,-278.54 103.86,-280.07 95.35,-271.48 56.64,-232.41 57.41,-187.56 95.35,-147.74 108.01,-134.45 243.08,-145.97 260.35,-139.74 292.84,-128.02 323.82,-103.96 345.73,-83.98"/>
<polygon fill="black" stroke="black" points="348.17,-86.49 353.09,-77.1 343.39,-81.37 348.17,-86.49"/>
</g>
<!-- cs3600&#45;&gt;cs4760 -->
<g id="edge18" class="edge">
<title>cs3600&#45;&gt;cs4760</title>
<path fill="none" stroke="black" d="M1303.84,-296.03C1368.64,-263.72 1480.96,-204.26 1568.35,-139.74 1590.83,-123.14 1613.79,-101.77 1631.39,-84.27"/>
<polygon fill="black" stroke="black" points="1634.02,-86.59 1638.59,-77.03 1629.06,-81.65 1634.02,-86.59"/>
</g>
<!-- cs3820&#45;&gt;cs4760 -->
<g id="edge23" class="edge">
<title>cs3820&#45;&gt;cs4760</title>
<path fill="none" stroke="black" d="M1662.35,-295.02C1662.35,-246.5 1662.35,-142.91 1662.35,-87.91"/>
<polygon fill="black" stroke="black" points="1665.85,-87.91 1662.35,-77.91 1658.85,-87.91 1665.85,-87.91"/>
</g>
<!-- cs3650&#45;&gt;cs4420 -->
<!-- cs3650&#45;&gt;cs4760 -->
<g id="edge21" class="edge">
<title>cs3650&#45;&gt;cs4760</title>
<path fill="none" stroke="black" d="M810.77,-160.34C842.23,-155.24 876.52,-150.48 908.35,-147.74 944.88,-144.59 1534.32,-153.41 1568.35,-139.74 1596.04,-128.62 1620.43,-105.17 1637.42,-85.3"/>
<polygon fill="black" stroke="black" points="1640.34,-87.26 1644.01,-77.33 1634.94,-82.8 1640.34,-87.26"/>
</g>
<!-- cs3720&#45;&gt;cs4760 -->
<g id="edge22" class="edge">
<title>cs3720&#45;&gt;cs4760</title>
<path fill="none" stroke="black" d="M1171.74,-160.9C1199.21,-155.68 1229.36,-150.71 1257.35,-147.74 1291.72,-144.09 1536.36,-152.84 1568.35,-139.74 1595.96,-128.43 1620.36,-104.99 1637.37,-85.17"/>
<polygon fill="black" stroke="black" points="1640.27,-87.15 1643.97,-77.22 1634.89,-82.68 1640.27,-87.15"/>
</g>
<!-- cs4520 -->
<g id="node17" class="node">
<title>cs4520</title>
<ellipse fill="none" stroke="black" cx="179.35" cy="-50.87" rx="72.25" ry="26.74"/>
<text text-anchor="middle" x="179.35" y="-54.67" font-family="Times,serif" font-size="14.00">CS 4520</text>
<text text-anchor="middle" x="179.35" y="-39.67" font-family="Times,serif" font-size="14.00">Cyberethics</text>
</g>
<!-- cs4760&#45;&gt;cs4760 -->
<!-- cm3095 -->
<g id="node19" class="node">
<title>cm3095</title>
<ellipse fill="none" stroke="black" cx="1418.35" cy="-50.87" rx="141.34" ry="26.74"/>
<text text-anchor="middle" x="1418.35" y="-54.67" font-family="Times,serif" font-size="14.00">CM 3095</text>
<text text-anchor="middle" x="1418.35" y="-39.67" font-family="Times,serif" font-size="14.00">Technical Communication</text>
</g>
</g>
</svg>
