<?xml version="1.0" encoding="UTF-8" standalone="no"?>
<!DOCTYPE svg PUBLIC "-//W3C//DTD SVG 1.1//EN"
 "http://www.w3.org/Graphics/SVG/1.1/DTD/svg11.dtd">
<!-- Generated by graphviz version 2.43.0 (0)
 -->
<!-- Title: %3 Pages: 1 -->
<svg width="2389pt" height="768pt"
 viewBox="0.00 0.00 2389.20 768.44" xmlns="http://www.w3.org/2000/svg" xmlns:xlink="http://www.w3.org/1999/xlink">
<g id="graph0" class="graph" transform="scale(1 1) rotate(0) translate(4 764.44)">
<title>%3</title>
<polygon fill="white" stroke="transparent" points="-4,4 -4,-764.44 2385.2,-764.44 2385.2,4 -4,4"/>
<g id="clust1" class="cluster">
<title>cluster_year1</title>
<polygon fill="lightgrey" stroke="lightgrey" points="1423,-519.96 1423,-752.44 1841,-752.44 1841,-519.96 1423,-519.96"/>
<text text-anchor="middle" x="1632" y="-737.24" font-family="Times,serif" font-size="14.00">Year 1</text>
</g>
<g id="clust2" class="cluster">
<title>cluster_fall1</title>
<polygon fill="white" stroke="white" points="1453,-628.7 1453,-721.44 1795,-721.44 1795,-628.7 1453,-628.7"/>
<text text-anchor="middle" x="1624" y="-706.24" font-family="Times,serif" font-size="14.00">Year 1 Fall</text>
</g>
<g id="clust3" class="cluster">
<title>cluster_spring1</title>
<polygon fill="white" stroke="white" points="1431,-527.96 1431,-620.7 1833,-620.7 1833,-527.96 1431,-527.96"/>
<text text-anchor="middle" x="1632" y="-605.5" font-family="Times,serif" font-size="14.00">Year 1 Spring</text>
</g>
<g id="clust4" class="cluster">
<title>cluster_year2</title>
<polygon fill="lightgrey" stroke="lightgrey" points="671,-279.48 671,-511.96 2253,-511.96 2253,-279.48 671,-279.48"/>
<text text-anchor="middle" x="1462" y="-496.76" font-family="Times,serif" font-size="14.00">Year 2</text>
</g>
<g id="clust5" class="cluster">
<title>cluster_fall2</title>
<polygon fill="white" stroke="white" points="679,-388.22 679,-480.96 2245,-480.96 2245,-388.22 679,-388.22"/>
<text text-anchor="middle" x="1462" y="-465.76" font-family="Times,serif" font-size="14.00">Year 2 Fall</text>
</g>
<g id="clust6" class="cluster">
<title>cluster_spring2</title>
<polygon fill="white" stroke="white" points="820,-287.48 820,-380.22 1510,-380.22 1510,-287.48 820,-287.48"/>
<text text-anchor="middle" x="1165" y="-365.02" font-family="Times,serif" font-size="14.00">Year 2 Spring</text>
</g>
<g id="clust7" class="cluster">
<title>cluster_year3</title>
<polygon fill="lightgrey" stroke="lightgrey" points="276,-8 276,-271.48 1480,-271.48 1480,-8 276,-8"/>
<text text-anchor="middle" x="878" y="-256.28" font-family="Times,serif" font-size="14.00">Year 3</text>
</g>
<g id="clust8" class="cluster">
<title>cluster_fall3</title>
<polygon fill="white" stroke="white" points="284,-147.74 284,-240.48 1472,-240.48 1472,-147.74 284,-147.74"/>
<text text-anchor="middle" x="878" y="-225.28" font-family="Times,serif" font-size="14.00">Year 3 Fall</text>
</g>
<g id="clust9" class="cluster">
<title>cluster_spring3</title>
<polygon fill="white" stroke="white" points="884,-16 884,-108.74 1472,-108.74 1472,-16 884,-16"/>
<text text-anchor="middle" x="1178" y="-93.54" font-family="Times,serif" font-size="14.00">Year 3 Spring</text>
</g>
<g id="clust10" class="cluster">
<title>cluster_year4</title>
<polygon fill="lightgrey" stroke="lightgrey" points="8,-8 8,-139.74 268,-139.74 268,-8 8,-8"/>
<text text-anchor="middle" x="138" y="-124.54" font-family="Times,serif" font-size="14.00">Year 4</text>
</g>
<g id="clust11" class="cluster">
<title>cluster_fall4</title>
<polygon fill="white" stroke="white" points="16,-16 16,-108.74 260,-108.74 260,-16 16,-16"/>
<text text-anchor="middle" x="138" y="-93.54" font-family="Times,serif" font-size="14.00">Year 4 Fall</text>
</g>
<!-- cs2010 -->
<g id="node1" class="node">
<title>cs2010</title>
<ellipse fill="none" stroke="black" cx="1703" cy="-663.57" rx="84.29" ry="26.74"/>
<text text-anchor="middle" x="1703" y="-667.37" font-family="Times,serif" font-size="14.00">CS 2010</text>
<text text-anchor="middle" x="1703" y="-652.37" font-family="Times,serif" font-size="14.00">Fundamentals</text>
</g>
<!-- cs2370 -->
<g id="node3" class="node">
<title>cs2370</title>
<ellipse fill="none" stroke="black" cx="1703" cy="-562.83" rx="122.16" ry="26.74"/>
<text text-anchor="middle" x="1703" y="-566.63" font-family="Times,serif" font-size="14.00">CS 2370</text>
<text text-anchor="middle" x="1703" y="-551.63" font-family="Times,serif" font-size="14.00">Intro to Programming</text>
</g>
<!-- cs2010&#45;&gt;cs2370 -->
<!-- cs2010&#45;&gt;cs2370 -->
<g id="edge5" class="edge">
<title>cs2010&#45;&gt;cs2370</title>
<path fill="none" stroke="black" d="M1709.02,-636.63C1709.77,-625.49 1709.94,-612.28 1709.54,-600.2"/>
<polygon fill="black" stroke="black" points="1713.02,-599.76 1709.03,-589.94 1706.03,-600.1 1713.02,-599.76"/>
</g>
<!-- ma2130 -->
<g id="node2" class="node">
<title>ma2130</title>
<ellipse fill="none" stroke="black" cx="1531" cy="-663.57" rx="70.01" ry="26.74"/>
<text text-anchor="middle" x="1531" y="-667.37" font-family="Times,serif" font-size="14.00">MA 2130</text>
<text text-anchor="middle" x="1531" y="-652.37" font-family="Times,serif" font-size="14.00">Precalculus</text>
</g>
<!-- ma2550 -->
<g id="node4" class="node">
<title>ma2550</title>
<ellipse fill="none" stroke="black" cx="1501" cy="-562.83" rx="61.54" ry="26.74"/>
<text text-anchor="middle" x="1501" y="-566.63" font-family="Times,serif" font-size="14.00">MA 2550</text>
<text text-anchor="middle" x="1501" y="-551.63" font-family="Times,serif" font-size="14.00">Calculus I</text>
</g>
<!-- ma2130&#45;&gt;ma2550 -->
<g id="edge26" class="edge">
<title>ma2130&#45;&gt;ma2550</title>
<path fill="none" stroke="black" d="M1523.12,-636.63C1519.64,-625.18 1515.49,-611.53 1511.74,-599.17"/>
<polygon fill="black" stroke="black" points="1515.09,-598.15 1508.83,-589.6 1508.39,-600.19 1515.09,-598.15"/>
</g>
<!-- cs2220 -->
<g id="node5" class="node">
<title>cs2220</title>
<ellipse fill="none" stroke="black" cx="1047" cy="-423.09" rx="115.93" ry="26.74"/>
<text text-anchor="middle" x="1047" y="-426.89" font-family="Times,serif" font-size="14.00">CS 2220</text>
<text text-anchor="middle" x="1047" y="-411.89" font-family="Times,serif" font-size="14.00">Computer Hardware</text>
</g>
<!-- cs2370&#45;&gt;cs2220 -->
<g id="edge6" class="edge">
<title>cs2370&#45;&gt;cs2220</title>
<path fill="none" stroke="black" d="M1644.55,-539.16C1622.2,-531.56 1596.26,-523.99 1572,-519.96 1528.15,-512.67 1214.25,-525.79 1172,-511.96 1137.57,-500.69 1104.3,-476.44 1080.76,-456.26"/>
<polygon fill="black" stroke="black" points="1082.98,-453.56 1073.16,-449.6 1078.37,-458.83 1082.98,-453.56"/>
</g>
<!-- cs2470 -->
<g id="node6" class="node">
<title>cs2470</title>
<ellipse fill="none" stroke="black" cx="1359" cy="-423.09" rx="178.38" ry="26.74"/>
<text text-anchor="middle" x="1359" y="-426.89" font-family="Times,serif" font-size="14.00">CS 2470</text>
<text text-anchor="middle" x="1359" y="-411.89" font-family="Times,serif" font-size="14.00">Systems Programming in C/C++</text>
</g>
<!-- cs2370&#45;&gt;cs2470 -->
<g id="edge7" class="edge">
<title>cs2370&#45;&gt;cs2470</title>
<path fill="none" stroke="black" d="M1636.06,-540.28C1615.53,-533.71 1592.85,-526.5 1572,-519.96 1560.46,-516.34 1557.28,-516.32 1546,-511.96 1501.58,-494.79 1452.95,-471.8 1416.41,-453.64"/>
<polygon fill="black" stroke="black" points="1417.9,-450.47 1407.39,-449.14 1414.78,-456.74 1417.9,-450.47"/>
</g>
<!-- cs2900 -->
<g id="node7" class="node">
<title>cs2900</title>
<ellipse fill="none" stroke="black" cx="1703" cy="-423.09" rx="147.57" ry="26.74"/>
<text text-anchor="middle" x="1703" y="-426.89" font-family="Times,serif" font-size="14.00">CS 2900</text>
<text text-anchor="middle" x="1703" y="-411.89" font-family="Times,serif" font-size="14.00">Digital and Analog Circuits</text>
</g>
<!-- cs2370&#45;&gt;cs2900 -->
<g id="edge8" class="edge">
<title>cs2370&#45;&gt;cs2900</title>
<path fill="none" stroke="black" d="M1703,-535.92C1703,-514.61 1703,-484.15 1703,-460.4"/>
<polygon fill="black" stroke="black" points="1706.5,-460.35 1703,-450.35 1699.5,-460.35 1706.5,-460.35"/>
</g>
<!-- cs2901 -->
<g id="node8" class="node">
<title>cs2901</title>
<ellipse fill="none" stroke="black" cx="2053" cy="-423.09" rx="183.7" ry="26.74"/>
<text text-anchor="middle" x="2053" y="-426.89" font-family="Times,serif" font-size="14.00">CS 2901</text>
<text text-anchor="middle" x="2053" y="-411.89" font-family="Times,serif" font-size="14.00">Materials, Design and Fabrication</text>
</g>
<!-- cs2370&#45;&gt;cs2901 -->
<g id="edge9" class="edge">
<title>cs2370&#45;&gt;cs2901</title>
<path fill="none" stroke="black" d="M1774.75,-541.02C1801.72,-532.68 1832.51,-522.54 1860,-511.96 1905.45,-494.47 1955.47,-471.59 1993.19,-453.56"/>
<polygon fill="black" stroke="black" points="1995.01,-456.57 2002.51,-449.09 1991.98,-450.26 1995.01,-456.57"/>
</g>
<!-- cs3690 -->
<g id="node11" class="node">
<title>cs3690</title>
<ellipse fill="none" stroke="black" cx="1405" cy="-322.35" rx="96.75" ry="26.74"/>
<text text-anchor="middle" x="1405" y="-326.15" font-family="Times,serif" font-size="14.00">CS 3690</text>
<text text-anchor="middle" x="1405" y="-311.15" font-family="Times,serif" font-size="14.00">Applied Robotics</text>
</g>
<!-- cs2370&#45;&gt;cs3690 -->
<g id="edge10" class="edge">
<title>cs2370&#45;&gt;cs3690</title>
<path fill="none" stroke="black" d="M1824.29,-559.24C1976.44,-554.71 2220.94,-542.7 2249,-511.96 2286.08,-471.34 2286.37,-428.57 2249,-388.22 2199.91,-335.22 1728.31,-325.37 1512.21,-323.65"/>
<polygon fill="black" stroke="black" points="1512.14,-320.15 1502.12,-323.57 1512.09,-327.15 1512.14,-320.15"/>
</g>
<!-- cs3420 -->
<g id="node21" class="node">
<title>cs3420</title>
<ellipse fill="none" stroke="black" cx="2337" cy="-423.09" rx="44.39" ry="18"/>
<text text-anchor="middle" x="2337" y="-419.39" font-family="Times,serif" font-size="14.00">cs3420</text>
</g>
<!-- cs2370&#45;&gt;cs3420 -->
<g id="edge21" class="edge">
<title>cs2370&#45;&gt;cs3420</title>
<path fill="none" stroke="black" d="M1822.47,-557.02C1979.72,-549.84 2240.81,-534.69 2279,-511.96 2302.22,-498.14 2317.96,-470.99 2327.12,-450.5"/>
<polygon fill="black" stroke="black" points="2330.44,-451.64 2331.09,-441.07 2323.98,-448.93 2330.44,-451.64"/>
</g>
<!-- ph2510 -->
<g id="node9" class="node">
<title>ph2510</title>
<ellipse fill="none" stroke="black" cx="800" cy="-423.09" rx="113.27" ry="26.74"/>
<text text-anchor="middle" x="800" y="-426.89" font-family="Times,serif" font-size="14.00">PH 2510</text>
<text text-anchor="middle" x="800" y="-411.89" font-family="Times,serif" font-size="14.00">University Physics I</text>
</g>
<!-- ma2550&#45;&gt;ph2510 -->
<g id="edge27" class="edge">
<title>ma2550&#45;&gt;ph2510</title>
<path fill="none" stroke="black" d="M1439.24,-560.65C1310.05,-557.5 1015.54,-546.64 922,-511.96 888.94,-499.7 856.8,-475.92 833.82,-456.18"/>
<polygon fill="black" stroke="black" points="835.91,-453.36 826.08,-449.4 831.29,-458.62 835.91,-453.36"/>
</g>
<!-- cs2905 -->
<g id="node10" class="node">
<title>cs2905</title>
<ellipse fill="none" stroke="black" cx="1185" cy="-322.35" rx="105.22" ry="26.74"/>
<text text-anchor="middle" x="1185" y="-326.15" font-family="Times,serif" font-size="14.00">CS 2905</text>
<text text-anchor="middle" x="1185" y="-311.15" font-family="Times,serif" font-size="14.00">PLC Programming</text>
</g>
<!-- cs2220&#45;&gt;cs2905 -->
<!-- cs2220&#45;&gt;cs2905 -->
<g id="edge11" class="edge">
<title>cs2220&#45;&gt;cs2905</title>
<path fill="none" stroke="black" d="M1087.03,-397.68C1106.2,-384.65 1128.95,-368.47 1147.75,-354.53"/>
<polygon fill="black" stroke="black" points="1149.89,-357.3 1155.81,-348.51 1145.7,-351.69 1149.89,-357.3"/>
</g>
<!-- cs2900&#45;&gt;cs3690 -->
<g id="edge12" class="edge">
<title>cs2900&#45;&gt;cs3690</title>
<path fill="none" stroke="black" d="M1633.88,-399.19C1586.27,-383.41 1523.21,-362.52 1475.33,-346.65"/>
<polygon fill="black" stroke="black" points="1476.26,-343.27 1465.66,-343.45 1474.06,-349.92 1476.26,-343.27"/>
</g>
<!-- cs3902 -->
<g id="node16" class="node">
<title>cs3902</title>
<ellipse fill="none" stroke="black" cx="436" cy="-182.61" rx="143.59" ry="26.74"/>
<text text-anchor="middle" x="436" y="-186.41" font-family="Times,serif" font-size="14.00">CS 3902</text>
<text text-anchor="middle" x="436" y="-171.41" font-family="Times,serif" font-size="14.00">Adaptive Control Systems</text>
</g>
<!-- cs2900&#45;&gt;cs3902 -->
<g id="edge17" class="edge">
<title>cs2900&#45;&gt;cs3902</title>
<path fill="none" stroke="black" d="M1619.6,-400.79C1595.97,-395.66 1570.11,-390.89 1546,-388.22 1518.94,-385.22 589.92,-393.21 566,-380.22 561.79,-377.93 494.03,-273.56 458.05,-217.84"/>
<polygon fill="black" stroke="black" points="460.93,-215.85 452.57,-209.34 455.05,-219.64 460.93,-215.85"/>
</g>
<!-- cs2901&#45;&gt;cs3690 -->
<g id="edge13" class="edge">
<title>cs2901&#45;&gt;cs3690</title>
<path fill="none" stroke="black" d="M1940.84,-401.78C1914.36,-397.16 1886.21,-392.39 1860,-388.22 1736.38,-368.57 1593.42,-348.64 1501.23,-336.16"/>
<polygon fill="black" stroke="black" points="1501.46,-332.66 1491.08,-334.78 1500.52,-339.59 1501.46,-332.66"/>
</g>
<!-- ph2520 -->
<g id="node12" class="node">
<title>ph2520</title>
<ellipse fill="none" stroke="black" cx="945" cy="-322.35" rx="116.85" ry="26.74"/>
<text text-anchor="middle" x="945" y="-326.15" font-family="Times,serif" font-size="14.00">PH 2520</text>
<text text-anchor="middle" x="945" y="-311.15" font-family="Times,serif" font-size="14.00">University Physics II</text>
</g>
<!-- ph2510&#45;&gt;ph2520 -->
<g id="edge28" class="edge">
<title>ph2510&#45;&gt;ph2520</title>
<path fill="none" stroke="black" d="M836.22,-397.43C855.68,-384.17 879.84,-367.72 900.45,-353.69"/>
<polygon fill="black" stroke="black" points="902.45,-356.56 908.74,-348.04 898.51,-350.78 902.45,-356.56"/>
</g>
<!-- cs3890 -->
<g id="node14" class="node">
<title>cs3890</title>
<ellipse fill="lightblue" stroke="black" cx="1120" cy="-182.61" rx="111.95" ry="26.74"/>
<text text-anchor="middle" x="1120" y="-186.41" font-family="Times,serif" font-size="14.00">CS 3890</text>
<text text-anchor="middle" x="1120" y="-171.41" font-family="Times,serif" font-size="14.00">Engineering Design</text>
</g>
<!-- ph2510&#45;&gt;cs3890 -->
<g id="edge18" class="edge">
<title>ph2510&#45;&gt;cs3890</title>
<path fill="none" stroke="black" d="M794.02,-396.12C788.27,-363.68 784.5,-308.9 816,-279.48 830.96,-265.51 980.69,-278.26 1000,-271.48 1033.13,-259.85 1064.91,-235.78 1087.44,-215.77"/>
<polygon fill="black" stroke="black" points="1089.97,-218.21 1095.01,-208.89 1085.26,-213.03 1089.97,-218.21"/>
</g>
<!-- ph2510&#45;&gt;cs3902 -->
<g id="edge16" class="edge">
<title>ph2510&#45;&gt;cs3902</title>
<path fill="none" stroke="black" d="M689.53,-417.18C620.97,-412.04 540.96,-401.55 514,-380.22 464.17,-340.8 446.07,-264.86 439.57,-219.76"/>
<polygon fill="black" stroke="black" points="443.03,-219.27 438.25,-209.82 436.09,-220.19 443.03,-219.27"/>
</g>
<!-- cs3905 -->
<g id="node17" class="node">
<title>cs3905</title>
<ellipse fill="lightblue" stroke="black" cx="1259" cy="-50.87" rx="205.12" ry="26.74"/>
<text text-anchor="middle" x="1259" y="-54.67" font-family="Times,serif" font-size="14.00">CS 3905</text>
<text text-anchor="middle" x="1259" y="-39.67" font-family="Times,serif" font-size="14.00">Mobility, Autonomy, and Teleoperation</text>
</g>
<!-- ph2510&#45;&gt;cs3905 -->
<g id="edge23" class="edge">
<title>ph2510&#45;&gt;cs3905</title>
<path fill="none" stroke="black" d="M864.24,-400.93C882.68,-395.76 902.96,-390.95 922,-388.22 938.28,-385.89 1502.45,-391.93 1514,-380.22 1535.11,-358.82 1504.37,-153.5 1500,-147.74 1473.11,-112.3 1431.08,-89.93 1389.6,-75.83"/>
<polygon fill="black" stroke="black" points="1390.51,-72.45 1379.92,-72.68 1388.35,-79.1 1390.51,-72.45"/>
</g>
<!-- cs3901 -->
<g id="node15" class="node">
<title>cs3901</title>
<ellipse fill="none" stroke="black" cx="1357" cy="-182.61" rx="107.46" ry="26.74"/>
<text text-anchor="middle" x="1357" y="-186.41" font-family="Times,serif" font-size="14.00">CS 3901</text>
<text text-anchor="middle" x="1357" y="-171.41" font-family="Times,serif" font-size="14.00">Industrial Robotics</text>
</g>
<!-- cs2905&#45;&gt;cs3901 -->
<g id="edge14" class="edge">
<title>cs2905&#45;&gt;cs3901</title>
<path fill="none" stroke="black" d="M1216.15,-296.41C1244.76,-273.49 1287.28,-239.44 1318.12,-214.75"/>
<polygon fill="black" stroke="black" points="1320.47,-217.35 1326.08,-208.37 1316.09,-211.89 1320.47,-217.35"/>
</g>
<!-- cs3690&#45;&gt;cs3890 -->
<g id="edge19" class="edge">
<title>cs3690&#45;&gt;cs3890</title>
<path fill="none" stroke="black" d="M1355.94,-299.14C1338.3,-291.92 1318.04,-284.48 1299,-279.48 1273.83,-272.88 1265.14,-281.19 1241,-271.48 1208.68,-258.48 1177,-234.96 1154.17,-215.53"/>
<polygon fill="black" stroke="black" points="1156.32,-212.76 1146.47,-208.85 1151.73,-218.05 1156.32,-212.76"/>
</g>
<!-- cs3690&#45;&gt;cs3901 -->
<g id="edge15" class="edge">
<title>cs3690&#45;&gt;cs3901</title>
<path fill="none" stroke="black" d="M1395.97,-295.44C1388.46,-273.89 1377.7,-243.01 1369.38,-219.15"/>
<polygon fill="black" stroke="black" points="1372.58,-217.69 1365.99,-209.4 1365.97,-220 1372.58,-217.69"/>
</g>
<!-- cs3690&#45;&gt;cs3905 -->
<g id="edge24" class="edge">
<title>cs3690&#45;&gt;cs3905</title>
<path fill="none" stroke="black" d="M1451.29,-298.48C1461.2,-291.28 1470.37,-282.31 1476,-271.48 1501.36,-222.68 1506.02,-193.82 1476,-147.74 1453.67,-113.46 1416,-91.35 1378.25,-77.12"/>
<polygon fill="black" stroke="black" points="1379.26,-73.77 1368.66,-73.68 1376.89,-80.35 1379.26,-73.77"/>
</g>
<!-- cs3500 -->
<g id="node13" class="node">
<title>cs3500</title>
<ellipse fill="lightblue" stroke="black" cx="794" cy="-182.61" rx="196.65" ry="26.74"/>
<text text-anchor="middle" x="794" y="-186.41" font-family="Times,serif" font-size="14.00">CS 3500</text>
<text text-anchor="middle" x="794" y="-171.41" font-family="Times,serif" font-size="14.00">Introduction to Artificial Intelligence</text>
</g>
<!-- cs3500&#45;&gt;cs3905 -->
<!-- cs4790 -->
<g id="node19" class="node">
<title>cs4790</title>
<ellipse fill="none" stroke="black" cx="129" cy="-50.87" rx="105.22" ry="26.74"/>
<text text-anchor="middle" x="129" y="-54.67" font-family="Times,serif" font-size="14.00">CS 4790</text>
<text text-anchor="middle" x="129" y="-39.67" font-family="Times,serif" font-size="14.00">Robotics Capstone</text>
</g>
<!-- cs3901&#45;&gt;cs4790 -->
<g id="edge25" class="edge">
<title>cs3901&#45;&gt;cs4790</title>
<path fill="none" stroke="black" d="M1295.67,-160.46C1278.21,-155.33 1259.04,-150.52 1241,-147.74 1161.7,-135.5 960.05,-145.3 880,-139.74 645.81,-123.48 372.33,-87.06 228.74,-66.58"/>
<polygon fill="black" stroke="black" points="229.02,-63.08 218.62,-65.13 228.03,-70.01 229.02,-63.08"/>
</g>
<!-- cs4520 -->
<g id="node18" class="node">
<title>cs4520</title>
<ellipse fill="none" stroke="black" cx="964" cy="-50.87" rx="72.25" ry="26.74"/>
<text text-anchor="middle" x="964" y="-54.67" font-family="Times,serif" font-size="14.00">CS 4520</text>
<text text-anchor="middle" x="964" y="-39.67" font-family="Times,serif" font-size="14.00">Cyberethics</text>
</g>
<!-- cs4790&#45;&gt;cs4790 -->
<!-- cs3221 -->
<g id="node20" class="node">
<title>cs3221</title>
<ellipse fill="none" stroke="black" cx="619" cy="-322.35" rx="44.39" ry="18"/>
<text text-anchor="middle" x="619" y="-318.65" font-family="Times,serif" font-size="14.00">cs3221</text>
</g>
<!-- cs3221&#45;&gt;cs3500 -->
<g id="edge20" class="edge">
<title>cs3221&#45;&gt;cs3500</title>
<path fill="none" stroke="black" d="M638.4,-306.08C666.03,-284.33 717.38,-243.92 753.51,-215.48"/>
<polygon fill="black" stroke="black" points="755.74,-218.18 761.43,-209.24 751.41,-212.68 755.74,-218.18"/>
</g>
<!-- cs4420 -->
<g id="node22" class="node">
<title>cs4420</title>
<ellipse fill="none" stroke="black" cx="2337" cy="-322.35" rx="44.39" ry="18"/>
<text text-anchor="middle" x="2337" y="-318.65" font-family="Times,serif" font-size="14.00">cs4420</text>
</g>
<!-- cs3420&#45;&gt;cs4420 -->
<g id="edge22" class="edge">
<title>cs3420&#45;&gt;cs4420</title>
<path fill="none" stroke="black" d="M2337,-404.89C2337,-389.88 2337,-367.85 2337,-350.47"/>
<polygon fill="black" stroke="black" points="2340.5,-350.35 2337,-340.35 2333.5,-350.35 2340.5,-350.35"/>
</g>
</g>
</svg>
